<?xml version="1.0" standalone="no"?>
<!DOCTYPE svg PUBLIC "-//W3C//DTD SVG 20010904//EN"
 "http://www.w3.org/TR/2001/REC-SVG-20010904/DTD/svg10.dtd">
<svg version="1.0" xmlns="http://www.w3.org/2000/svg"
 width="2166.000000pt" height="2166.000000pt" viewBox="0 0 2166.000000 2166.000000"
 preserveAspectRatio="xMidYMid meet">

<g transform="translate(0.000000,2166.000000) scale(0.100000,-0.100000)"
fill="#000000" stroke="none">
<path d="M8815 16811 c-184 -227 -283 -536 -360 -1120 -27 -204 -30 -216 -70
-311 -26 -59 -29 -79 -35 -230 -4 -91 -10 -173 -14 -182 -4 -9 -20 -18 -34
-20 -21 -2 -28 -10 -34 -38 -17 -79 -28 -164 -43 -320 -8 -91 -19 -196 -23
-235 -5 -38 -7 -91 -4 -117 4 -46 3 -48 -22 -48 -31 0 -33 -21 -12 -109 16
-70 -1 -179 -123 -791 -49 -245 -96 -492 -105 -550 -19 -122 -76 -611 -137
-1155 -23 -209 -42 -381 -43 -382 -5 -6 -324 78 -386 102 -75 29 -182 85 -211
111 -24 21 -34 18 -73 -28 -70 -82 -99 -212 -76 -348 15 -91 24 -110 52 -110
12 0 41 -9 65 -21 l43 -21 102 68 c57 37 126 78 153 90 75 35 160 30 207 -13
17 -15 15 -18 -30 -57 -126 -109 -167 -177 -165 -276 0 -36 7 -83 15 -105 13
-34 22 -42 64 -57 28 -10 63 -33 82 -53 l33 -35 -31 -44 c-39 -57 -112 -203
-143 -286 -81 -218 -91 -468 -25 -633 15 -39 25 -19 33 67 13 150 36 199 101
212 21 4 37 0 54 -14 23 -19 25 -28 28 -121 4 -96 3 -101 -17 -101 -31 0 -86
-54 -99 -98 -18 -59 -16 -162 3 -162 28 0 96 -32 105 -50 7 -13 5 -27 -5 -47
-8 -15 -15 -42 -15 -59 0 -16 -5 -35 -10 -40 -8 -8 0 -19 25 -38 52 -40 101
-57 152 -54 45 3 46 4 80 68 19 36 51 82 71 103 40 42 123 87 159 87 28 0 28
-1 -2 145 -24 118 -34 275 -16 275 17 0 59 -40 69 -67 6 -15 13 -68 15 -117 7
-130 22 -136 180 -69 104 44 153 51 201 28 31 -15 50 -37 29 -34 -46 7 -125
-33 -105 -53 5 -5 59 -13 120 -18 62 -5 120 -14 129 -19 17 -10 16 -10 -2 -11
-26 0 -45 -18 -45 -42 0 -32 56 -49 204 -62 99 -9 151 -18 176 -31 l35 -18
-55 -26 c-57 -26 -101 -31 -135 -16 -37 16 4 -24 47 -46 56 -29 112 -33 220
-15 121 20 189 20 233 1 53 -22 54 -40 4 -91 -62 -63 -131 -88 -231 -81 -88 6
-96 -8 -24 -43 92 -44 285 -16 446 65 70 35 70 35 70 12 0 -71 52 -172 107
-209 43 -27 53 -23 53 22 0 50 20 98 51 126 44 39 63 39 121 -4 189 -138 451
-246 861 -356 160 -43 168 -48 96 -60 -36 -6 -89 -39 -89 -55 0 -4 35 -15 78
-24 42 -9 105 -30 139 -46 67 -32 187 -110 180 -117 -2 -3 -44 0 -93 6 -149
18 -461 24 -539 11 -211 -36 -347 -126 -426 -283 -17 -33 -36 -58 -45 -58 -31
0 -163 -62 -200 -94 l-39 -34 68 -138 68 -139 -123 -7 c-191 -10 -290 -58
-317 -153 -13 -48 -14 -95 -2 -95 5 0 27 29 49 65 46 72 90 105 142 105 l34 0
-41 -42 c-46 -47 -76 -107 -64 -126 5 -9 14 -4 32 14 81 89 239 61 362 -62 76
-76 71 -131 -19 -213 -102 -94 -273 -157 -449 -168 -105 -6 -111 -4 -285 62
-104 40 -313 28 -490 -27 -108 -33 -119 -43 -178 -151 -23 -41 -57 -92 -77
-112 l-35 -38 0 -98 c0 -97 5 -129 20 -129 4 0 11 21 15 48 16 111 85 203 190
253 33 16 65 29 72 29 43 0 16 -98 -58 -211 -114 -174 -125 -215 -85 -321 20
-52 46 -189 46 -240 0 -13 32 -38 50 -38 10 0 27 8 39 17 l21 18 -22 45 c-43
85 -23 234 41 310 l28 34 56 -13 c31 -7 71 -22 89 -35 27 -18 32 -28 30 -52
-2 -16 -6 -86 -9 -156 l-4 -128 -39 0 c-44 0 -70 -20 -70 -56 0 -28 7 -30 32
-7 18 16 23 16 84 -6 56 -20 69 -21 95 -11 26 11 29 16 23 39 -20 71 11 129
94 174 57 31 156 67 183 67 22 0 19 -23 -12 -132 -10 -36 -19 -68 -19 -71 0
-11 110 17 165 42 88 41 175 111 261 212 42 49 78 89 80 89 2 0 -6 -19 -16
-42 -21 -47 -25 -83 -11 -93 6 -3 76 31 158 74 81 44 174 92 206 106 57 25 76
21 35 -8 -40 -28 9 -21 59 8 51 31 56 16 10 -30 -24 -24 -49 -36 -101 -48 -62
-14 -116 -46 -116 -69 0 -27 155 11 230 57 51 31 135 111 255 243 35 38 51 50
59 42 8 -8 1 -29 -24 -76 -32 -60 -33 -65 -18 -81 16 -15 18 -14 35 16 39 72
74 123 80 118 13 -13 -10 -78 -42 -118 -19 -24 -32 -45 -30 -48 8 -8 118 71
167 120 98 98 111 179 58 349 -37 119 -42 185 -16 224 24 38 40 28 44 -28 3
-42 5 -47 25 -44 15 2 30 19 48 57 15 30 34 58 44 64 16 9 17 5 12 -39 -3 -27
-9 -61 -13 -76 -15 -64 77 -14 151 82 46 59 47 60 96 60 64 0 82 10 146 79 57
61 73 60 73 -5 0 -73 51 -139 232 -296 69 -60 118 -138 118 -188 0 -39 20 -57
67 -63 64 -8 116 -37 135 -76 25 -51 11 -63 -71 -59 -65 3 -66 3 -69 -24 -3
-22 3 -32 30 -48 40 -24 96 -26 208 -4 45 8 84 13 87 10 11 -10 -11 -28 -64
-51 -40 -18 -54 -29 -51 -42 6 -32 85 -29 172 6 42 17 98 33 126 37 53 7 54 8
65 84 8 49 20 70 41 70 27 0 152 -138 185 -205 l32 -65 -27 -51 c-18 -32 -34
-88 -47 -157 -10 -59 -26 -126 -35 -150 -16 -43 -18 -44 -98 -57 -86 -14 -196
-98 -240 -184 -17 -32 -17 -32 -75 -25 -171 19 -301 -120 -380 -409 -26 -97
-64 -297 -57 -304 12 -12 64 58 107 143 24 49 57 104 73 122 54 62 128 83 140
40 10 -39 6 -130 -8 -198 -36 -173 -30 -231 30 -256 18 -8 47 -14 64 -14 l32
0 -7 63 c-17 153 61 250 218 272 l47 6 0 -65 c0 -123 29 -196 77 -196 6 0 34
46 61 103 27 56 56 107 63 114 12 10 29 8 80 -8 35 -11 91 -23 124 -26 105
-10 173 41 240 180 l35 74 49 6 c28 3 64 13 82 22 84 44 181 171 220 288 27
84 17 124 -56 214 -30 37 -55 76 -55 87 0 10 16 36 36 58 51 56 63 93 75 221
6 62 17 127 25 145 13 33 12 36 -20 75 -84 104 -72 136 29 78 28 -16 57 -36
64 -45 17 -21 26 -196 12 -238 -6 -17 -9 -33 -7 -35 8 -9 68 53 87 90 17 32
20 54 17 115 l-3 76 68 55 c116 96 127 132 61 210 -37 43 -92 68 -212 97 -118
30 -185 73 -222 145 -23 43 -51 50 -163 42 -85 -6 -133 6 -168 43 -20 21 -21
27 -9 34 22 14 44 12 95 -10 81 -35 144 -19 107 26 -27 34 -75 62 -181 108
-103 45 -181 97 -181 122 0 10 15 14 60 14 51 0 72 -6 146 -45 132 -69 151
-56 59 43 -61 66 -154 131 -265 187 -41 21 -77 39 -79 41 -3 3 4 11 16 19 31
22 60 100 78 210 22 144 21 140 54 115 58 -40 177 -90 268 -111 114 -26 262
-23 358 9 33 11 93 25 133 31 453 70 799 589 802 1201 l0 95 38 26 c20 14 77
45 126 68 49 23 105 53 123 67 38 29 73 91 73 129 0 23 -3 25 -47 25 -92 0
-97 36 -9 75 57 25 66 37 66 91 0 44 -14 44 -140 4 -117 -37 -205 -50 -198
-29 2 8 30 31 61 52 31 21 57 44 57 52 0 18 5 17 -58 5 -27 -5 -90 -27 -140
-50 -49 -22 -95 -40 -101 -40 -6 0 -11 13 -11 29 0 16 -7 48 -16 72 -9 24 -21
74 -28 111 l-11 67 -255 258 c-140 142 -336 330 -435 417 -232 205 -443 417
-528 531 -82 110 -168 280 -199 395 -20 77 -23 106 -22 305 0 195 2 229 22
300 50 184 145 320 259 373 51 23 71 26 168 27 98 0 116 -3 165 -26 72 -34
146 -102 206 -190 l49 -71 -40 -31 c-110 -87 -245 -235 -245 -269 0 -52 35
-119 105 -202 41 -50 75 -93 75 -98 0 -17 -43 -28 -115 -28 -60 0 -77 -3 -82
-16 -14 -37 54 -52 136 -29 103 28 111 29 111 13 0 -26 -54 -66 -145 -108 -84
-39 -89 -42 -71 -56 30 -21 64 -17 134 16 35 17 67 30 70 30 4 0 7 -51 7 -112
0 -97 3 -120 24 -165 21 -48 96 -131 107 -120 3 3 -1 43 -7 90 -24 165 26 336
118 401 42 29 44 29 77 14 60 -29 136 -109 136 -143 0 -17 -57 -25 -107 -14
-53 10 -85 6 -47 -7 10 -4 54 -22 97 -41 42 -19 96 -35 119 -36 42 -2 42 -2
59 48 10 28 24 81 33 120 19 79 29 94 53 79 26 -16 31 -54 20 -148 -13 -100
-2 -128 30 -80 15 24 18 49 18 154 0 101 3 125 14 125 8 0 23 -17 34 -39 16
-30 21 -66 26 -172 5 -108 10 -137 24 -151 16 -16 17 -10 17 124 0 78 5 154
11 170 l11 28 19 -50 c30 -78 42 -166 30 -211 -6 -21 -8 -40 -6 -43 8 -7 55
41 71 71 31 59 4 139 -94 285 -34 51 -62 95 -62 98 0 16 43 0 83 -31 49 -38
67 -38 67 1 0 40 -19 77 -68 130 -26 28 -52 59 -57 69 -10 18 -13 18 -78 2
-37 -9 -77 -14 -88 -11 -20 7 -21 12 -14 119 6 92 4 118 -9 151 -24 57 -45 78
-63 63 -11 -9 -13 -25 -8 -65 3 -29 4 -53 1 -53 -11 0 -156 121 -171 143 -21
30 -11 33 28 8 55 -34 107 -26 107 16 0 25 -16 43 -89 102 -42 33 -43 33 -79
18 -20 -9 -64 -23 -96 -31 -32 -8 -82 -29 -110 -46 l-51 -31 52 48 c59 55 71
88 54 144 -19 62 -74 108 -186 157 -58 25 -140 72 -197 113 -53 39 -112 74
-130 80 -95 27 -366 -7 -493 -61 -33 -14 -47 -30 -73 -77 -17 -33 -60 -93 -94
-134 -161 -193 -258 -356 -279 -474 -21 -112 7 -479 51 -677 35 -155 75 -227
240 -433 122 -153 159 -206 186 -275 16 -38 30 -56 46 -61 79 -21 124 -69 115
-122 -5 -32 -3 -33 162 -147 296 -204 449 -340 543 -485 229 -352 308 -531
308 -699 0 -59 -6 -74 -52 -138 -10 -14 -8 -21 15 -42 37 -34 35 -66 -10 -184
-20 -53 -39 -123 -42 -154 -6 -55 -9 -60 -113 -177 -182 -203 -285 -260 -488
-268 l-115 -5 -77 51 c-197 129 -363 336 -561 703 -42 77 -56 94 -130 149
-377 288 -434 327 -594 408 -86 44 -104 57 -131 100 -18 28 -78 88 -137 137
-118 99 -165 157 -172 215 -5 38 -5 39 23 39 51 -1 113 -37 187 -111 76 -75
114 -105 123 -96 12 11 -50 110 -125 201 -98 117 -125 163 -145 241 -18 67
-21 155 -6 155 28 0 80 -32 109 -66 33 -40 64 -125 76 -207 10 -65 25 -59 27
11 6 172 -15 289 -66 376 -30 51 -95 104 -138 113 -15 3 -32 11 -38 18 -15 17
-38 140 -48 243 l-7 83 -53 18 c-117 40 -142 92 -151 320 -4 91 -12 175 -19
187 -10 18 -6 25 32 57 41 34 74 91 58 101 -4 2 -29 -2 -57 -10 -71 -19 -92
-17 -110 9 -16 21 -14 24 48 82 84 79 115 122 137 192 l18 58 27 -58 c25 -55
35 -132 20 -157 -13 -22 13 -9 41 21 25 27 29 38 28 87 0 67 -20 109 -94 206
-27 36 -50 68 -50 71 0 2 18 8 40 11 22 4 45 13 51 20 9 12 3 14 -35 14 -47 0
-108 19 -120 38 -3 6 -8 62 -9 124 -4 129 -20 174 -83 226 -69 57 -90 118 -65
185 9 23 7 26 -34 36 -52 13 -72 38 -83 102 -7 43 -9 44 -57 57 -80 20 -222
25 -335 13 -58 -7 -129 -15 -157 -18 l-53 -6 0 31 c0 27 -6 35 -40 52 -30 16
-40 26 -40 45 0 53 -78 9 -132 -75 -15 -24 -17 -24 -49 -11 -182 74 -330 87
-570 51 l-75 -12 0 -67 c1 -64 0 -68 -46 -126 -68 -87 -74 -107 -46 -164 18
-36 23 -63 23 -123 0 -42 -3 -80 -7 -83 -4 -4 -22 -1 -40 8 -18 8 -54 18 -80
21 l-47 7 -16 57 c-65 230 -94 291 -156 330 -63 38 -83 38 -137 -2 -86 -63
-127 -147 -120 -245 16 -225 319 -423 563 -369 64 15 70 15 82 0 18 -25 17
-29 -38 -184 -57 -159 -122 -296 -144 -304 -8 -4 -29 6 -46 20 -32 28 -59 34
-59 14 0 -24 104 -109 178 -145 69 -34 82 -38 161 -38 82 0 85 1 91 25 9 40
81 73 158 74 37 1 67 -4 69 -9 2 -6 -18 -21 -44 -34 -204 -98 -432 -287 -542
-450 -81 -119 -151 -303 -151 -398 0 -30 -3 -33 -30 -33 -58 0 -236 31 -325
56 -123 35 -198 68 -280 123 l-70 46 59 3 c50 3 69 -2 124 -29 40 -20 70 -42
81 -60 9 -16 22 -29 30 -29 7 0 50 17 95 38 84 40 138 90 151 139 12 49 -87
168 -172 208 -46 22 -144 17 -172 -9 -10 -9 -22 -33 -26 -52 -3 -19 -12 -37
-19 -40 -20 -8 -279 23 -309 37 -15 7 -27 18 -27 25 0 76 63 594 135 1104 71
502 100 736 125 1005 11 121 33 324 50 450 16 127 36 318 45 425 25 295 44
418 92 580 20 68 24 97 19 146 -9 90 10 362 44 631 77 598 74 560 74 878 1
241 -2 321 -17 409 -9 61 -19 112 -21 114 -2 2 -29 -28 -61 -67z m10 -328 c25
-38 35 -72 12 -42 -7 8 -20 18 -29 22 -11 4 -18 17 -18 32 0 33 5 32 35 -12z
m-171 -418 c-80 -605 -78 -594 -148 -1107 -62 -446 -146 -1047 -236 -1676 -22
-152 -58 -425 -80 -607 -59 -478 -92 -683 -146 -915 -58 -244 -163 -550 -190
-550 -16 0 -32 55 -27 95 22 172 72 511 108 730 43 260 57 341 111 635 118
650 195 1151 254 1647 47 398 70 544 111 712 34 136 68 240 106 315 23 45 25
57 19 125 -15 164 21 436 99 751 59 238 66 263 70 258 2 -2 -21 -188 -51 -413z
m170 304 c15 -18 26 -43 26 -60 l0 -30 -31 21 c-29 22 -49 56 -49 86 0 24 27
16 54 -17z m-41 -107 c26 -29 67 -116 59 -124 -21 -21 -92 73 -92 122 0 25 12
26 33 2z m19 -154 c21 -30 36 -98 21 -98 -15 0 -81 73 -92 103 -20 51 -15 61
20 40 17 -10 40 -30 51 -45z m-51 -111 c39 -26 59 -60 59 -99 0 -39 -11 -35
-52 20 -74 98 -76 126 -7 79z m-16 -130 c37 -38 71 -97 55 -97 -22 0 -88 71
-92 100 -3 17 -2 30 0 30 3 0 20 -15 37 -33z m-21 -108 c36 -28 56 -70 56
-116 l0 -38 -24 25 c-26 26 -80 150 -67 150 5 0 20 -9 35 -21z m-26 -125 c12
-8 27 -25 33 -37 18 -32 28 -87 17 -87 -21 0 -77 53 -87 82 -21 59 -8 74 37
42z m-4 -138 c37 -28 66 -77 66 -111 0 -22 -14 -19 -50 11 -32 27 -57 68 -71
116 -9 32 -5 31 55 -16z m-23 -118 c38 -39 59 -85 59 -130 l-1 -33 -53 57
c-52 54 -66 84 -58 121 5 24 16 21 53 -15z m-21 -140 c39 -42 84 -117 76 -125
-19 -19 -91 69 -111 135 -9 30 0 28 35 -10z m37 -177 c26 -39 31 -81 8 -81
-20 0 -55 36 -55 58 0 9 -3 28 -7 41 -9 35 26 24 54 -18z m-6 -123 c19 -35 28
-77 19 -83 -16 -10 -67 23 -88 57 -11 18 -24 51 -28 72 l-7 39 46 -32 c26 -17
52 -41 58 -53z m-59 -94 c37 -19 58 -52 58 -92 l0 -33 -43 30 c-46 31 -69 60
-82 99 -6 22 -5 23 17 17 12 -4 35 -14 50 -21z m-22 -115 c44 -36 74 -90 65
-119 -9 -27 -16 -25 -53 13 -31 32 -62 93 -62 122 0 21 6 19 50 -16z m-21
-139 c43 -21 71 -69 71 -121 l0 -33 -31 30 c-52 48 -107 144 -84 144 3 0 23
-9 44 -20z m-4 -146 c31 -23 55 -68 55 -101 0 -39 -78 47 -95 105 -8 28 -1 28
40 -4z m-16 -118 c17 -13 62 -108 56 -115 -11 -11 -115 108 -115 131 0 11 39
1 59 -16z m-11 -122 c28 -19 38 -39 47 -91 9 -56 -5 -56 -61 1 -33 33 -44 51
-44 75 0 36 21 41 58 15z m-9 -170 c36 -32 51 -53 49 -67 -5 -33 -22 -30 -67
10 -26 24 -44 50 -47 71 -9 44 4 41 65 -14z m-8 -131 c27 -29 56 -100 45 -111
-20 -19 -111 90 -123 147 l-6 35 29 -21 c16 -12 41 -34 55 -50z m-36 -105 c27
-21 55 -73 55 -103 0 -32 -32 -13 -65 39 -19 30 -39 57 -45 61 -5 3 -10 10
-10 16 0 16 37 10 65 -13z m-3 -130 c24 -19 42 -44 49 -69 14 -46 8 -56 -29
-43 -28 9 -64 68 -78 128 -8 33 -4 32 58 -16z m-7 -148 c21 -22 29 -42 33 -82
l4 -53 -41 40 c-38 37 -81 106 -81 133 0 18 54 -5 85 -38z m19 -185 c20 -42
20 -45 -2 -45 -24 0 -67 46 -86 92 -9 21 -16 40 -16 43 0 17 91 -62 104 -90z
m-55 -66 c27 -25 51 -78 51 -111 0 -20 -5 -17 -45 22 -43 42 -85 111 -85 139
0 13 36 -9 79 -50z m-12 -155 c12 -17 26 -51 29 -75 l7 -43 -31 22 c-32 23
-92 130 -92 164 0 18 3 17 33 -8 17 -15 42 -42 54 -60z m3 -146 c28 -26 29
-28 11 -38 -26 -13 -68 20 -92 74 -29 63 -22 76 17 31 19 -22 48 -52 64 -67z
m-47 -61 c34 -32 65 -107 52 -127 -3 -5 -26 12 -52 37 -44 45 -73 96 -73 128
0 20 25 7 73 -38z m1712 -73 c72 -9 131 -17 132 -18 7 -6 -27 -81 -36 -80 -29
3 -32 5 -26 24 8 27 -7 25 -32 -2 -32 -37 -34 -45 -19 -81 21 -52 82 -114 166
-170 41 -27 89 -63 106 -78 l30 -29 23 24 c20 22 23 32 17 71 -3 25 -9 65 -12
90 -9 62 11 58 26 -5 10 -42 15 -49 26 -39 23 19 16 74 -22 165 -19 47 -34 98
-32 112 l3 27 27 -27 c17 -17 35 -53 49 -102 14 -49 27 -76 36 -76 12 0 14 12
11 56 l-3 56 42 3 c55 4 122 -38 163 -102 42 -65 38 -88 -6 -38 -85 97 -89
100 -92 81 -2 -10 21 -50 53 -91 56 -74 62 -95 24 -95 -15 0 -27 16 -48 60
-15 34 -30 58 -33 55 -3 -3 3 -33 13 -66 25 -79 24 -104 -3 -123 -34 -24 -58
-20 -58 9 0 29 -20 75 -33 75 -5 0 -7 -16 -3 -37 3 -21 9 -66 12 -100 l7 -61
36 16 c20 9 77 46 126 83 123 91 127 93 203 86 100 -10 100 -24 0 -37 -35 -4
-74 -13 -88 -18 -22 -9 -23 -11 -7 -17 10 -4 23 -3 30 4 15 15 47 14 47 -2 0
-7 -19 -19 -42 -27 -27 -9 -47 -24 -53 -38 -8 -19 -15 -22 -37 -18 -16 3 -41
3 -58 0 -35 -8 -38 -26 -13 -79 13 -28 14 -38 4 -48 -10 -9 -17 -6 -36 16
l-24 28 -7 -26 c-3 -14 -10 -25 -14 -25 -10 0 -20 26 -20 51 0 10 -5 19 -10
19 -20 0 -23 -32 -6 -66 19 -42 21 -87 4 -82 -25 8 -56 69 -63 121 -12 102
-26 158 -38 154 -12 -4 -13 -11 -1 -88 4 -29 2 -49 -4 -53 -6 -4 3 -28 24 -64
32 -53 64 -137 64 -169 0 -24 -60 26 -75 61 -12 28 -14 29 -21 12 -5 -14 1
-35 19 -68 15 -26 27 -51 27 -54 0 -4 -18 -4 -40 -1 l-39 5 29 -59 c33 -65 38
-113 14 -147 -15 -22 -17 -22 -39 -8 -26 17 -39 9 -24 -14 16 -26 10 -50 -11
-50 -19 0 -20 7 -20 105 0 102 1 105 20 95 11 -6 23 -22 26 -36 7 -26 27 -28
32 -3 3 19 -42 69 -62 69 -23 0 -45 -41 -59 -109 -7 -34 -17 -62 -22 -62 -17
0 -17 41 -1 82 16 40 21 89 9 89 -13 0 -43 -33 -43 -49 0 -11 -3 -12 -11 -4
-16 16 -16 166 0 221 15 55 35 56 26 2 -5 -30 -3 -40 7 -40 38 1 58 46 58 133
l-1 62 -21 -40 c-26 -48 -34 -33 -19 35 6 28 11 65 10 83 l0 32 -14 -30 c-7
-16 -26 -68 -40 -115 -31 -97 -42 -120 -56 -120 -22 0 -20 34 5 81 19 35 26
60 24 86 -3 30 -5 34 -11 18 -28 -73 -63 -103 -49 -43 12 55 8 118 -8 128 -24
15 -33 -6 -16 -38 26 -51 15 -102 -14 -67 -20 24 -29 18 -32 -20 -5 -60 -23
-39 -28 32 -5 68 -5 68 -22 43 -22 -30 -23 -77 -3 -150 15 -57 20 -137 9 -165
-5 -13 -12 -7 -31 24 -27 45 -49 51 -97 26 -15 -8 -30 -15 -32 -15 -15 0 3 52
47 137 45 88 50 103 46 148 -2 28 -6 57 -8 65 -3 10 6 16 28 20 l33 5 -37 53
-37 52 -12 -27 -12 -28 -12 33 c-7 17 -18 32 -26 32 -18 0 -17 -20 1 -44 16
-22 20 -56 6 -56 -19 0 -64 53 -86 103 -17 39 -25 48 -30 35 -4 -10 4 -34 20
-62 15 -25 24 -50 20 -56 -12 -19 -33 9 -56 71 -12 33 -26 59 -31 59 -17 0
-19 -29 -4 -59 9 -16 16 -39 16 -51 0 -41 -38 -3 -55 55 -8 30 -20 55 -25 55
-15 0 -11 -31 10 -75 33 -68 24 -96 -18 -52 -31 33 -42 71 -42 142 l0 64 35
-20 c42 -25 58 -20 84 22 18 30 20 30 30 11 6 -11 11 -28 11 -36 0 -19 2 -19
35 -4 24 11 28 9 50 -18 21 -26 24 -27 31 -11 3 10 1 28 -5 40 -7 12 -20 37
-30 56 -14 26 -19 30 -24 17 -11 -27 -25 -18 -39 26 -8 23 -20 44 -27 46 -6 2
-27 -12 -44 -31 l-33 -34 -37 29 c-34 28 -46 55 -30 71 12 13 248 7 378 -9z
m-1752 -46 c41 -41 67 -99 67 -147 0 -27 -7 -27 -31 2 -48 56 -110 187 -88
187 5 0 29 -19 52 -42z m2081 0 c18 -25 21 -68 6 -68 -11 0 -40 53 -40 75 0
22 16 19 34 -7z m-104 -40 c0 -12 -25 -9 -37 3 -8 8 -16 2 -29 -22 -19 -38
-31 -49 -56 -49 -29 0 -21 21 25 65 41 40 43 40 69 25 16 -8 28 -18 28 -22z
m626 -4 c-4 -11 11 -35 44 -71 27 -30 50 -58 50 -63 0 -24 -25 -19 -57 11
l-36 34 7 -27 c5 -21 3 -28 -8 -28 -18 0 -23 13 -31 93 -7 65 -7 67 15 67 16
0 20 -4 16 -16z m-162 -25 c38 -44 31 -61 -7 -18 -18 20 -41 39 -52 42 -16 4
-14 5 7 6 18 1 34 -9 52 -30z m277 -25 c9 -16 20 -42 23 -59 l6 -30 -35 37
c-21 23 -35 48 -35 64 0 33 19 27 41 -12z m-1977 -16 c16 -25 28 -74 46 -186
16 -100 44 -131 148 -167 42 -15 96 -34 120 -42 44 -15 107 -62 85 -63 -27 0
-154 31 -204 50 -105 42 -174 117 -185 202 -4 29 -11 47 -18 45 -21 -7 -17
-60 9 -119 29 -65 27 -82 -6 -52 -28 25 -56 87 -64 145 -10 66 22 209 46 209
5 0 15 -10 23 -22z m1296 -3 c15 -18 6 -45 -15 -45 -20 0 -57 38 -50 50 9 15
51 12 65 -5z m-2081 -10 c55 -28 108 -115 99 -162 -5 -25 -82 56 -114 119 -33
66 -32 68 15 43z m889 -95 c-2 -19 -7 -35 -13 -35 -12 0 -19 80 -10 104 10 24
27 -25 23 -69z m1985 -8 c12 -13 17 -32 15 -53 l-3 -32 -32 27 c-26 22 -33 36
-33 62 0 30 2 33 18 25 9 -5 25 -18 35 -29z m2296 19 c35 -3 66 -11 68 -18 2
-6 -10 -25 -26 -42 -29 -30 -31 -30 -41 -11 -14 26 -26 25 -62 -5 -16 -14 -36
-25 -44 -25 -18 0 -18 41 1 66 8 10 15 27 15 37 0 12 4 15 12 11 7 -4 41 -10
77 -13z m-4215 -49 c-4 -15 -10 -45 -13 -67 -7 -49 -38 -58 -33 -10 12 122 13
125 34 114 16 -8 18 -16 12 -37z m4076 21 c-1 -16 -7 -39 -15 -53 -8 -14 -14
-37 -15 -52 0 -16 -6 -28 -13 -28 -22 0 -37 22 -37 54 0 44 -20 19 -24 -30 -5
-48 -25 -51 -46 -7 -22 47 -35 35 -35 -33 0 -52 -2 -59 -20 -59 -13 0 -26 13
-38 38 -10 20 -22 37 -27 37 -17 0 -19 -36 -6 -75 9 -27 11 -46 5 -57 -14 -27
-27 -22 -50 17 -22 36 -46 49 -34 18 20 -52 28 -114 17 -125 -9 -9 -21 -3 -50
25 -21 20 -41 37 -45 37 -4 0 4 -22 19 -49 14 -28 24 -62 22 -77 l-3 -27 -31
26 c-60 51 -73 23 -24 -48 50 -73 38 -95 -28 -50 l-37 25 -4 -22 c-2 -16 8
-32 35 -56 30 -26 35 -35 25 -45 -10 -9 -22 -6 -62 15 -27 16 -49 25 -49 21 0
-3 23 -30 50 -59 52 -54 65 -94 32 -94 -10 0 -29 11 -42 25 -29 31 -42 32 -38
3 3 -21 29 -43 97 -80 21 -11 29 -22 25 -32 -8 -20 -42 -20 -83 0 -18 9 -35
13 -38 10 -8 -8 37 -56 51 -56 21 0 65 -45 72 -72 7 -33 -5 -36 -60 -13 -33
14 -37 14 -43 -1 -8 -22 22 -44 59 -44 32 0 49 -27 27 -41 -8 -5 -29 -9 -47
-9 -45 0 -33 -16 34 -46 57 -25 65 -37 36 -53 -12 -6 -28 -5 -51 5 -26 11 -37
12 -48 2 -13 -10 -12 -14 3 -25 10 -7 32 -13 49 -13 39 0 75 -25 75 -52 0 -17
-4 -19 -27 -13 -46 11 -48 11 -48 -10 0 -16 10 -22 55 -31 63 -12 76 -37 23
-42 -18 -2 -33 -7 -33 -12 0 -13 54 -40 80 -40 11 0 20 -4 20 -10 0 -16 -37
-30 -79 -30 -44 0 -59 -13 -40 -36 10 -12 25 -14 76 -8 54 5 63 4 63 -10 0 -9
-14 -25 -32 -36 l-32 -19 25 -9 c13 -5 45 -12 72 -16 54 -8 68 -36 18 -36 -69
0 -28 -43 52 -55 66 -10 69 -25 5 -25 -60 0 -81 -10 -73 -32 9 -23 39 -28 127
-21 55 4 78 3 78 -5 0 -17 -40 -40 -84 -48 l-39 -7 26 -14 c15 -7 48 -16 74
-19 26 -3 54 -8 62 -10 24 -7 -8 -34 -49 -40 -44 -7 -67 -20 -56 -31 4 -4 56
-8 114 -8 l107 0 0 -25 c0 -23 -4 -25 -58 -31 -64 -7 -79 -15 -57 -30 9 -6 49
-8 98 -4 86 5 122 -3 122 -30 0 -12 -15 -15 -66 -15 -90 0 -82 -23 11 -32 76
-7 98 -20 66 -38 -37 -19 -13 -30 67 -30 42 -1 90 -7 107 -14 l30 -12 -25 -16
c-14 -9 -46 -19 -72 -22 -26 -4 -50 -11 -53 -17 -13 -20 50 -30 147 -23 85 6
98 4 104 -10 13 -33 -16 -48 -83 -44 -41 3 -62 0 -60 -7 5 -14 50 -22 138 -24
78 -1 119 -17 104 -41 -6 -9 -25 -11 -71 -7 -49 5 -65 3 -75 -10 -11 -13 -10
-18 6 -30 16 -12 39 -14 118 -8 55 3 97 2 97 -3 0 -22 -43 -45 -97 -51 -53 -6
-56 -8 -35 -19 14 -8 53 -12 109 -10 104 4 128 -16 31 -26 -121 -12 -90 -43
58 -57 52 -5 103 -13 112 -18 15 -8 13 -11 -13 -21 -16 -6 -40 -9 -52 -7 -13
2 -23 1 -23 -3 0 -17 39 -40 78 -46 64 -10 47 -29 -24 -27 -53 2 -57 0 -40
-12 10 -8 44 -20 75 -26 69 -15 114 -36 108 -52 -6 -20 -37 -20 -78 -1 -45 20
-62 12 -33 -16 11 -12 40 -22 69 -26 61 -8 95 -28 95 -55 0 -16 -3 -18 -19 -9
-11 5 -39 10 -62 10 -57 0 -39 -20 44 -50 73 -26 87 -36 87 -61 0 -23 -19 -24
-46 -4 -10 8 -27 15 -37 15 -29 0 1 -36 56 -66 51 -27 67 -48 49 -66 -7 -7
-19 -4 -40 11 -17 11 -36 21 -44 21 -12 -1 24 -36 74 -72 18 -13 20 -19 11
-29 -10 -10 -19 -9 -47 6 -57 31 -55 7 4 -45 43 -38 52 -51 43 -61 -10 -10
-21 -6 -52 15 -44 31 -79 33 -57 4 6 -9 34 -29 61 -45 58 -34 65 -57 18 -61
-18 -2 -33 -7 -33 -12 0 -5 27 -30 60 -55 68 -52 98 -91 83 -106 -6 -6 -26 3
-56 26 -25 19 -51 35 -57 35 -22 0 19 -56 80 -109 44 -38 60 -59 58 -74 -5
-32 -25 -31 -43 2 -17 33 -51 42 -62 16 -3 -11 15 -35 56 -73 57 -54 77 -92
48 -92 -7 0 -33 20 -57 45 -41 42 -70 57 -70 36 0 -4 23 -38 51 -74 36 -47 52
-78 56 -108 6 -40 5 -41 -15 -30 -12 6 -38 36 -57 66 -19 30 -39 55 -45 55
-15 0 -13 -4 26 -81 40 -81 57 -169 31 -169 -9 0 -20 15 -27 35 -12 36 -40 48
-40 18 0 -10 7 -43 15 -73 8 -30 15 -75 15 -99 0 -36 -2 -41 -14 -32 -7 6 -23
38 -35 71 -32 87 -46 89 -36 4 14 -117 12 -179 -5 -179 -11 0 -16 13 -18 45
-3 61 -10 90 -22 90 -6 0 -10 -45 -10 -110 0 -85 -3 -110 -13 -110 -19 0 -37
43 -37 88 -1 35 -1 36 -16 17 -12 -16 -13 -37 -8 -101 5 -66 4 -82 -8 -87 -29
-11 -42 8 -29 44 9 27 9 36 -4 48 -25 25 -35 -2 -35 -97 0 -86 -10 -122 -35
-122 -21 0 -28 35 -21 109 6 59 5 64 -8 48 -8 -10 -19 -48 -25 -85 -14 -83
-29 -122 -48 -122 -24 0 -26 29 -8 84 18 54 15 91 -7 84 -7 -3 -23 -44 -35
-91 -26 -101 -38 -127 -60 -127 -16 0 -16 6 8 87 7 23 10 45 6 49 -14 14 -37
-20 -53 -77 -15 -55 -38 -89 -50 -77 -3 3 4 32 15 64 11 32 18 60 16 62 -1 2
-33 -36 -71 -83 -60 -76 -69 -84 -83 -71 -13 13 -11 20 15 57 82 117 72 126
-27 23 -83 -85 -106 -101 -122 -85 -7 7 1 20 26 42 37 32 48 59 25 59 -6 0
-34 -17 -62 -38 -59 -45 -108 -72 -131 -72 -29 0 -15 16 65 69 79 54 101 79
58 65 -13 -3 -68 -28 -122 -55 -94 -46 -146 -61 -146 -40 0 16 41 40 106 61
67 23 115 60 77 60 -12 0 -62 -16 -113 -35 -102 -40 -184 -58 -214 -49 -18 6
-18 7 5 20 13 7 67 27 119 45 104 34 123 45 95 55 -11 5 -49 -3 -94 -19 -84
-30 -147 -34 -176 -13 -18 13 -14 15 40 21 79 9 97 14 89 27 -5 7 -40 9 -105
5 -64 -4 -101 -2 -105 4 -14 24 27 37 122 38 36 1 58 7 75 22 31 27 77 20 184
-28 93 -43 167 -52 272 -33 339 59 604 372 679 804 22 125 14 349 -16 461 -42
158 -106 283 -218 428 -164 212 -209 276 -236 333 -29 61 -30 62 -59 52 -27
-10 -33 -7 -90 49 -34 33 -96 88 -137 122 -83 69 -172 168 -191 212 -10 25
-17 29 -53 30 -38 0 -45 5 -86 56 -25 31 -87 109 -138 172 -298 369 -413 639
-413 969 0 191 38 356 118 517 119 239 319 392 516 394 45 1 47 0 47 -26z
m-5026 -24 c40 -47 63 -93 72 -141 l7 -33 -48 45 c-49 46 -84 108 -85 148 0
32 14 27 54 -19z m1393 -26 c12 -49 7 -60 -19 -36 -12 11 -18 30 -18 62 0 39
2 43 14 31 7 -8 18 -34 23 -57z m3883 3 c-20 -40 -46 -64 -57 -52 -10 9 32 89
51 96 31 11 32 5 6 -44z m85 -25 c-7 -29 -23 -51 -37 -51 -17 0 -19 28 -4 65
14 32 18 36 32 24 10 -8 13 -21 9 -38z m-4357 -97 c-9 -8 -58 -11 -63 -3 -4 5
2 22 11 39 l18 29 18 -31 c11 -16 18 -32 16 -34z m336 44 c10 -16 -6 -48 -24
-48 -12 0 -21 31 -14 52 6 22 23 20 38 -4z m-1294 -142 c7 -26 10 -49 7 -52
-7 -7 -75 68 -104 115 -13 20 -23 50 -23 66 l1 30 53 -56 c36 -39 57 -71 66
-103z m5518 142 c21 -21 14 -66 -14 -85 -14 -10 -41 -30 -59 -45 -36 -31 -45
-34 -45 -17 0 7 17 26 37 44 28 24 35 36 29 51 -7 18 -8 18 -26 -4 -21 -26
-40 -22 -40 9 0 46 85 80 118 47z m-3880 -58 c38 -35 40 -54 8 -100 -13 -20
-26 -44 -28 -55 -4 -20 -4 -20 -15 0 -8 15 -8 35 0 74 11 50 10 54 -12 72 -22
18 -21 39 2 39 7 0 27 -14 45 -30z m1060 18 c-3 -7 -18 -15 -34 -18 -31 -6
-25 -13 19 -24 47 -11 29 -26 -33 -26 -33 0 -60 -4 -60 -10 0 -5 9 -10 19 -10
27 0 34 -15 15 -30 -12 -11 -21 -10 -50 3 -49 24 -64 22 -64 -8 0 -23 -2 -24
-20 -15 -56 30 4 91 130 131 66 22 83 23 78 7z m-1186 -38 c27 -21 40 -51 29
-68 -7 -12 -156 19 -173 36 -7 7 -3 17 11 31 28 28 98 29 133 1z m1362 -34
c16 -21 22 -37 16 -41 -13 -8 -72 53 -64 66 9 16 21 10 48 -25z m2696 -3 c-1
-13 -48 -63 -60 -63 -16 0 -12 31 7 52 16 18 53 25 53 11z m-5661 -49 c54 -58
110 -174 84 -174 -16 0 -75 54 -89 82 -25 48 -54 138 -45 138 5 0 27 -20 50
-46z m1321 -19 c0 -20 -5 -25 -25 -25 -20 0 -25 5 -25 25 0 20 5 25 25 25 20
0 25 -5 25 -25z m4420 6 c-8 -17 -93 -81 -106 -81 -2 0 -4 9 -4 21 0 32 53 79
90 79 27 0 30 -2 20 -19z m-4220 -47 c0 -27 -12 -31 -30 -9 -10 12 -10 18 0
30 16 19 30 10 30 -21z m-1484 -130 c21 -36 45 -134 32 -134 -15 0 -128 189
-143 240 -6 22 -1 19 40 -20 25 -25 57 -63 71 -86z m2985 55 c10 -10 19 -30
19 -44 0 -21 -5 -25 -27 -25 -16 0 -33 4 -39 8 -19 12 -34 49 -34 82 l0 31 31
-16 c16 -9 39 -25 50 -36z m-301 -112 c12 -90 13 -187 2 -187 -5 0 -19 14 -31
31 -16 22 -29 29 -43 26 -15 -4 -18 -2 -13 11 4 9 11 64 15 122 4 58 11 113
15 124 13 30 44 -41 55 -127z m218 -124 c20 -38 85 -105 113 -115 11 -5 12 -8
1 -19 -30 -32 -131 58 -190 169 -18 33 -32 67 -32 77 0 9 10 48 23 86 l22 70
21 -114 c12 -63 31 -132 42 -154z m-1478 232 c11 -13 11 -20 0 -40 -17 -32
-30 -23 -30 21 0 37 10 43 30 19z m505 -21 c14 -15 30 -45 36 -68 5 -23 13
-49 16 -60 9 -31 -20 -13 -39 25 l-17 34 -2 -85 c-1 -62 -3 -75 -8 -50 -4 19
-17 54 -30 76 -19 33 -21 45 -12 62 6 11 11 37 11 56 0 43 12 45 45 10z m3756
-37 c-6 -14 -27 -41 -48 -59 -20 -18 -61 -55 -90 -82 -47 -44 -53 -47 -53 -26
0 37 37 86 113 149 73 60 96 66 78 18z m174 9 c90 -41 150 -109 176 -201 l9
-30 -25 31 c-13 17 -63 57 -112 88 -84 55 -125 94 -139 131 -8 21 11 16 91
-19z m-4328 14 l30 -11 -20 -60 c-11 -34 -24 -58 -31 -56 -10 3 -23 137 -13
137 2 0 17 -5 34 -10z m967 -39 c3 -4 24 -11 46 -15 38 -6 40 -8 29 -28 -14
-26 -14 -127 0 -188 5 -24 8 -46 7 -48 -2 -1 -18 9 -35 24 -26 21 -34 24 -46
14 -31 -26 -11 -82 50 -140 20 -19 43 -47 51 -62 15 -29 19 -88 6 -88 -5 0
-33 39 -63 86 -30 47 -78 121 -106 165 -44 67 -49 79 -33 79 21 0 35 20 43 65
3 17 11 56 17 88 11 53 22 69 34 48z m-2506 -130 c17 -31 33 -76 36 -101 l7
-45 -36 40 c-38 43 -100 160 -111 210 l-7 30 41 -39 c22 -21 54 -64 70 -95z
m5845 60 c40 -27 84 -62 99 -77 32 -35 58 -93 58 -131 -1 -28 -1 -27 -38 17
-48 58 -101 110 -113 110 -22 0 -6 -34 40 -84 54 -60 77 -118 62 -157 -8 -22
-11 -20 -34 31 -24 53 -52 88 -62 78 -3 -2 11 -42 31 -89 40 -93 84 -248 84
-293 0 -29 0 -29 -21 -10 -33 30 -55 81 -79 187 -14 62 -26 97 -35 97 -22 0
-25 -28 -8 -80 9 -28 13 -54 9 -58 -11 -11 -35 26 -42 66 l-7 35 -13 -32 c-21
-49 -34 -28 -34 52 0 68 -1 70 -17 54 -15 -15 -18 -38 -19 -141 -1 -172 -23
-196 -43 -50 -9 63 -3 169 15 239 5 19 2 25 -10 25 -9 0 -20 -10 -25 -22 -6
-17 -9 -19 -16 -7 -17 26 -8 112 15 161 21 46 99 128 120 128 6 0 43 -22 83
-49z m-2810 12 c49 -18 58 -29 31 -40 -18 -7 -90 13 -99 27 -7 11 2 30 13 30
4 0 28 -8 55 -17z m-1612 -53 c64 -67 108 -90 169 -90 34 0 41 -3 38 -17 -3
-12 -12 -17 -27 -15 -35 3 -49 -14 -56 -66 -9 -66 -15 -83 -26 -77 -5 4 -9 35
-9 71 0 51 -4 68 -20 84 -36 36 -70 19 -70 -34 l-1 -31 -24 30 -25 30 0 -30
c-1 -29 -1 -29 -15 -11 -8 11 -15 28 -15 38 0 12 -7 17 -22 15 -18 -1 -24 4
-26 24 -4 32 42 139 59 139 7 0 38 -27 70 -60z m943 -127 c7 -71 12 -130 10
-132 -2 -2 -13 16 -24 41 -24 55 -35 141 -25 204 11 73 24 36 39 -113z m-545
55 c-34 -87 -35 -98 -9 -98 19 0 24 10 32 65 2 12 11 20 23 20 11 0 19 -4 18
-10 -4 -16 -46 -140 -50 -144 -2 -3 -11 6 -20 18 -12 18 -17 20 -24 10 -14
-21 -29 8 -29 54 0 20 -4 37 -10 37 -5 0 -10 -13 -10 -29 0 -42 -13 -45 -36
-8 l-19 32 -6 -35 -6 -35 -11 28 c-7 16 -12 39 -12 53 0 22 4 24 43 24 37 0
51 7 96 45 29 25 54 45 56 45 1 0 -10 -33 -26 -72z m1213 36 c36 -19 64 -57
73 -100 3 -20 4 -38 2 -40 -2 -2 -36 27 -75 64 -96 92 -96 124 0 76z m2423
-49 c2 -22 1 -85 -3 -140 l-7 -99 -18 28 c-28 42 -33 93 -13 115 13 14 14 21
5 27 -7 4 -19 -1 -29 -14 -13 -15 -20 -18 -29 -9 -19 19 -13 40 31 99 46 62
54 61 63 -7z m135 20 c0 -55 -39 -137 -75 -161 -14 -9 -28 -15 -30 -12 -14 14
76 218 96 218 5 0 9 -20 9 -45z m-5664 -9 c23 -25 51 -68 62 -98 23 -62 38
-148 26 -148 -14 0 -59 78 -99 173 -21 48 -41 90 -46 93 -5 3 -9 9 -9 15 0 20
26 7 66 -35z m2846 12 c14 -21 48 -124 48 -144 0 -13 -51 40 -66 68 -15 30
-19 98 -5 98 5 0 15 -10 23 -22z m-75 -128 c96 -118 98 -124 14 -50 -40 36
-77 75 -82 88 -9 23 -13 59 -5 51 2 -2 35 -42 73 -89z m-1217 30 c12 -8 11
-15 -8 -55 -12 -25 -22 -52 -22 -60 0 -8 -5 -15 -10 -15 -20 0 -23 32 -6 66 9
19 16 44 16 54 0 22 7 24 30 10z m-1517 -128 c26 -39 47 -100 47 -141 0 -20
-2 -22 -15 -11 -29 24 -57 71 -91 153 -19 45 -34 83 -34 85 0 11 72 -55 93
-86z m2732 -10 c-7 -7 -43 27 -68 63 -16 23 -10 20 26 -14 26 -25 44 -47 42
-49z m-2865 -89 l0 -167 -28 27 c-34 33 -50 34 -63 5 -21 -49 -1 136 21 191
19 50 56 111 66 111 2 0 4 -75 4 -167z m3085 132 c42 -41 27 -145 -20 -145
-19 0 -24 23 -18 83 4 35 2 57 -6 61 -6 4 -11 11 -11 17 0 17 31 9 55 -16z
m2683 -32 c22 -48 27 -72 27 -139 0 -67 -4 -86 -19 -103 -32 -35 -45 -27 -34
21 6 27 5 66 -2 109 -11 73 -14 169 -4 169 3 0 17 -26 32 -57z m700 35 c-7
-20 -68 -23 -68 -4 0 12 10 16 36 16 24 0 34 -4 32 -12z m-3804 -51 c28 -37
60 -119 71 -185 7 -44 6 -46 -20 -36 -23 9 -43 54 -60 136 -9 40 -22 83 -31
95 -25 38 10 29 40 -10z m-1124 -15 c0 -56 -32 -83 -99 -84 -29 0 -54 2 -56 4
-13 13 35 75 74 95 65 34 81 31 81 -15z m912 -24 c11 -37 17 -43 39 -41 22 1
28 -5 37 -34 9 -29 8 -38 -5 -51 -16 -17 -16 -46 6 -227 5 -44 6 -96 2 -115
l-7 -34 -17 24 c-12 17 -17 45 -18 95 0 38 -4 79 -8 90 -7 17 -10 14 -20 -20
-6 -22 -11 -53 -11 -68 0 -41 34 -134 80 -220 30 -55 43 -93 47 -134 l6 -58
-42 39 c-38 38 -70 100 -57 113 3 4 17 -4 31 -17 32 -30 32 -20 -1 30 -29 43
-40 47 -69 27 -24 -18 -15 -55 26 -102 36 -40 27 -45 -22 -12 -19 12 -45 44
-59 72 -23 47 -25 59 -24 193 2 116 -1 141 -11 132 -10 -8 -18 -4 -34 16 -12
15 -21 33 -21 40 0 8 -7 14 -15 14 -19 0 -19 -29 0 -54 19 -24 20 -66 2 -66
-7 0 -28 16 -47 35 -45 46 -53 44 -31 -7 10 -24 40 -110 66 -193 26 -82 65
-187 86 -232 l38 -83 -29 0 c-26 0 -34 9 -71 73 -24 39 -52 83 -65 97 -31 35
-36 72 -25 170 11 96 2 120 -30 81 -37 -46 -14 -193 41 -264 20 -25 20 -25 1
-68 -46 -104 -34 -235 35 -372 44 -88 93 -154 184 -249 110 -114 132 -183 90
-277 -11 -24 -22 -42 -24 -40 -2 2 -7 40 -10 84 -9 112 -23 166 -52 200 l-25
30 4 -35 c2 -19 13 -65 23 -101 14 -51 16 -76 9 -105 -14 -55 -29 -44 -33 23
-2 35 -8 61 -16 65 -8 4 -46 51 -86 103 -40 52 -76 95 -80 95 -18 0 -21 -35
-4 -45 41 -24 67 -53 61 -68 -8 -21 -36 -12 -82 26 -49 40 -75 97 -75 170 0
61 -10 72 -28 32 -19 -41 -14 -73 19 -146 29 -64 31 -70 18 -102 -21 -51 -133
-247 -141 -247 -5 0 -8 15 -8 33 0 21 15 57 43 102 24 39 49 85 55 104 13 38
16 111 5 111 -13 0 -99 -73 -126 -105 -13 -16 -41 -56 -61 -88 -41 -64 -52
-67 -42 -14 8 42 66 134 130 205 30 32 42 52 33 52 -28 0 -77 -51 -149 -154
-39 -55 -80 -111 -91 -123 -19 -21 -19 -24 -3 -47 21 -33 20 -63 -8 -171 l-23
-90 -13 44 c-12 37 -12 57 1 132 11 66 12 88 3 85 -13 -5 -34 13 -34 30 0 6
16 32 35 57 19 25 35 50 35 56 0 13 -29 3 -54 -18 -15 -13 -13 -5 9 39 20 39
59 85 139 160 193 183 261 255 283 298 l21 42 -33 78 c-18 42 -49 121 -70 175
-20 54 -52 120 -71 148 -30 46 -34 58 -34 118 0 36 5 86 11 110 12 52 8 59
-19 31 -29 -32 -34 -76 -18 -167 11 -64 28 -108 81 -211 51 -98 69 -143 73
-183 5 -49 3 -53 -11 -41 -9 8 -25 37 -36 65 -29 77 -43 107 -53 107 -13 0 -8
-61 8 -105 60 -155 65 -219 23 -267 l-20 -23 6 44 c9 66 -5 159 -27 184 -19
22 -19 21 -13 -103 3 -68 3 -121 0 -118 -4 3 -13 32 -22 65 -32 124 -38 143
-45 143 -13 0 -20 -65 -16 -151 2 -46 -1 -86 -6 -89 -5 -3 -17 11 -28 30 -17
30 -19 48 -14 125 2 50 13 118 24 153 29 91 10 83 -55 -25 l-34 -57 22 -78
c21 -73 22 -83 10 -190 -13 -122 -25 -155 -28 -80 -1 26 -10 74 -21 107 l-18
60 -7 -115 c-3 -63 -13 -138 -22 -166 -17 -57 -49 -94 -66 -77 -8 8 -1 29 25
75 20 36 36 77 36 92 0 39 -18 23 -46 -40 -13 -31 -30 -54 -39 -54 -11 0 -12
5 -5 24 5 14 18 107 30 208 22 191 39 283 65 344 20 49 19 62 -7 66 -13 2 -22
8 -22 13 1 6 14 67 28 137 14 70 26 147 26 171 0 47 -17 107 -30 107 -14 0
-21 -44 -29 -197 -8 -125 -13 -161 -31 -198 -24 -50 -21 -75 10 -75 25 0 25
-7 -5 -132 -14 -57 -25 -134 -26 -173 -1 -68 -1 -69 -14 -40 -21 45 -16 152
11 238 3 9 1 17 -5 17 -6 0 -16 -18 -22 -40 -7 -22 -18 -45 -26 -51 -7 -6 -13
-26 -13 -44 0 -48 -11 -95 -21 -89 -5 3 -9 43 -9 90 0 79 2 88 29 122 37 45
52 84 41 102 -12 19 -32 1 -55 -50 -31 -69 -39 -32 -17 81 37 193 39 235 6
208 -8 -6 -14 -29 -14 -53 0 -49 -23 -86 -52 -86 -15 0 -18 4 -12 18 19 44 97
283 119 364 13 50 27 93 31 97 7 7 -3 -406 -11 -459 l-6 -35 17 30 c28 48 42
120 54 264 13 166 32 245 68 290 39 48 60 60 72 41 16 -25 11 -57 -14 -87 -45
-54 -71 -123 -46 -123 6 0 19 14 29 31 l19 31 7 -57 c9 -69 -8 -308 -36 -493
-22 -156 -21 -142 -9 -142 5 0 15 18 21 40 7 22 18 45 26 51 7 7 13 31 13 58
0 26 5 85 11 131 6 47 14 146 18 220 7 159 24 176 31 33 4 -77 10 -105 26
-131 l21 -32 6 162 c8 224 41 368 83 368 12 0 14 -5 9 -17 -18 -41 -28 -93
-21 -100 12 -12 36 27 36 58 0 60 41 45 43 -15 1 -20 4 -36 7 -36 3 0 14 16
24 34 21 39 66 86 66 68 0 -6 -9 -35 -20 -63 -23 -57 -21 -66 8 -50 12 6 23
26 27 48 8 47 31 83 51 83 12 0 15 -6 10 -22 -16 -54 -19 -91 -8 -84 7 4 12
16 12 27 0 29 19 23 34 -12 12 -29 14 -30 24 -13 10 18 11 18 18 1 3 -10 4
-40 1 -67 -5 -39 -2 -54 13 -72 l18 -23 7 59 c4 32 5 83 1 114 -6 54 -6 55 12
39 26 -24 32 -13 32 60 0 35 4 63 9 63 5 0 15 -19 23 -42z m128 -15 c0 -34
-18 -37 -25 -3 -8 35 3 60 16 39 5 -8 9 -24 9 -36z m3783 17 c26 -16 52 -30
58 -30 17 0 4 -25 -15 -28 -19 -4 -126 64 -126 79 0 18 37 8 83 -21z m-102
-25 c24 -19 50 -35 57 -35 30 0 3 -25 -30 -28 -29 -2 -36 1 -41 17 -3 12 -16
25 -30 30 -19 7 -24 15 -20 30 7 28 13 27 64 -14z m-6125 -112 c17 -35 24 -65
22 -90 l-3 -38 -29 48 c-26 44 -66 153 -66 180 0 20 50 -46 76 -100z m6070 30
c8 -18 14 -53 14 -79 0 -41 -2 -45 -16 -33 -8 7 -22 26 -30 42 -17 31 -34 123
-26 132 9 9 44 -29 58 -62z m-3602 -5 c3 -13 6 -36 6 -52 0 -24 2 -26 15 -16
8 6 19 9 25 5 11 -7 14 -162 4 -190 -10 -25 -24 2 -24 47 0 20 -4 40 -10 43
-5 3 -10 1 -10 -6 0 -22 -11 -1 -15 28 -12 93 -14 163 -6 163 5 0 11 -10 15
-22z m475 -44 c15 -11 19 -20 13 -26 -11 -11 -91 20 -92 35 0 13 55 7 79 -9z
m-1209 -7 c0 -19 -27 -53 -36 -45 -9 10 12 58 26 58 5 0 10 -6 10 -13z m1067
-61 c60 -55 111 -122 100 -132 -7 -7 -76 37 -122 77 -36 32 -56 63 -70 107 -6
21 -5 22 12 14 10 -6 46 -35 80 -66z m-2838 -3 c35 -47 65 -117 58 -136 -1 -5
-20 5 -40 22 -25 23 -42 49 -52 84 -27 92 -17 100 34 30z m2774 -62 c68 -48
137 -119 137 -141 0 -10 -185 90 -222 120 -25 19 -28 28 -28 78 l0 56 36 -42
c20 -23 55 -55 77 -71z m-2910 2 c14 -43 28 -97 32 -120 6 -38 5 -43 -12 -43
-11 0 -28 7 -39 15 -10 8 -31 15 -46 15 l-27 0 20 68 c11 37 23 84 26 105 3
20 9 37 13 37 4 0 19 -35 33 -77z m3244 31 c9 -25 -11 -37 -41 -23 -42 19 -43
2 -2 -40 30 -31 39 -49 43 -85 7 -55 -9 -61 -50 -18 -32 34 -34 42 -6 42 34 0
17 23 -38 50 -29 14 -55 28 -58 32 -10 10 42 41 83 49 57 11 62 10 69 -7z
m-4157 -49 c0 -23 -5 -35 -14 -35 -19 0 -28 28 -16 51 16 30 30 23 30 -16z
m2484 9 c7 -19 -1 -34 -19 -34 -8 0 -16 4 -19 9 -9 14 4 41 19 41 7 0 16 -7
19 -16z m4241 6 c7 -12 -41 -100 -55 -100 -22 0 -19 24 7 65 29 46 37 52 48
35z m-6611 -52 c-17 -52 -24 -96 -24 -150 0 -68 -18 -78 -50 -26 -26 43 -34
100 -20 143 13 40 33 54 73 55 25 0 27 -3 21 -22z m937 -23 c10 -17 21 -43 25
-59 6 -27 5 -27 -15 -16 -26 13 -61 67 -61 93 0 28 31 17 51 -18z m2623 3 c18
-45 29 -161 15 -152 -29 17 -65 184 -40 184 7 0 18 -15 25 -32z m-3484 -83 c0
-33 -10 -55 -25 -55 -19 0 -25 25 -18 77 l6 46 19 -22 c10 -13 18 -34 18 -46z
m2270 61 c0 -18 -64 -186 -83 -219 -36 -60 -94 -114 -108 -100 -8 8 -4 23 16
57 14 25 25 55 23 68 -2 18 -15 4 -62 -67 -33 -49 -62 -83 -64 -76 -6 19 71
170 118 228 40 51 121 113 147 113 7 0 13 -2 13 -4z m-2007 -41 c198 -25 313
-43 477 -74 85 -16 245 -45 355 -65 257 -47 247 -45 243 -58 -9 -26 -36 -32
-90 -20 -29 6 -152 28 -273 48 -121 20 -337 56 -480 80 -143 24 -297 47 -343
50 -45 4 -85 11 -88 15 -6 11 36 39 59 39 10 0 73 -7 140 -15z m3408 -24 c29
-28 39 -47 39 -70 0 -21 -5 -31 -15 -31 -8 0 -15 9 -15 21 0 34 -18 12 -25
-31 -9 -52 -21 -51 -28 1 -3 23 -17 63 -30 89 -14 27 -23 51 -19 54 17 17 58
3 93 -33z m-91 -46 c15 -18 9 -50 -10 -50 -10 0 -16 12 -18 33 -3 34 8 41 28
17z m-2170 -115 c0 -40 -4 -70 -10 -70 -6 0 -10 30 -10 70 0 40 4 70 10 70 6
0 10 -30 10 -70z m2073 21 c57 -25 122 -83 136 -121 12 -36 9 -37 -46 -4 -63
37 -72 25 -19 -24 38 -35 49 -41 65 -32 27 14 36 -4 17 -32 -9 -12 -16 -30
-16 -40 0 -10 -4 -18 -8 -18 -4 0 -41 27 -82 61 -41 34 -94 72 -118 86 -32 19
-41 30 -36 42 3 9 9 38 12 64 5 55 8 55 95 18z m461 13 c9 -8 16 -22 16 -30 0
-8 11 -26 25 -40 20 -20 22 -26 10 -30 -24 -10 -41 2 -57 38 -34 73 -31 100 6
62z m-2456 -61 c-4 -52 -28 -56 -28 -5 0 22 3 48 6 57 6 16 8 16 16 1 5 -9 8
-33 6 -53z m-1085 14 c6 -25 5 -44 -5 -63 -22 -47 -38 -41 -38 13 0 94 26 124
43 50z m104 27 c8 -20 -9 -36 -30 -28 -20 7 -22 30 -4 37 21 9 27 7 34 -9z
m3414 -88 c17 -20 53 -48 78 -61 l46 -24 -35 0 c-64 -1 -154 57 -173 110 -11
33 49 15 84 -25z m-3153 8 c-11 -11 -25 -14 -42 -10 -40 10 -31 26 16 26 39 0
41 -1 26 -16z m127 -25 c4 -11 4 -36 1 -54 -5 -23 -2 -38 9 -48 13 -14 13 -19
0 -44 -20 -38 -20 -93 1 -93 30 0 45 63 38 160 -4 59 -3 90 4 90 18 0 22 -29
22 -156 0 -68 4 -124 8 -124 5 0 17 9 27 20 18 20 18 16 0 170 -4 36 -3 40 5
22 13 -31 62 -101 94 -135 21 -23 26 -38 26 -78 0 -57 15 -62 39 -14 11 23 11
41 2 98 -6 38 -9 72 -7 74 3 3 14 -10 25 -28 17 -27 21 -51 21 -116 0 -105 12
-108 44 -10 3 10 12 17 19 14 8 -3 11 -23 9 -61 -2 -43 1 -57 10 -54 9 3 15
33 18 88 4 63 8 80 16 69 21 -27 34 -82 34 -145 0 -37 4 -64 10 -64 6 0 20 20
32 45 12 25 26 45 30 45 4 0 8 -22 8 -50 0 -27 4 -50 9 -50 15 0 23 36 16 74
-7 37 1 76 16 76 5 0 9 -38 9 -85 0 -68 3 -85 15 -85 19 0 35 31 35 69 0 21 5
31 15 31 11 0 15 -12 15 -49 0 -53 7 -65 30 -51 11 7 11 16 1 52 -14 49 -12
103 4 103 12 0 30 -68 39 -152 7 -60 6 -63 -14 -63 -33 0 -77 -27 -106 -65
-26 -35 -54 -46 -54 -22 0 7 11 28 25 47 25 34 32 60 16 60 -5 0 -39 -27 -75
-60 -37 -33 -70 -60 -75 -60 -5 0 -14 6 -21 14 -9 12 -4 23 29 59 23 24 41 47
41 51 0 17 -34 1 -91 -45 -77 -62 -109 -79 -145 -79 -25 0 -21 5 40 53 49 37
64 53 51 55 -9 2 -36 -10 -60 -27 -24 -17 -48 -31 -54 -31 -25 0 -8 37 37 77
49 44 45 61 -6 18 -28 -23 -72 -45 -93 -45 -20 0 -7 28 26 57 35 31 46 63 23
63 -7 0 -33 -21 -59 -46 -31 -31 -53 -45 -63 -41 -25 10 -19 43 12 69 15 13
32 29 36 37 14 21 -23 -1 -75 -48 -38 -33 -49 -38 -58 -27 -8 10 -3 24 25 60
50 66 34 71 -24 8 -31 -33 -56 -52 -71 -52 l-22 0 20 26 c28 35 26 46 -4 38
-30 -7 -31 0 -9 81 31 114 35 148 23 203 -11 54 -6 102 11 102 5 0 12 -9 15
-21z m-621 -11 c9 -38 -6 -228 -19 -228 -32 0 -47 60 -25 101 9 16 7 19 -9 19
-25 0 -31 -19 -24 -81 5 -46 4 -51 -13 -47 -17 3 -19 14 -22 87 l-3 84 46 43
c52 50 60 53 69 22z m174 -62 c-5 -53 -28 -43 -28 12 0 27 3 52 7 56 11 10 24
-34 21 -68z m350 52 c23 -23 13 -36 -25 -32 -21 2 -63 6 -94 9 -31 4 -65 13
-75 20 -17 13 -7 14 82 15 65 0 104 -4 112 -12z m3117 -55 c135 -49 211 -98
240 -154 21 -39 19 -46 -7 -21 -13 11 -50 34 -83 50 -33 16 -90 44 -126 61
-63 31 -161 114 -114 97 11 -4 52 -19 90 -33z m-1717 -35 c17 -50 72 -324 72
-361 0 -4 -9 -3 -19 3 -11 5 -22 10 -25 10 -13 0 -5 -43 19 -106 14 -37 26
-82 28 -101 3 -41 10 -42 35 -1 18 28 22 30 28 15 8 -23 -22 -92 -59 -134 -42
-48 -20 -72 30 -33 28 22 59 26 65 9 2 -6 -4 -37 -13 -68 -9 -31 -24 -82 -33
-113 -11 -36 -22 -58 -31 -58 -14 0 -17 9 -28 65 -3 17 -5 15 -12 -8 -5 -18
-3 -44 5 -68 15 -45 16 -55 6 -86 -6 -18 -3 -23 9 -23 12 0 15 -6 10 -22 -7
-27 -111 -235 -130 -262 -18 -24 -35 -12 -35 25 0 23 13 44 51 84 41 43 49 57
41 72 -19 37 -21 91 -8 183 8 52 12 97 10 100 -12 12 -44 -73 -44 -120 -1 -24
-1 -24 -15 -6 -22 29 -19 123 5 171 23 46 20 54 -14 31 -31 -20 -42 -39 -51
-93 -8 -49 -18 -53 -41 -18 -20 30 -15 77 17 153 l21 51 26 -17 c25 -16 25
-16 72 37 34 38 53 52 64 48 13 -5 15 -2 10 21 -11 45 -23 73 -39 88 -8 9 -15
25 -15 37 0 23 -83 273 -94 284 -3 3 -7 -20 -7 -53 -4 -181 -18 -317 -39 -388
-23 -72 -32 -83 -50 -61 -7 8 -16 15 -20 15 -10 0 -30 -80 -30 -119 0 -45 -17
-47 -29 -4 -22 77 -7 134 63 248 56 91 78 134 74 147 -2 5 -15 -7 -29 -26 -52
-73 -184 -225 -196 -225 -33 -2 12 100 53 122 18 9 23 17 15 21 -19 12 -50 -4
-68 -35 -20 -33 -28 -36 -37 -13 -8 22 -1 31 44 54 77 39 137 154 282 538 11
28 23 52 27 52 4 0 17 -28 29 -62z m-1458 42 c30 -9 20 -14 -64 -30 -60 -12
-155 -5 -140 10 11 10 106 28 149 28 17 0 41 -3 55 -8z m2284 -22 c7 -13 17
-36 20 -51 4 -16 18 -40 32 -54 23 -23 25 -33 27 -127 2 -92 5 -108 34 -167
23 -45 53 -85 100 -129 189 -177 183 -170 183 -214 0 -27 -10 -59 -30 -93 -17
-29 -32 -53 -33 -53 -2 0 -1 29 1 65 6 88 -22 140 -146 278 -155 170 -194 253
-172 368 6 29 10 53 10 55 0 3 -18 1 -40 -2 l-40 -7 0 39 c0 48 18 114 30 114
5 0 16 -10 24 -22z m194 -17 c20 -35 20 -51 0 -51 -8 0 -38 64 -38 81 0 20 18
6 38 -30z m344 -68 c59 -70 61 -98 5 -65 -25 15 -117 145 -117 166 0 15 57
-36 112 -101z m-2452 72 c13 -15 5 -55 -11 -55 -5 0 -14 12 -19 26 -15 40 5
59 30 29z m960 -50 c0 -73 -30 -148 -87 -218 -50 -60 -199 -187 -220 -187 -29
0 -21 24 22 68 26 25 43 48 38 49 -4 2 -15 8 -23 13 -18 13 -5 22 84 60 79 34
98 61 105 154 7 79 27 116 63 116 15 0 18 -8 18 -55z m1733 31 c23 -14 67 -34
97 -46 30 -11 68 -31 83 -43 27 -23 28 -27 30 -123 l2 -99 -30 45 c-16 24 -68
77 -115 117 -77 66 -119 122 -120 161 0 17 5 16 53 -12z m-3483 -58 c0 -16 -4
-28 -9 -28 -12 0 -24 56 -15 71 10 16 24 -9 24 -43z m473 27 c10 -4 16 -13 14
-19 -6 -18 -54 -19 -108 -1 -28 10 -66 15 -85 13 -34 -4 -46 5 -21 16 16 8
177 0 200 -9z m2680 -24 c47 -44 85 -111 94 -167 9 -52 -10 -37 -48 39 -17 34
-40 72 -52 85 -22 24 -47 29 -48 10 0 -12 -27 47 -28 65 -2 20 44 2 82 -32z
m-2798 -40 l60 -19 -67 -1 c-72 -1 -164 15 -174 30 -10 16 119 9 181 -10z
m3041 3 c14 -9 30 -26 36 -38 8 -16 3 -15 -23 9 -19 16 -38 33 -43 37 -18 15
5 8 30 -8z m-477 -22 c5 -10 13 -43 17 -73 3 -30 12 -64 20 -76 11 -18 11 -22
-1 -27 -22 -8 -53 39 -65 100 -16 75 3 124 29 76z m-2536 -49 c16 -8 27 -16
25 -17 -9 -7 -245 11 -258 19 -42 27 180 26 233 -2z m3164 2 c13 -9 48 -69 84
-143 33 -70 75 -142 92 -160 24 -25 28 -35 19 -44 -10 -10 -19 -8 -41 5 -16 9
-36 17 -44 17 -10 0 -16 16 -20 52 -10 81 -58 168 -127 231 -33 30 -57 57 -53
61 11 10 62 -1 90 -19z m237 19 c9 -4 22 -16 28 -28 17 -31 87 -240 82 -245
-15 -16 -142 159 -164 225 -10 30 -10 38 1 45 17 10 32 11 53 3z m-744 -28 c6
-18 14 -23 28 -19 11 3 29 0 41 -6 20 -11 20 -14 6 -48 -8 -19 -15 -43 -15
-52 1 -13 3 -13 15 3 12 16 17 17 28 7 10 -10 7 -16 -12 -32 -35 -28 -57 -24
-65 12 -3 17 -15 43 -26 59 -11 16 -20 44 -20 64 0 42 7 46 20 12z m124 1 c11
-8 17 -23 14 -40 -4 -38 -22 -39 -26 -2 -2 17 -8 36 -14 43 -14 16 3 16 26 -1z
m-261 -135 c18 -19 69 -63 114 -98 83 -65 153 -138 153 -160 0 -6 -7 -14 -15
-18 -21 -8 -18 -63 4 -106 l19 -34 21 34 c12 20 21 52 21 75 0 54 -49 137
-101 172 l-40 26 58 19 c35 11 77 17 104 15 43 -4 45 -3 41 20 -7 38 16 27 77
-35 40 -42 74 -93 120 -183 71 -138 89 -162 143 -190 38 -20 81 -66 73 -79
-12 -20 -104 23 -154 72 -47 46 -73 89 -132 222 -28 64 -55 116 -60 116 -17 0
-20 -22 -5 -45 9 -13 16 -32 16 -42 0 -13 -11 -7 -42 23 -52 50 -107 88 -115
81 -11 -12 7 -37 45 -61 82 -52 111 -117 99 -222 -9 -82 -43 -85 -54 -5 -3 22
-8 41 -12 41 -3 0 -26 -44 -50 -98 -31 -69 -45 -115 -49 -159 -3 -44 -9 -63
-18 -63 -23 0 -28 50 -10 124 9 39 16 81 16 94 0 52 -53 126 -171 241 -140
135 -180 201 -187 305 l-3 61 31 -55 c17 -30 45 -70 63 -88z m-1534 59 c1 -35
-5 -22 -12 24 -5 28 -4 34 3 20 5 -11 9 -31 9 -44z m-1327 22 c22 -19 24 -43
4 -43 -14 0 -46 36 -46 52 0 14 23 9 42 -9z m191 2 c20 -8 51 -15 69 -15 25 0
29 -3 18 -10 -37 -24 -180 -4 -180 26 0 19 48 18 93 -1z m3257 -8 c44 -29 68
-72 77 -132 8 -60 -4 -55 -46 19 -31 56 -85 106 -114 106 -20 0 -23 16 -4 23
26 11 55 6 87 -16z m-102 -50 c12 -12 27 -38 34 -59 6 -21 17 -38 25 -38 16 0
17 14 2 42 -13 24 0 42 24 32 13 -5 17 -20 17 -69 0 -74 -18 -99 -50 -70 -21
19 -116 154 -126 178 -8 21 45 10 74 -16z m-3160 -54 c59 -28 141 -104 258
-238 l61 -70 94 -13 c63 -8 147 -31 254 -68 243 -85 347 -113 469 -125 61 -6
113 -13 115 -15 9 -9 -32 -132 -65 -195 -20 -37 -56 -91 -81 -120 -45 -54
-192 -188 -205 -189 -24 -1 1 35 67 94 41 37 75 72 75 77 0 26 -42 2 -89 -52
-48 -54 -96 -87 -108 -75 -7 6 25 50 128 178 82 102 160 228 142 228 -16 0
-69 -63 -123 -145 -29 -44 -67 -97 -83 -118 -31 -40 -105 -93 -115 -83 -3 3
22 35 56 70 63 65 74 86 47 86 -17 0 -38 -20 -79 -73 -39 -50 -106 -86 -106
-56 0 6 23 32 50 59 51 50 58 64 38 76 -11 7 -55 -34 -76 -72 -6 -11 -14 -16
-17 -12 -18 18 13 67 86 137 74 70 119 126 119 147 0 5 -74 -65 -165 -156 -91
-91 -165 -161 -165 -157 0 36 99 165 204 264 41 39 72 74 68 77 -3 3 -17 6
-32 6 -34 0 -74 -40 -147 -144 -31 -44 -70 -97 -86 -116 -53 -62 -155 -120
-128 -72 6 9 53 68 105 130 87 105 156 212 156 242 0 17 -32 -20 -141 -162
-87 -113 -197 -233 -206 -224 -6 6 32 65 148 232 55 78 99 144 99 148 0 3 -11
0 -25 -6 -25 -11 -56 -54 -139 -190 -42 -70 -66 -94 -66 -69 0 27 35 99 89
183 64 99 71 118 46 118 -25 0 -53 -36 -98 -128 -55 -110 -69 -132 -84 -132
-25 0 -21 19 12 58 39 45 42 52 21 52 -8 0 -31 -19 -50 -42 -33 -38 -36 -40
-36 -17 0 27 26 74 74 134 49 60 53 71 19 47 -41 -29 -83 -79 -100 -119 -16
-41 -33 -43 -33 -5 0 20 15 46 50 86 60 69 74 92 59 101 -5 4 -28 -12 -49 -35
-55 -60 -78 -43 -55 40 l7 25 -20 -23 c-11 -12 -22 -28 -25 -35 -2 -8 -9 -7
-21 6 -10 9 -24 17 -31 17 -20 0 -55 49 -55 76 0 30 32 32 60 4 19 -19 19 -19
42 0 22 19 22 21 5 34 -11 8 -25 31 -32 51 l-12 37 -13 -33 c-11 -31 -13 -32
-20 -14 -5 11 -9 37 -9 58 -1 38 -6 43 -30 28 -9 -6 -11 -20 -6 -50 6 -37 5
-41 -14 -41 -20 0 -21 5 -21 91 0 80 -2 90 -15 79 -11 -9 -15 -34 -16 -94 l-1
-81 -21 45 c-24 53 -34 139 -18 167 13 26 4 35 -22 22 -18 -10 -19 -18 -14
-78 5 -65 -3 -104 -20 -87 -4 4 -7 48 -6 98 2 94 -7 108 -37 55 -12 -21 -12
-35 -3 -79 6 -29 9 -55 7 -57 -11 -12 -44 40 -56 89 l-14 55 43 42 c24 24 50
43 59 43 8 0 41 -12 72 -27z m227 -43 c19 -37 20 -80 1 -80 -8 0 -31 23 -51
52 -35 48 -36 52 -20 64 23 17 50 3 70 -36z m3541 5 c32 -32 24 -46 -18 -34
-40 11 -52 23 -45 43 9 23 34 19 63 -9z m-198 -35 c33 -49 28 -129 -6 -87 -8
10 -42 110 -42 125 0 13 28 -9 48 -38z m-1768 -42 c0 -16 -4 -28 -9 -28 -12 0
-24 56 -15 71 10 16 24 -9 24 -43z m-2030 12 c0 -16 -4 -30 -9 -30 -4 0 -25
-11 -45 -25 l-36 -24 0 26 c0 31 45 83 72 83 13 0 18 -8 18 -30z m609 3 c80
-25 143 -87 165 -160 7 -22 5 -23 -44 -23 -94 0 -148 42 -189 148 -20 50 -20
52 -2 52 10 0 42 -7 70 -17z m730 -23 c14 -46 7 -80 -16 -80 -12 0 -14 8 -9
39 5 35 4 39 -13 34 -10 -2 -35 -22 -56 -44 -34 -36 -65 -51 -65 -31 0 14 117
122 133 122 8 0 19 -18 26 -40z m191 27 c0 -7 -17 -30 -39 -51 -53 -52 -67
-28 -15 25 40 41 54 48 54 26z m314 -33 c12 -30 6 -110 -10 -132 -8 -12 -26
-22 -39 -22 l-24 0 25 48 c14 27 26 65 27 85 2 39 11 48 21 21z m2069 -22 c9
-10 23 -37 32 -61 14 -39 13 -42 -3 -39 -9 2 -25 21 -36 43 -10 22 -25 44 -32
48 -16 9 -9 27 10 27 7 0 20 -8 29 -18z m-2933 -11 c0 -30 -118 -86 -138 -66
-11 11 45 57 79 65 48 11 59 11 59 1z m130 0 c0 -15 -30 -41 -47 -41 -21 0
-11 23 18 37 29 15 29 15 29 4z m-1071 -30 c22 -14 3 -31 -68 -63 -36 -17 -73
-37 -83 -45 -24 -21 -32 0 -13 36 30 59 121 99 164 72z m3602 -5 c-14 -16 12
-26 74 -26 22 0 50 -3 61 -6 20 -5 21 -9 11 -37 -7 -18 -12 -33 -13 -35 -1 -2
-19 8 -39 23 -21 14 -50 25 -66 25 -36 0 -79 20 -79 36 0 14 27 33 49 34 10 0
11 -3 2 -14z m-80 -68 c22 -23 27 -34 19 -42 -8 -8 -19 -1 -40 24 -25 31 -30
50 -13 50 3 0 18 -14 34 -32z m-2151 7 c9 -11 10 -24 3 -48 l-9 -32 -18 27
c-11 16 -15 35 -11 48 8 24 18 25 35 5z m2494 -6 c30 -24 56 -69 56 -99 0 -34
-19 -23 -55 34 -19 30 -39 58 -45 61 -11 7 -4 25 9 25 5 0 20 -9 35 -21z
m-1473 -193 c-46 -76 -66 -129 -74 -201 l-3 -30 -18 40 c-35 76 -13 145 93
295 l46 65 3 -44 c3 -37 -4 -55 -47 -125z m1418 123 c7 -17 53 -73 102 -124
49 -51 89 -96 89 -100 0 -9 -130 63 -158 89 -33 29 -49 63 -57 119 -8 54 4 62
24 16z m-3602 2 c42 -20 68 -52 59 -74 -2 -7 -8 -2 -12 11 -3 13 -12 21 -18
19 -18 -6 -19 -37 -1 -57 11 -12 13 -20 6 -25 -17 -10 -29 2 -55 52 -15 30
-25 41 -28 31 -9 -21 18 -90 42 -108 20 -15 20 -18 6 -30 -23 -18 -51 9 -72
72 -15 45 -18 48 -31 35 -22 -21 -11 -55 33 -100 26 -27 33 -42 26 -49 -18
-18 -37 -2 -70 61 -33 60 -48 78 -59 67 -12 -12 9 -55 48 -99 33 -38 38 -48
25 -53 -46 -18 -131 67 -143 142 -4 23 -9 32 -16 25 -22 -22 4 -83 58 -137 34
-32 49 -54 42 -57 -24 -9 -76 22 -101 60 -27 40 -66 140 -66 167 0 54 237 87
327 47z m1338 -28 c-4 -10 -12 -37 -18 -60 -9 -36 -8 -46 7 -61 15 -17 15 -20
1 -32 -25 -21 -40 3 -40 63 0 34 6 63 18 80 20 30 44 37 32 10z m2142 -3 c34
0 40 -4 50 -30 7 -18 8 -32 2 -36 -17 -10 -69 7 -99 33 -35 29 -42 60 -11 43
11 -5 37 -10 58 -10z m-997 -61 c20 -74 -27 -215 -61 -182 -9 9 -9 22 0 57 6
25 11 77 11 116 0 67 1 70 20 60 10 -6 24 -29 30 -51z m-80 32 c14 -27 13 -62
-7 -138 -14 -59 -18 -64 -30 -48 -24 34 -10 205 17 205 5 0 14 -9 20 -19z
m185 -25 c9 -46 -10 -108 -41 -137 l-27 -24 7 25 c3 14 11 56 16 94 6 37 13
72 16 77 9 16 23 0 29 -35z m-2932 -3 c8 -16 17 -44 21 -64 4 -21 15 -48 26
-62 25 -32 25 -37 -1 -37 -14 0 -25 12 -36 38 -15 35 -43 128 -43 145 0 17 21
5 33 -20z m-29 -111 c21 -61 20 -69 -5 -46 -25 22 -49 74 -49 105 0 21 1 21
19 5 11 -10 27 -39 35 -64z m486 29 c0 -28 -24 -45 -40 -26 -16 20 -6 45 20
45 13 0 20 -7 20 -19z m3464 1 c10 -6 0 -76 -16 -105 -10 -20 -11 -20 -24 6
-8 14 -17 47 -21 72 l-6 46 29 -7 c16 -4 33 -9 38 -12z m-1257 -36 c-12 -55 8
-146 59 -254 33 -73 44 -144 28 -186 -13 -34 -24 -13 -24 47 0 56 -6 76 -60
187 -70 146 -78 195 -34 229 38 30 42 27 31 -23z m544 17 c6 -16 15 -77 19
-138 4 -71 13 -122 24 -142 9 -18 12 -33 6 -33 -19 0 -52 42 -78 99 -32 70
-37 172 -9 214 22 34 25 34 38 0z m-2665 1 c49 -12 17 -104 -37 -104 -20 0
-20 1 5 31 14 17 26 35 26 40 0 17 -20 9 -35 -15 -18 -27 -44 -41 -56 -29 -13
13 41 95 58 89 8 -4 26 -9 39 -12z m2804 -30 c0 -21 -4 -33 -10 -29 -5 3 -10
22 -10 41 0 21 4 33 10 29 6 -3 10 -22 10 -41z m330 11 c10 -12 9 -16 -4 -21
-22 -8 -46 2 -46 21 0 19 34 20 50 0z m-1504 -52 c12 -27 14 -53 9 -99 -3 -34
-6 -89 -6 -121 0 -51 -2 -56 -14 -39 -22 29 -35 109 -35 206 0 75 3 90 16 90
8 0 22 -17 30 -37z m-2266 2 c23 -28 -20 -115 -57 -115 -11 0 -11 6 2 30 8 16
15 45 15 65 0 38 18 47 40 20z m3226 -123 c7 -65 -14 -150 -43 -173 -14 -12
-15 -8 -9 36 3 28 7 101 9 163 l2 114 18 -40 c9 -23 20 -67 23 -100z m624 119
c24 -7 23 -8 -15 -19 -49 -15 -108 -16 -100 -2 6 9 60 28 80 28 6 0 21 -3 35
-7z m-694 -107 c4 -31 -1 -93 -15 -183 -23 -147 -26 -227 -11 -251 16 -24 30
6 30 62 0 25 3 53 6 62 7 19 35 21 52 4 15 -15 16 -80 0 -96 -6 -6 -8 -15 -4
-19 14 -14 41 15 58 63 l18 49 -3 -142 c-1 -78 1 -139 5 -137 5 3 8 13 8 22 0
13 60 214 87 292 4 10 10 4 20 -20 19 -44 13 -83 -32 -200 -19 -50 -35 -106
-35 -123 1 -31 1 -31 16 -12 8 11 26 58 40 105 38 129 53 166 74 185 24 22 24
24 0 -53 -26 -84 -27 -132 -1 -132 24 0 35 31 26 76 -7 38 1 74 15 74 5 0 11
-41 12 -91 l3 -90 49 118 c77 183 106 273 106 329 l0 51 83 18 c45 9 98 15
117 13 l35 -3 -30 -16 c-16 -9 -54 -22 -83 -28 -63 -13 -95 -28 -87 -42 9 -13
52 -11 115 6 30 8 68 12 85 9 l29 -6 -22 -18 c-12 -10 -52 -29 -88 -42 -67
-23 -135 -70 -122 -83 4 -4 23 2 42 13 55 32 173 72 261 88 91 16 175 18 175
5 0 -22 -109 -60 -210 -75 -187 -28 -220 -44 -220 -110 0 -33 -9 -57 -42 -107
-63 -97 -81 -144 -73 -189 4 -21 13 -46 20 -57 13 -17 14 -16 15 14 0 17 21
82 46 145 30 74 48 134 51 175 l6 61 36 5 c20 2 64 10 99 17 59 12 103 8 88
-8 -4 -4 -42 -18 -84 -32 -41 -14 -78 -31 -80 -37 -5 -18 19 -16 70 7 24 11
87 24 139 30 108 13 293 10 244 -3 -16 -5 -38 -12 -47 -18 -10 -5 -28 -9 -41
-9 -13 0 -32 -7 -43 -15 -16 -13 -17 -16 -4 -25 22 -15 39 -13 120 15 72 25
150 33 150 17 0 -14 -32 -40 -65 -52 -17 -6 -88 -18 -158 -26 -125 -14 -171
-27 -196 -58 -12 -14 -8 -16 32 -16 26 0 106 13 179 30 73 16 153 32 178 35
25 3 57 8 73 10 15 3 27 1 27 -4 0 -16 -100 -51 -229 -80 -158 -36 -181 -46
-128 -56 49 -10 116 0 215 30 103 30 172 41 172 26 0 -6 -9 -16 -20 -23 -11
-7 -20 -15 -20 -18 0 -3 45 -4 100 -2 160 5 123 -28 -100 -88 -111 -30 -248
-85 -238 -95 3 -3 16 -1 29 4 14 5 69 12 124 16 115 8 160 24 177 59 11 25 15
26 95 26 63 0 84 -3 81 -12 -7 -25 -132 -77 -228 -94 -52 -10 -102 -21 -110
-26 -8 -5 109 -7 268 -6 155 2 282 0 282 -4 0 -21 -118 -40 -305 -47 -197 -9
-245 -17 -291 -51 -43 -32 -32 -38 28 -13 109 44 293 47 383 6 l40 -18 -182
-5 c-193 -5 -239 -16 -167 -40 26 -9 70 -10 149 -6 110 7 195 -3 195 -23 0
-16 -51 -22 -153 -16 -113 7 -148 -2 -112 -29 18 -14 15 -15 -50 -16 -75 0
-115 -7 -115 -20 0 -14 34 -22 143 -30 71 -5 115 -13 132 -24 24 -16 25 -15
25 3 0 15 -9 23 -32 29 -69 18 -30 52 60 52 26 0 88 -12 138 -27 l92 -28 5
-39 c4 -26 14 -46 29 -58 l23 -18 -27 0 c-14 0 -55 13 -90 30 -74 35 -88 37
-88 10 0 -22 20 -32 85 -46 47 -11 49 -27 3 -34 -31 -6 -26 -10 93 -68 116
-57 170 -94 157 -107 -3 -3 -31 10 -63 30 -58 35 -120 54 -133 40 -9 -8 14
-25 103 -77 164 -96 218 -145 240 -218 6 -21 -2 -16 -46 26 -70 67 -140 119
-203 151 -53 27 -167 65 -174 58 -6 -6 64 -47 138 -82 36 -16 76 -40 90 -51
l25 -21 -35 -1 c-38 0 -65 14 -160 84 -61 45 -90 56 -90 36 0 -21 48 -59 118
-94 79 -40 88 -49 67 -66 -12 -10 -22 -8 -53 12 -43 29 -82 43 -82 31 0 -17
77 -82 163 -137 48 -30 87 -60 87 -66 0 -27 -54 -5 -131 55 -81 62 -109 77
-109 55 0 -16 35 -46 105 -90 68 -44 73 -51 51 -69 -19 -16 -40 -5 -71 35 -14
19 -33 34 -41 34 -30 0 -11 -34 56 -99 82 -79 92 -108 18 -51 -29 22 -57 40
-61 40 -15 0 57 -91 106 -136 35 -31 62 -46 102 -55 30 -7 55 -16 55 -20 0 -5
-12 -16 -26 -25 -23 -16 -28 -16 -59 -1 -18 8 -57 37 -86 63 -46 41 -54 45
-58 29 -2 -14 17 -39 62 -81 36 -35 73 -74 82 -88 15 -23 16 -26 2 -32 -11 -4
-27 7 -48 30 -17 20 -35 33 -40 30 -5 -3 -9 0 -9 5 0 19 -70 89 -113 114 -53
31 -139 57 -188 57 -51 0 -58 -16 -11 -24 54 -9 154 -59 200 -100 22 -20 49
-56 60 -79 24 -52 37 -117 23 -117 -13 0 -57 76 -66 113 -4 15 -11 27 -16 27
-19 0 -8 -46 26 -106 l34 -63 -29 6 c-17 3 -30 1 -30 -4 0 -5 11 -41 24 -79
13 -38 28 -86 31 -108 12 -62 -16 -40 -41 33 -37 107 -44 88 -20 -57 7 -45 12
-81 11 -80 -2 2 -29 54 -60 117 -37 74 -73 130 -102 159 -26 26 -41 48 -36 53
5 5 25 -8 48 -31 43 -45 65 -51 65 -19 0 32 -63 86 -109 94 -42 7 -81 0 -81
-15 0 -4 22 -35 50 -68 76 -91 102 -150 102 -233 1 -38 -2 -73 -6 -76 -12 -12
-26 20 -26 60 0 23 -4 36 -10 32 -5 -3 -10 -26 -10 -50 0 -24 -5 -47 -10 -50
-15 -9 -28 34 -43 143 l-14 97 -8 -49 c-11 -72 0 -147 45 -296 44 -146 59
-230 42 -230 -20 0 -42 31 -42 60 0 16 -5 32 -10 35 -17 10 -23 -25 -10 -53 7
-15 16 -40 21 -56 8 -28 8 -28 -12 -10 -27 24 -49 67 -49 94 0 11 -4 20 -10
20 -15 0 -12 -40 6 -94 9 -26 14 -49 12 -52 -8 -7 -59 71 -74 113 -7 21 -13
50 -14 66 0 27 13 36 25 16 5 -7 16 -2 31 12 14 13 24 17 24 10 0 -7 5 -9 11
-5 18 11 4 115 -32 234 -23 79 -31 127 -33 192 -1 61 -4 81 -11 70 -19 -33 -9
-202 18 -321 15 -63 25 -117 22 -119 -3 -3 -18 24 -34 59 -42 91 -61 197 -61
344 0 97 -3 126 -12 123 -7 -3 -19 -22 -27 -44 -22 -65 4 -218 85 -488 11 -35
-16 -6 -42 46 -45 89 -75 228 -81 381 -5 126 -7 137 -22 123 -30 -30 -27 -139
8 -293 42 -181 40 -173 30 -173 -14 0 -60 86 -76 142 -8 30 -18 121 -21 208
l-7 155 -20 -55 c-15 -42 -20 -78 -19 -155 2 -174 72 -333 176 -400 39 -25 47
-35 47 -61 1 -17 8 -48 16 -67 27 -65 16 -74 -34 -28 -22 20 -31 38 -31 60 0
17 -5 31 -10 31 -19 0 -22 -28 -5 -60 9 -17 15 -39 13 -47 -5 -27 -57 57 -70
115 -14 56 -22 64 -32 30 -9 -37 -7 -56 10 -72 13 -13 13 -16 1 -16 -31 0 -74
75 -84 147 l-6 48 33 -28 c18 -15 34 -26 37 -24 2 3 -12 50 -31 106 -52 148
-69 246 -64 355 3 50 9 99 13 109 14 34 -33 -4 -50 -39 -22 -47 -19 -108 15
-259 31 -141 41 -287 19 -301 -20 -12 -30 19 -23 71 l6 50 -20 -25 c-26 -31
-35 -23 -62 55 -11 32 -26 66 -34 74 -8 9 -16 48 -20 86 -3 39 -8 100 -12 136
-5 55 -3 72 15 107 11 22 25 43 31 47 14 9 12 25 -3 25 -20 0 -44 31 -51 65
-4 17 0 80 9 139 17 125 20 296 5 296 -5 0 -10 -4 -10 -10 0 -16 -27 -11 -34
6 -3 9 -6 52 -6 97 l0 80 26 -24 c15 -13 33 -39 41 -58 l15 -34 28 49 c15 27
60 86 99 131 39 45 71 84 71 87 0 8 -63 -17 -88 -35 -13 -9 -38 -45 -56 -79
-29 -54 -35 -60 -41 -41 -11 37 5 80 61 162 79 116 36 113 -54 -4 -33 -42 -42
-63 -42 -93 0 -21 -4 -46 -10 -54 -15 -25 -23 13 -18 89 4 51 13 83 37 126 32
60 33 72 6 61 -26 -9 -52 -83 -70 -191 -30 -191 -26 -174 -37 -145 -24 59 -2
234 46 368 17 46 4 58 -27 24 -28 -31 -38 -75 -47 -205 -5 -71 -11 -131 -13
-134 -3 -2 -15 1 -27 7 -16 9 -20 17 -16 33 4 12 9 36 13 52 6 27 5 29 -10 17
-23 -19 -34 -8 -42 38 -8 49 -17 55 -40 30 -32 -36 -47 -26 -43 29 1 27 0 47
-4 44 -5 -2 -8 -17 -8 -34 0 -34 -10 -37 -36 -8 -12 14 -19 40 -22 84 -5 71
-22 80 -22 12 -1 -35 -3 -39 -11 -24 -6 11 -8 41 -5 70 13 125 18 267 9 267
-6 0 -18 -18 -28 -40 -15 -33 -17 -56 -12 -127 3 -49 2 -106 -2 -128 l-8 -40
-18 40 c-14 33 -16 53 -9 125 9 101 6 137 -11 170 -13 24 -14 24 -22 5 -10
-26 -10 -211 0 -293 9 -71 -2 -76 -30 -14 -14 32 -16 69 -15 250 3 217 -4 252
-28 150 -17 -67 -7 -270 18 -396 11 -51 16 -95 12 -97 -21 -13 -80 155 -80
229 0 20 -4 36 -9 36 -15 0 -20 -40 -15 -109 6 -87 -9 -55 -37 82 -23 112 -29
300 -11 375 5 23 8 42 6 42 -10 0 -55 -104 -78 -180 -33 -108 -50 -235 -43
-319 l5 -66 -24 28 c-34 40 -32 114 6 241 17 55 30 121 30 148 0 43 -5 54 -32
81 l-33 32 -12 -208 c-6 -114 -14 -213 -16 -220 -7 -18 -29 43 -32 88 -1 22 4
81 11 130 13 95 17 293 5 334 -12 43 -36 -9 -59 -129 l-9 -45 -18 40 c-16 36
-17 95 -4 144 6 21 -17 24 -36 5 -15 -15 -16 -29 -11 -93 6 -63 5 -74 -6 -63
-23 23 -16 345 10 466 27 121 27 142 2 184 -35 57 -22 102 17 58 12 -14 25
-47 29 -72z m-440 -34 c14 -36 36 -84 49 -108 l24 -42 -35 -15 c-33 -14 -34
-16 -29 -57 6 -41 6 -42 -10 -23 -10 11 -29 45 -43 75 -22 48 -26 71 -29 175
l-4 120 25 -30 c14 -16 37 -59 52 -95z m324 100 c25 -13 40 -69 40 -149 0 -48
-3 -62 -11 -54 -16 16 -68 213 -57 213 5 0 18 -5 28 -10z m-1363 -60 c-7 -79
-37 -139 -109 -215 -57 -62 -153 -133 -164 -122 -3 3 29 43 72 89 101 109 159
198 188 291 12 36 19 14 13 -43z m652 17 c5 -17 15 -66 20 -108 6 -42 15 -88
21 -103 8 -21 7 -27 -2 -24 -32 11 -68 130 -68 224 0 59 12 64 29 11z m-1854
12 c9 -29 -5 -230 -16 -223 -12 7 -12 244 0 244 5 0 13 -9 16 -21z m1459 -79
c-8 -46 -26 -79 -63 -114 -51 -49 -57 -19 -9 48 31 45 42 70 46 110 l5 51 14
-30 c7 -17 10 -45 7 -65z m941 26 c30 -53 49 -146 40 -202 -6 -42 -25 -72 -25
-40 0 9 -13 62 -29 118 -16 57 -32 123 -36 148 -7 41 -6 43 9 31 10 -8 28 -33
41 -55z m123 -6 c28 -55 31 -177 6 -240 -29 -73 -40 -50 -54 114 -5 59 -12
129 -16 154 l-7 46 24 -15 c13 -9 34 -35 47 -59z m1097 61 c7 -12 -34 -41 -57
-41 -21 0 -22 4 -6 30 13 21 52 27 63 11z m-3692 -132 c-9 -61 -10 -63 -21
-36 -15 36 -15 98 -1 134 l12 28 9 -31 c7 -20 7 -55 1 -95z m2102 81 c4 -16
11 -32 16 -35 14 -10 10 -25 -7 -25 -18 0 -48 66 -40 87 8 21 23 8 31 -27z
m1166 24 c35 -18 34 -38 -3 -42 -28 -3 -53 20 -44 43 7 19 10 19 47 -1z m199
7 c0 -13 -65 -33 -92 -29 -22 3 -22 4 7 20 32 19 85 24 85 9z m-3608 -118 c3
-73 1 -83 -14 -83 -30 0 -39 34 -32 121 7 77 8 80 25 62 13 -13 18 -39 21
-100z m58 13 c0 -91 -11 -129 -25 -85 -9 28 5 179 16 179 5 0 9 -42 9 -94z
m208 -34 c-2 -14 -9 -27 -15 -30 -9 -3 -13 12 -13 51 0 29 3 57 7 61 10 10 25
-49 21 -82z m2989 49 c-3 -29 -1 -41 9 -45 8 -3 14 -16 14 -28 -1 -29 -36
-108 -49 -108 -15 0 -23 35 -15 65 6 26 5 27 -24 20 l-31 -6 11 38 c13 50 34
90 50 96 34 14 41 7 35 -32z m613 11 c0 -10 -55 -27 -117 -37 -36 -6 -43 -4
-43 9 0 9 10 21 23 26 28 11 137 13 137 2z m-1533 -43 c14 -39 17 -169 5 -169
-18 0 -35 58 -40 134 -4 64 -2 78 9 74 8 -2 19 -20 26 -39z m-123 -33 c16 -55
20 -192 7 -251 -5 -24 -8 -27 -16 -15 -11 17 -24 330 -13 324 4 -2 14 -29 22
-58z m-304 -2 c0 -38 -19 -94 -31 -94 -18 0 -20 28 -5 65 9 21 16 49 16 64 0
20 2 23 10 11 5 -8 10 -29 10 -46z m-214 11 c7 -27 19 -33 27 -12 3 9 7 9 17
0 17 -15 4 -33 -24 -33 -28 0 -46 18 -46 47 0 31 18 29 26 -2z m1345 -56 c5
-3 -5 -15 -22 -28 -37 -28 -47 -21 -30 22 7 18 16 43 19 57 5 24 6 23 15 -10
5 -19 13 -37 18 -41z m-1589 16 c9 -36 -5 -91 -35 -136 -24 -36 -130 -113
-148 -107 -6 2 19 36 55 76 60 68 93 127 84 153 -2 6 -40 -37 -83 -95 -44 -58
-83 -105 -87 -106 -31 -1 40 129 98 181 45 40 88 69 98 66 6 -2 13 -16 18 -32z
m1862 -68 c-7 -19 -54 -52 -54 -38 0 5 5 13 11 16 5 4 15 18 20 33 6 17 13 22
20 15 5 -5 7 -17 3 -26z m-1318 -38 c-7 -70 -25 -139 -37 -139 -23 0 -18 74
12 168 18 55 33 39 25 -29z m1986 46 c-33 -24 -88 -45 -116 -45 -22 0 -56 31
-56 52 0 5 44 8 97 8 91 0 96 -1 75 -15z m-2065 -61 c-13 -24 -17 -26 -22 -12
-9 22 13 64 27 50 6 -6 5 -19 -5 -38z m163 -13 c0 -9 -10 -45 -21 -80 -15 -44
-25 -59 -32 -52 -7 7 -5 32 7 81 9 40 14 81 11 93 -6 21 -6 21 14 -2 12 -13
21 -31 21 -40z m-1895 18 l30 -21 -29 7 c-83 18 -89 18 -84 4 5 -15 59 -35
123 -45 37 -5 38 -7 20 -20 -28 -20 -75 -17 -152 11 -73 26 -92 24 -55 -6 30
-24 85 -39 145 -39 51 0 63 -16 21 -26 -30 -8 -150 0 -179 12 -20 7 -20 7 -1
-14 13 -15 31 -22 55 -22 34 -1 35 -1 16 -16 -27 -21 -107 -13 -143 13 -36 26
-72 98 -72 145 l0 37 88 4 c123 5 182 -1 217 -24z m1315 -1 c0 -39 -25 -79
-71 -117 -41 -34 -99 -65 -106 -57 -4 3 31 44 75 91 45 46 82 91 82 100 0 8 5
15 10 15 6 0 10 -15 10 -32z m5350 14 c0 -4 -20 -43 -45 -86 -25 -44 -45 -83
-45 -88 0 -16 55 20 95 62 35 37 94 77 98 68 26 -52 56 -60 99 -28 16 12 32
20 34 17 13 -13 -23 -61 -105 -139 -81 -78 -107 -113 -125 -170 -3 -10 -10
-18 -16 -18 -20 0 -23 32 -7 66 9 19 13 34 7 34 -16 0 -40 -44 -40 -73 0 -26
-2 -28 -16 -16 -16 13 -16 68 2 129 6 21 5 23 -7 12 -8 -7 -19 -32 -24 -55 -9
-33 -16 -43 -34 -45 -24 -4 -24 -3 -17 70 14 156 41 227 96 255 28 14 50 17
50 5z m-5260 -35 c0 -26 -80 -137 -112 -157 -37 -23 -68 -26 -68 -8 0 12 164
178 175 178 3 0 5 -6 5 -13z m56 -52 c4 -9 -7 -30 -25 -50 -17 -20 -31 -40
-31 -45 0 -6 -4 -10 -10 -10 -18 0 -11 32 18 76 29 47 39 53 48 29z m1142 -10
c2 -1 -2 -49 -8 -105 -5 -56 -10 -109 -10 -117 0 -13 -3 -13 -15 -3 -11 10
-15 36 -15 111 0 54 -4 101 -10 104 -23 14 -9 26 23 20 17 -4 33 -9 35 -10z
m-948 -35 c0 -36 -16 -47 -30 -20 -8 14 -8 26 0 40 14 27 30 16 30 -20z m267
18 c-3 -8 -6 -5 -6 6 -1 11 2 17 5 13 3 -3 4 -12 1 -19z m198 -80 c0 -68 -9
-93 -25 -68 -11 17 -13 93 -4 140 6 29 8 30 18 14 6 -11 11 -49 11 -86z m-536
65 c-19 -51 -92 -172 -101 -167 -23 14 15 111 65 162 38 39 50 41 36 5z m926
-9 c20 -42 14 -86 -15 -124 -17 -23 -19 -23 -26 -7 -3 10 -1 45 6 77 7 32 10
66 7 75 -13 31 11 14 28 -21z m-598 -31 c-3 -10 -5 -4 -5 12 0 17 2 24 5 18 2
-7 2 -21 0 -30z m512 -25 c1 -34 -9 -59 -20 -52 -11 6 -12 74 -2 100 6 16 7
16 14 -2 4 -10 8 -31 8 -46z m-709 15 c0 -8 -23 -70 -52 -136 -28 -67 -57
-144 -63 -172 l-12 -50 -12 41 c-16 59 -6 94 63 226 56 107 76 131 76 91z
m-250 -19 c0 -10 -66 -97 -89 -118 -19 -17 -21 -17 -27 -2 -4 11 10 33 47 70
51 51 69 64 69 50z m-104 -16 c9 -15 -58 -70 -70 -57 -6 5 1 20 19 39 31 33
40 36 51 18z m244 -12 c0 -20 -37 -62 -46 -53 -11 10 24 79 36 72 6 -3 10 -12
10 -19z m142 -109 c-30 -63 -72 -117 -92 -117 -21 0 13 81 81 191 l34 56 3
-34 c2 -22 -7 -56 -26 -96z m438 105 c0 -10 7 -27 15 -38 15 -22 11 -34 -11
-34 -15 0 -35 65 -27 86 7 18 23 8 23 -14z m4705 -4 c-27 -34 -80 -68 -102
-68 -14 0 -17 19 -6 45 7 20 78 54 111 55 l24 0 -27 -32z m-4856 -63 c0 -39
-53 -208 -62 -199 -12 13 -8 65 12 133 10 36 22 79 26 95 5 23 8 27 16 15 5
-7 8 -27 8 -44z m-148 35 c24 -14 25 -56 1 -132 l-18 -57 -18 30 c-15 25 -17
43 -12 84 6 54 14 85 23 85 2 0 13 -5 24 -10z m69 -64 c0 -36 -4 -68 -10 -71
-6 -4 -10 20 -10 64 0 41 4 71 10 71 6 0 10 -28 10 -64z m-2120 38 c45 -18 48
-24 20 -49 -13 -12 -27 -15 -45 -11 -29 7 -48 44 -33 64 13 15 10 15 58 -4z
m2460 -43 c0 -38 -20 -68 -38 -57 -5 3 -2 28 6 55 18 57 32 58 32 2z m130 -4
c0 -12 -6 -17 -17 -15 -20 4 -28 30 -18 56 6 16 8 15 21 -2 8 -11 14 -28 14
-39z m-652 -55 c-18 -34 -36 -62 -40 -62 -16 0 -7 41 17 76 14 20 25 46 25 58
0 18 1 19 16 5 14 -14 12 -22 -18 -77z m836 10 c8 -25 -18 -97 -35 -97 -19 0
-24 50 -9 86 14 33 36 38 44 11z m1816 -39 c-1 -40 -115 -71 -158 -44 -15 9
-1 24 39 40 29 12 119 14 119 4z m-1650 -75 c0 -50 -44 -258 -61 -288 -12 -21
-11 129 1 213 19 129 60 180 60 75z m-975 -8 c7 -32 -1 -54 -16 -45 -12 8 -12
75 0 75 5 0 12 -13 16 -30z m829 -16 c20 -8 39 -77 31 -115 -10 -44 -25 -35
-25 16 0 43 -1 45 -25 39 -28 -7 -34 11 -15 47 12 21 12 21 34 13z m1986 -56
c23 -9 23 -10 7 -19 -21 -12 -192 -15 -226 -4 -23 7 -23 8 -5 18 42 25 164 27
224 5z m-1652 -165 l-3 -128 -19 40 c-15 33 -18 54 -12 126 3 48 9 94 12 104
16 40 25 -18 22 -142z m1662 87 c21 -13 12 -17 -66 -23 -77 -6 -110 3 -78 22
23 13 124 14 144 1z m26 -81 c54 -11 100 -22 102 -24 8 -8 -76 -20 -129 -18
-69 2 -142 20 -133 34 5 9 39 27 55 28 3 1 50 -8 105 -20z m108 -91 c72 -20
78 -23 51 -29 -16 -4 -70 -7 -119 -8 -70 -1 -93 3 -108 16 -10 9 -18 22 -18
30 0 21 102 16 194 -9z m94 -91 c121 -23 42 -34 -148 -20 -81 5 -90 8 -75 20
23 16 136 16 223 0z m62 -85 c24 -9 24 -10 -15 -21 -67 -20 -171 -25 -205 -11
-31 13 -40 34 -17 44 18 9 208 -1 237 -12z m-1566 -91 c58 -29 157 -102 164
-122 9 -24 -50 -5 -99 32 -64 48 -108 69 -146 69 -27 -1 -27 -1 -8 -16 11 -8
67 -43 124 -77 121 -72 200 -151 225 -223 l16 -47 -118 115 c-125 123 -220
192 -333 244 -42 19 -66 35 -59 39 54 33 150 28 234 -14z m1535 20 c47 -10 80
-21 73 -25 -28 -17 -123 -27 -162 -16 -44 12 -62 36 -39 51 19 12 30 11 128
-10z m106 -91 c66 -20 85 -30 72 -35 -36 -15 -267 16 -267 35 0 12 44 29 75
29 17 0 71 -13 120 -29z m85 -86 c59 -17 57 -34 -3 -34 -53 0 -207 30 -207 41
0 22 125 18 210 -7z m-73 -59 c19 -8 49 -15 65 -15 35 0 34 -21 -3 -33 -17 -6
-41 -2 -82 13 -48 18 -56 24 -46 36 14 18 21 18 66 -1z m-2158 -51 c28 -25 48
-56 67 -107 33 -86 32 -83 46 -69 17 17 -5 82 -48 138 -39 50 -37 67 4 44 45
-26 90 -95 104 -160 12 -62 28 -63 28 -2 0 41 -29 100 -70 141 -27 26 -29 32
-15 37 32 13 65 -15 95 -78 17 -35 33 -78 36 -96 4 -18 11 -31 18 -29 23 8 16
48 -19 111 -21 38 -35 75 -33 88 4 22 5 21 40 -14 23 -24 48 -68 70 -124 18
-47 38 -86 43 -85 22 1 14 43 -19 110 -35 68 -44 101 -28 101 12 -1 57 -71 85
-132 30 -67 53 -78 42 -21 -8 45 -29 87 -56 114 -19 19 -19 19 2 19 59 0 101
-103 114 -280 3 -47 8 -95 11 -107 6 -33 -19 -29 -49 7 -14 16 -31 52 -38 80
-7 27 -16 50 -21 50 -14 0 -8 -54 12 -108 24 -64 27 -132 5 -132 -24 0 -50 53
-68 138 -25 113 -60 153 -59 65 0 -21 12 -63 26 -94 53 -115 58 -232 7 -160
-30 42 -47 85 -72 185 -12 47 -25 86 -30 86 -19 0 -8 -92 21 -169 37 -102 49
-181 27 -181 -30 0 -64 57 -82 137 -22 104 -30 128 -41 126 -18 -4 -14 -40 20
-173 18 -74 32 -138 29 -142 -2 -5 -17 -1 -33 7 -37 19 -65 82 -80 175 -14 90
-28 140 -41 140 -15 0 -10 -92 11 -195 23 -112 25 -152 8 -192 -6 -15 -14 -53
-17 -83 -11 -100 -26 -55 -28 82 -1 94 -8 155 -21 208 l-20 75 -1 -95 c-1 -84
-16 -249 -51 -560 -14 -123 -13 -121 -39 -80 -29 46 -24 117 20 265 39 133 44
228 15 293 -10 23 -23 42 -28 42 -4 0 -8 -38 -8 -84 0 -175 -39 -436 -80 -530
-19 -46 -19 -46 1 -81 28 -47 28 -156 0 -262 -11 -43 -22 -91 -23 -107 -2 -16
-9 -31 -15 -34 -18 -5 -16 41 2 102 17 56 19 114 5 136 -14 22 -19 10 -41 -96
-10 -54 -22 -100 -24 -103 -3 -2 -5 30 -5 71 0 54 -4 79 -15 88 -18 15 -8 36
45 98 55 62 61 109 10 82 -33 -18 -58 -82 -85 -217 -28 -141 -42 -193 -57
-208 -21 -20 2 148 41 303 42 167 66 303 59 343 -4 23 -5 22 -20 -11 -9 -19
-19 -56 -22 -82 -4 -26 -16 -58 -28 -73 -18 -23 -19 -30 -8 -56 16 -36 8 -85
-30 -206 -31 -97 -51 -201 -42 -218 2 -5 -1 -5 -8 2 -26 24 -24 115 4 233 15
61 26 116 24 122 -6 17 -35 -34 -68 -118 -27 -66 -29 -81 -20 -105 9 -21 9
-42 0 -86 -12 -57 -35 -113 -47 -113 -3 0 -3 32 -1 71 l5 70 -27 -48 c-34 -58
-70 -95 -70 -70 0 9 9 41 21 72 12 31 18 59 14 63 -11 12 -40 -15 -49 -47 -5
-17 -15 -31 -22 -31 -18 0 -18 14 2 52 10 19 12 34 6 40 -15 15 -52 -40 -52
-78 0 -37 -10 -42 -34 -18 -24 23 -20 36 29 100 25 31 45 62 45 68 0 6 9 -4
20 -21 11 -18 26 -33 33 -33 25 0 80 44 98 80 20 36 27 146 10 135 -5 -3 -24
-48 -41 -101 -29 -87 -34 -95 -48 -80 -14 14 -14 20 1 69 22 68 23 135 3 118
-7 -6 -16 -30 -20 -52 -5 -31 -10 -40 -24 -37 -23 4 -40 54 -26 76 21 34 93
64 167 71 l72 6 27 81 c43 127 83 375 59 359 -16 -10 -40 -97 -56 -205 -19
-125 -30 -169 -49 -195 -12 -16 -17 -17 -27 -8 -10 10 -9 20 4 48 18 38 23
100 8 91 -5 -4 -21 -38 -36 -76 -28 -74 -39 -84 -49 -47 -12 44 -6 109 15 158
22 50 35 60 45 34 4 -8 10 -15 14 -15 10 0 13 9 35 111 9 47 29 99 50 134 19
32 35 59 35 61 0 2 -8 4 -17 4 -22 -1 -46 -18 -61 -45 -10 -19 -11 -19 -18 -1
-11 27 17 68 64 92 42 22 45 34 7 34 -27 0 -63 -39 -104 -112 -32 -57 -63 -88
-88 -88 -8 0 -7 9 5 29 21 37 13 45 -32 33 -52 -15 -48 11 6 39 24 12 48 29
55 38 6 9 15 13 19 9 4 -4 1 -14 -6 -23 -9 -10 -9 -15 -1 -15 6 0 24 19 39 41
49 75 87 109 121 109 17 0 31 5 31 10 0 14 -53 13 -67 -1 -8 -8 -13 -5 -18 12
-13 40 60 79 147 79 41 0 56 14 38 35 -18 21 -63 18 -94 -6 -27 -21 -46 -18
-46 6 0 22 30 33 116 44 95 12 114 18 108 36 -10 25 -37 26 -100 3 -67 -24
-88 -20 -59 12 34 38 145 54 239 35 l31 -7 -27 28 c-38 39 -121 45 -213 14
-76 -25 -124 -63 -162 -127 -30 -51 -63 -153 -63 -193 0 -47 -88 -113 -168
-126 -44 -7 -112 2 -112 15 0 4 23 18 52 32 28 13 68 36 89 51 40 29 93 95 68
86 -69 -26 -75 -17 -28 37 36 40 34 50 -5 36 -37 -15 -35 10 4 43 30 25 109
44 129 31 6 -3 11 -2 11 4 0 17 -36 31 -76 28 -34 -2 -39 1 -42 21 -3 19 1 22
31 22 18 0 55 -7 81 -16 51 -17 66 -13 50 14 -17 28 -76 52 -126 52 -38 0 -48
4 -48 16 0 14 8 16 56 11 31 -3 73 -14 95 -25 37 -18 39 -18 39 -2 0 12 -15
24 -41 34 -34 14 -39 19 -29 31 19 23 31 19 77 -27 35 -35 43 -39 43 -22 0 32
-28 63 -81 90 -46 23 -57 44 -23 44 26 0 91 -38 113 -66 17 -21 24 -25 34 -15
16 16 1 38 -51 76 -40 29 -60 55 -43 55 5 0 36 -20 70 -45 34 -25 61 -42 61
-39 0 22 -36 73 -65 93 -32 21 -38 41 -14 41 5 0 43 -31 85 -70 41 -38 82 -70
90 -70 8 0 25 7 38 16 33 21 23 54 -38 128 -25 31 -46 59 -46 62 0 3 17 -4 38
-17 57 -34 122 -100 142 -144 l19 -40 0 36 c1 41 -38 103 -88 138 -36 26 -32
41 8 41 40 0 73 -30 110 -100 18 -33 37 -58 42 -55 17 11 9 42 -21 81 -17 21
-44 57 -60 78 -17 21 -30 43 -30 48 0 20 43 5 79 -28z m580 -38 c40 -43 63
-122 67 -236 4 -100 3 -103 -11 -72 -8 18 -20 67 -26 110 -13 103 -26 140 -61
185 -25 32 -27 37 -10 37 10 0 28 -11 41 -24z m-46 -37 c16 -34 57 -221 57
-263 0 -19 0 -19 -21 0 -33 30 -39 48 -45 136 -5 79 -26 148 -45 148 -5 0 -9
5 -9 11 0 26 46 2 63 -32z m1797 31 c0 -16 -43 -29 -63 -18 -10 5 -15 13 -12
19 8 12 75 12 75 -1z m-2553 -76 c35 -37 63 -71 63 -76 0 -15 -30 -21 -54 -10
-26 12 -128 137 -119 146 19 19 53 0 110 -60z m921 -37 c11 -23 25 -78 31
-122 6 -44 14 -95 17 -113 3 -23 2 -32 -5 -27 -24 14 -41 68 -56 167 -8 57
-18 114 -21 127 -11 38 11 17 34 -32z m1142 -62 c0 -20 -5 -25 -25 -25 -18 0
-25 5 -25 18 0 24 8 32 32 32 13 0 18 -7 18 -25z m242 -72 c56 -59 71 -96 66
-169 -2 -35 -7 -67 -11 -71 -14 -13 -41 12 -63 58 -12 24 -27 50 -34 57 -13
14 -7 42 10 42 5 0 21 -18 35 -40 14 -22 30 -40 35 -40 13 0 13 1 -9 51 -27
60 -58 91 -82 84 -20 -7 -27 9 -9 20 6 3 10 15 10 26 0 28 11 24 52 -18z
m-182 2 c15 -18 9 -50 -10 -50 -10 0 -16 12 -18 33 -3 34 8 41 28 17z m-2555
-105 c4 -6 -7 -26 -24 -46 -17 -19 -31 -42 -31 -52 -1 -15 -2 -15 -15 2 -18
23 -11 52 18 84 22 24 42 28 52 12z m1271 -153 c8 -65 -3 -73 -35 -28 -21 29
-30 119 -14 135 13 13 42 -51 49 -107z m-98 50 c22 -21 29 -51 13 -61 -16 -10
-51 28 -58 63 -7 37 1 37 45 -2z m1402 -43 c0 -13 -4 -24 -9 -24 -18 0 -41 32
-41 56 0 24 1 24 25 8 15 -10 25 -26 25 -40z m-1171 -6 c4 -13 11 -44 15 -70
6 -38 4 -48 -7 -48 -28 0 -38 26 -31 84 4 31 8 56 11 56 2 0 7 -10 12 -22z
m1280 -19 c18 -25 21 -33 10 -39 -7 -5 -21 -4 -30 1 -28 14 -32 11 -27 -21 3
-16 3 -30 2 -30 -29 0 -48 50 -24 65 6 3 10 17 10 31 0 35 31 31 59 -7z m-181
-72 c34 -45 122 -189 122 -199 0 -2 -14 -3 -30 -4 -30 -1 -34 3 -30 43 2 36
-9 47 -30 28 -10 -9 -24 -14 -29 -10 -21 12 -82 116 -75 127 4 6 19 -10 35
-35 28 -46 46 -63 55 -54 12 11 -50 119 -82 145 -42 33 -44 48 -4 27 16 -8 47
-39 68 -68z m-1547 -79 c24 -8 -3 -28 -37 -28 -33 0 -34 1 -34 41 l0 41 30
-25 c16 -14 35 -27 41 -29z m1787 -3 c20 -14 47 -25 59 -25 12 0 25 -4 28 -10
8 -13 -39 -13 -83 -1 -51 15 -39 -7 20 -34 29 -13 76 -27 105 -31 79 -10 75
-24 -7 -24 -59 0 -77 4 -110 26 -46 31 -70 64 -70 99 0 31 11 32 58 0z m-1958
-90 c0 -29 -3 -80 -7 -115 -6 -58 -7 -61 -19 -39 -15 27 -17 72 -7 173 5 61 8
67 20 51 7 -11 13 -42 13 -70z m63 63 c15 -23 -9 -53 -29 -37 -20 17 -18 61 2
57 9 -2 22 -10 27 -20z m197 -23 c0 -20 -5 -25 -25 -25 -20 0 -25 5 -25 25 0
20 5 25 25 25 20 0 25 -5 25 -25z m1469 -92 c17 -34 14 -36 -21 -12 -47 32
-68 60 -68 91 0 27 0 27 39 -15 21 -23 43 -52 50 -64z m-1417 70 c10 -9 18
-25 18 -36 0 -19 -1 -19 -19 -3 -19 17 -35 56 -23 56 3 0 14 -7 24 -17z m114
-102 c-9 -104 -18 -125 -36 -82 -22 53 4 192 32 175 7 -5 8 -35 4 -93z m62
-41 c-2 -19 -7 -35 -13 -35 -14 0 -18 40 -10 84 7 35 8 35 17 11 5 -13 8 -40
6 -60z m-152 5 c8 -46 -3 -138 -21 -161 -13 -18 -14 -17 -26 9 -10 22 -9 37 4
87 10 33 17 71 17 85 0 36 18 22 26 -20z m1105 15 c12 -7 19 -21 19 -42 0 -17
5 -59 11 -93 9 -47 9 -70 0 -95 -10 -29 -9 -35 9 -47 24 -17 40 -72 40 -140 0
-55 -10 -72 -29 -49 -7 8 -32 24 -57 35 -34 16 -50 32 -67 67 l-22 46 27 23
c15 13 31 24 37 26 7 3 3 32 -9 83 -11 44 -18 82 -14 85 10 10 34 -32 41 -71
3 -21 9 -38 14 -38 18 0 20 49 5 79 -9 17 -18 48 -20 69 -2 20 -7 45 -11 55
-8 20 -2 21 26 7z m209 -62 c6 -21 18 -42 26 -45 20 -8 17 -23 -5 -23 -28 0
-61 47 -61 86 0 46 26 35 40 -18z m-1400 12 c0 -35 -14 -39 -30 -10 -12 23 -6
40 16 40 9 0 14 -11 14 -30z m-301 -29 c17 -50 13 -115 -13 -221 -22 -88 -24
-93 -30 -60 -4 20 0 87 9 155 9 65 14 133 11 149 -8 38 7 23 23 -23z m-81 -76
c5 -72 -4 -135 -18 -135 -6 0 -10 48 -10 112 0 87 3 109 12 100 7 -7 14 -41
16 -77z m297 75 c10 -16 -5 -50 -21 -50 -9 0 -14 11 -14 30 0 30 21 42 35 20z
m1400 -72 c14 -29 25 -60 25 -69 0 -25 23 -50 38 -40 11 6 9 16 -8 50 -13 24
-19 48 -15 59 5 14 11 9 28 -23 11 -22 30 -64 42 -93 18 -42 24 -50 34 -39 9
11 7 24 -9 58 -20 45 -26 79 -12 79 13 0 61 -84 86 -151 26 -68 66 -227 66
-260 0 -28 19 -23 26 7 10 40 -2 127 -25 178 -19 44 -19 46 -2 46 29 0 49 -40
80 -160 15 -61 31 -113 34 -116 3 -4 9 6 13 20 4 17 -4 66 -21 130 -15 57 -25
110 -22 117 9 25 67 -120 99 -247 18 -73 35 -121 41 -117 17 11 0 125 -32 203
-35 86 -37 100 -16 100 26 0 45 -45 70 -162 27 -128 33 -148 46 -148 17 0 9
65 -21 175 -35 128 -35 132 -14 114 25 -20 40 -58 59 -144 31 -140 68 -184
157 -185 31 -1 35 -5 69 -73 23 -45 42 -71 50 -68 8 2 26 6 42 9 24 4 27 1 27
-22 0 -24 -2 -26 -21 -16 -17 10 -21 8 -26 -9 -7 -27 -11 -26 -40 5 -18 20
-27 24 -36 15 -8 -8 -5 -19 11 -41 27 -36 27 -40 1 -40 -26 0 -56 65 -65 144
-8 67 -27 71 -32 6 -4 -50 19 -119 48 -145 25 -23 25 -35 1 -35 -27 0 -48 38
-72 132 -25 95 -35 112 -45 74 -5 -23 -1 -139 8 -191 5 -32 -25 -24 -43 13
-14 28 -18 30 -29 17 -11 -13 -8 -23 19 -62 20 -28 30 -52 26 -62 -5 -12 -11
-8 -26 21 -23 45 -39 56 -39 28 0 -31 24 -82 50 -105 16 -14 34 -19 67 -18 51
2 62 8 45 25 -15 15 -16 58 -2 58 6 0 28 -12 50 -26 45 -30 70 -28 86 5 11 22
12 22 18 3 4 -11 27 -55 51 -97 24 -43 42 -82 39 -86 -13 -21 -50 12 -69 61
-24 63 -52 83 -41 29 3 -18 14 -41 23 -51 9 -10 13 -21 9 -25 -12 -12 -59 20
-82 55 -15 22 -25 29 -30 21 -13 -22 -6 -96 14 -135 30 -59 63 -86 112 -93 3
-1 5 -12 5 -26 0 -34 -22 -32 -73 5 -50 36 -88 92 -97 142 -10 51 -25 38 -25
-20 0 -42 -1 -45 -16 -31 -8 9 -21 38 -28 65 l-13 49 -21 -35 c-12 -19 -22
-43 -22 -53 0 -26 27 -74 76 -137 45 -57 74 -116 74 -147 -1 -29 -50 33 -50
63 0 28 -12 31 -34 8 -21 -21 -20 -30 5 -48 15 -10 19 -20 15 -32 -6 -16 -12
-13 -42 20 -24 27 -41 37 -54 33 -18 -5 -20 0 -20 46 0 48 -13 149 -25 205 -5
19 -2 22 18 17 20 -5 24 -1 38 44 l15 51 -38 47 c-22 26 -44 56 -50 67 -11 20
-11 20 -20 -4 -19 -50 -21 -202 -4 -293 17 -90 64 -233 97 -300 l20 -38 -24 7
c-24 6 -25 5 -14 -42 10 -44 9 -48 -13 -66 l-24 -20 36 7 c34 6 38 4 52 -24
17 -32 22 -101 7 -101 -12 0 -21 25 -21 57 0 22 -2 24 -16 13 -12 -11 -14 -25
-8 -67 5 -45 4 -53 -10 -53 -8 0 -18 10 -20 23 -14 70 -17 77 -28 71 -6 -4 -8
-25 -4 -58 4 -39 2 -58 -11 -75 -15 -22 -17 -23 -29 -6 -8 11 -11 35 -8 69 5
48 4 50 -10 32 -11 -13 -16 -40 -16 -82 0 -67 -17 -97 -39 -70 -9 11 -9 23 4
51 8 21 15 49 15 63 0 24 -1 24 -19 8 -24 -22 -41 -13 -41 20 0 26 -1 27 -23
18 -11 -4 -14 -16 -10 -43 4 -26 0 -41 -11 -50 -20 -17 -36 -6 -37 27 l-1 27
-10 -28 c-10 -28 -10 -28 -25 -8 -20 30 -33 26 -33 -9 0 -16 -4 -30 -9 -30
-10 0 -21 35 -21 71 0 23 5 28 36 34 46 8 81 43 89 89 6 29 12 36 30 36 12 0
42 16 66 35 24 19 58 38 76 41 l32 6 -5 71 c-7 92 -23 177 -34 177 -4 0 -11
-28 -15 -62 -7 -61 -7 -61 -25 -38 -32 42 -43 17 -37 -81 6 -90 -3 -117 -24
-78 -8 15 -9 48 -4 102 5 64 4 78 -7 75 -9 -3 -15 -34 -18 -104 -5 -97 -8
-100 -31 -39 l-11 30 -22 -65 c-26 -81 -53 -127 -88 -153 l-28 -21 -30 23
c-17 12 -35 19 -40 16 -14 -9 -12 -41 3 -57 17 -17 10 -38 -12 -38 -21 0 -43
43 -34 67 4 11 3 14 -5 9 -20 -12 -25 -73 -9 -105 12 -25 13 -32 2 -41 -17
-14 -24 -2 -39 63 -6 28 -16 52 -22 54 -23 8 -22 -28 1 -82 14 -31 25 -64 25
-75 0 -17 -3 -18 -19 -8 -26 16 -48 55 -56 101 -4 20 -11 37 -16 37 -17 0 -19
-20 -6 -47 8 -15 18 -38 21 -50 12 -38 -22 -28 -47 15 -20 33 -22 35 -25 15
-4 -25 -30 -31 -38 -9 -3 8 2 28 11 45 12 25 13 31 2 31 -17 0 -37 -42 -37
-75 0 -13 -5 -27 -10 -30 -7 -4 -10 16 -8 58 l3 65 65 31 c36 17 108 46 160
65 52 18 104 37 115 41 16 7 18 6 8 -6 -15 -15 -17 -55 -4 -64 10 -5 19 3 46
40 14 19 14 19 15 -7 0 -30 20 -38 37 -15 14 17 25 81 17 101 -6 15 -7 15 -19
0 -10 -15 -17 -15 -63 -4 -40 11 -57 11 -77 2 -31 -14 -55 -2 -77 37 -18 31
-30 101 -18 101 5 0 23 -20 40 -45 29 -42 60 -59 60 -33 0 6 -12 31 -26 55
-14 24 -24 54 -22 66 3 22 4 21 30 -7 15 -16 30 -44 34 -62 3 -19 10 -34 15
-34 19 0 21 31 5 70 -9 22 -16 54 -16 71 0 26 2 30 15 19 8 -6 31 -41 52 -76
20 -35 40 -64 44 -64 19 0 16 20 -6 53 -41 60 -28 99 21 62 10 -8 22 -15 27
-15 12 0 8 35 -8 56 -8 10 -15 32 -15 49 l0 29 38 -37 c60 -59 82 -47 37 19
-23 34 -32 64 -19 64 3 0 14 -5 25 -10 16 -9 19 -7 19 9 0 11 -5 32 -10 47
-12 30 -6 44 12 26 13 -13 48 -16 48 -4 0 4 -9 21 -20 37 -25 38 -25 49 0 42
24 -6 24 -10 5 44 -23 63 -4 194 19 134 3 -8 10 -15 16 -15 15 0 12 53 -6 95
-9 21 -14 49 -11 62 3 17 -2 27 -17 35 -11 6 -46 34 -76 63 -30 28 -68 60 -83
70 -24 15 -26 20 -13 27 38 22 102 -27 133 -101 10 -24 18 -30 25 -23 16 16 2
57 -32 90 -23 23 -26 31 -15 36 23 8 69 -37 105 -105 30 -56 34 -60 41 -41 12
31 3 49 -54 112 -28 30 -59 70 -70 88 -18 30 -23 32 -71 32 -68 0 -147 24
-186 57 -33 27 -77 103 -60 103 6 0 38 -28 72 -62 34 -35 63 -58 65 -51 9 27
-90 182 -178 278 -31 33 -36 44 -24 49 24 9 18 59 -15 121 -28 54 -31 75 -9
75 5 0 21 -24 34 -52z m662 21 c25 -9 26 -12 10 -20 -42 -24 -139 -6 -121 22
7 12 77 11 111 -2z m-373 -41 c26 -37 20 -55 -9 -28 -25 24 -33 50 -16 50 6 0
17 -10 25 -22z m-44 -88 c0 -35 -10 -38 -28 -10 -14 23 -8 40 14 40 9 0 14
-11 14 -30z m96 -15 c20 -31 15 -51 -8 -33 -20 16 -34 58 -19 58 6 0 18 -11
27 -25z m201 -2 c11 -23 10 -30 -13 -60 -27 -35 -51 -43 -60 -18 -4 9 6 25 25
41 22 19 30 32 26 45 -9 29 8 23 22 -8z m-2840 -19 c3 -9 -2 -31 -11 -50 -9
-19 -16 -44 -16 -54 0 -28 -17 -25 -24 5 -9 34 13 115 31 115 7 0 16 -7 20
-16z m2991 -42 c57 -53 76 -82 53 -82 -4 0 -20 9 -35 21 -40 32 -31 8 15 -36
48 -47 87 -115 66 -115 -23 0 -96 69 -124 117 -26 44 -58 153 -45 153 4 0 35
-26 70 -58z m-3070 -58 c-2 -21 -9 -30 -25 -32 -18 -3 -23 1 -23 19 0 28 30
63 43 50 5 -5 7 -21 5 -37z m655 -12 c14 -24 20 -54 21 -107 1 -97 -16 -97
-30 0 -6 41 -14 78 -18 82 -10 10 -26 -18 -26 -47 0 -14 -4 -32 -10 -40 -13
-20 -18 -2 -22 83 l-4 68 35 -3 c28 -2 39 -10 54 -36z m2661 -38 c36 -33 43
-43 30 -48 -19 -7 -29 -2 -88 51 -26 23 -45 47 -41 53 8 14 40 -4 99 -56z
m-3399 11 c31 -30 32 -75 5 -145 -22 -55 -13 -65 19 -22 l20 27 1 -36 c0 -42
-32 -89 -61 -89 -29 0 -33 23 -21 124 7 55 8 106 3 129 -10 44 0 47 34 12z
m-628 0 c57 -17 113 -70 113 -107 0 -26 -16 -13 -22 17 -3 16 -11 10 -42 -32
-21 -29 -42 -53 -47 -53 -16 0 -9 34 11 60 11 14 20 29 20 34 0 17 -39 -26
-65 -70 -51 -86 -62 -38 -14 57 17 34 28 63 26 65 -12 13 -41 -14 -64 -60 -27
-54 -51 -86 -65 -86 -15 0 -8 30 16 68 31 49 43 87 25 77 -30 -17 -59 -49 -59
-66 0 -10 -4 -20 -9 -23 -10 -7 -21 17 -21 45 0 38 -37 13 -66 -44 -26 -51
-36 -60 -45 -45 -15 23 -10 65 12 92 26 33 69 56 134 72 68 17 103 17 162 -1z
m-297 -18 c0 -13 -7 -32 -15 -43 -8 -10 -15 -27 -15 -36 0 -25 -14 -22 -33 5
l-16 22 0 -22 c-2 -47 -46 -20 -57 34 -8 41 23 63 88 63 43 0 48 -2 48 -23z
m834 6 c30 -103 50 -390 29 -428 -9 -15 -11 -15 -22 -1 -20 24 -28 20 -42 -21
-17 -54 -21 -58 -36 -38 -32 45 -5 131 56 176 24 17 28 26 21 40 -6 10 -10 55
-10 101 -1 46 -7 96 -14 113 l-13 30 -8 -30 c-14 -60 -15 -62 -29 -42 -7 9
-16 17 -19 17 -13 0 -37 -146 -37 -227 -1 -171 -38 -315 -90 -343 -35 -19 -34
-5 5 58 20 33 39 79 42 103 8 54 -8 46 -43 -22 -22 -44 -65 -81 -79 -67 -3 3
7 26 21 52 14 26 24 49 21 52 -7 7 -37 -25 -37 -40 0 -7 -11 -23 -25 -36 -29
-27 -31 -19 -10 40 8 23 15 47 15 52 0 20 -23 -7 -42 -48 -10 -24 -23 -44 -28
-44 -24 0 -18 29 26 121 45 98 72 209 44 182 -7 -7 -16 -29 -19 -50 -6 -36 -8
-38 -41 -35 -19 2 -37 6 -40 9 -8 8 -6 171 2 179 5 4 18 -1 29 -12 l22 -19 -7
48 c-6 40 -4 51 15 75 l21 27 -7 -25 c-4 -14 -10 -31 -12 -37 -9 -24 17 -13
39 17 31 42 39 37 24 -15 -8 -25 -10 -45 -6 -45 13 0 50 50 56 77 7 28 34 31
34 3 0 -25 5 -25 39 -1 26 18 127 68 143 70 4 1 9 -7 12 -16z m992 -50 c17
-40 19 -107 3 -97 -16 9 -45 81 -54 129 l-7 40 22 -20 c13 -11 29 -34 36 -52z
m1158 3 c34 -14 76 -59 76 -82 0 -9 -12 -6 -37 11 -71 46 -83 56 -83 70 0 18
3 18 44 1z m-3215 -31 c-22 -22 -79 -37 -79 -21 0 22 23 36 59 36 32 0 34 -2
20 -15z m4579 -5 c12 -12 22 -27 22 -36 0 -13 4 -13 30 1 44 23 94 19 127 -9
15 -13 26 -26 23 -29 -13 -11 -227 20 -252 36 -27 19 -41 41 -31 51 14 13 61
5 81 -14z m-2585 -31 c6 -47 0 -72 -17 -66 -15 5 -19 32 -11 73 8 46 21 43 28
-7z m1373 -14 c11 -17 22 -24 34 -20 36 12 73 -82 50 -125 -18 -34 -33 -10
-29 49 4 50 -3 66 -15 35 -3 -9 -6 -48 -6 -89 0 -52 -4 -76 -15 -85 -22 -18
-29 9 -21 85 7 66 -4 111 -30 131 -14 12 -10 44 7 44 5 0 16 -11 25 -25z m993
6 l74 -17 -28 -20 -27 -20 21 -42 c15 -29 18 -42 9 -42 -17 0 -149 141 -142
152 7 10 5 10 93 -11z m-74 -65 c11 -22 26 -41 33 -44 14 -4 17 -32 3 -32 -33
0 -55 26 -81 96 -17 42 21 26 45 -20z m-608 -36 c15 -29 18 -120 4 -120 -5 0
-12 11 -15 25 -7 29 -26 24 -26 -6 0 -12 -5 -19 -12 -17 -9 3 -14 30 -16 77
l-3 72 28 -3 c17 -2 32 -12 40 -28z m983 0 c22 -11 68 -39 102 -61 l63 -41
-53 5 c-37 4 -77 20 -137 54 -46 26 -81 51 -79 55 9 15 65 8 104 -12z m220
-10 c18 -12 39 -38 46 -57 31 -72 -14 -66 -98 13 -31 30 -64 54 -72 54 -9 0
-16 5 -16 11 0 21 103 5 140 -21z m-4488 -1 c62 -14 112 -20 159 -17 80 4 89
-9 40 -57 -17 -15 -31 -36 -33 -46 -2 -13 -7 -16 -17 -10 -11 7 -10 15 9 46
26 42 22 53 -12 32 -12 -8 -39 -20 -60 -26 -26 -9 -41 -22 -53 -46 -9 -19 -22
-35 -30 -35 -12 0 -11 7 5 37 20 38 17 65 -5 41 -7 -7 -20 -36 -29 -65 -10
-28 -23 -56 -30 -62 -24 -20 -27 15 -6 82 27 84 25 99 -5 54 -28 -41 -45 -47
-45 -17 0 30 -29 24 -36 -7 -12 -57 -21 -77 -37 -87 -23 -15 -29 -4 -16 31 5
17 9 53 7 79 -2 39 -8 51 -26 60 l-24 12 29 10 c45 17 119 14 215 -9z m4117
10 c36 -13 40 -25 11 -34 -32 -10 -73 19 -53 38 8 9 4 9 42 -4z m91 -145 c0
-30 -16 -39 -29 -17 -9 16 -12 16 -20 3 -16 -23 -22 -6 -10 28 10 28 13 30 35
20 15 -7 24 -20 24 -34z m-3946 -50 c23 -9 20 -33 -9 -79 -13 -22 -25 -50 -25
-62 0 -16 -4 -21 -15 -17 -19 8 -19 33 0 58 8 11 15 31 15 44 0 41 -29 7 -71
-85 -21 -46 -43 -83 -49 -83 -14 0 -13 13 9 75 11 30 17 55 15 55 -2 0 -21
-11 -42 -24 -33 -22 -44 -24 -97 -18 l-60 7 45 36 c95 77 219 118 284 93z
m-634 -38 c0 -12 -7 -32 -16 -44 -31 -45 -54 -15 -30 42 16 40 46 41 46 2z
m4651 -57 c18 -35 -4 -39 -40 -7 -25 23 -30 32 -20 38 17 11 45 -4 60 -31z
m-70 -29 c22 -12 49 -61 49 -90 0 -36 -30 -22 -50 25 -11 25 -26 48 -35 51 -8
3 -12 10 -9 15 7 12 21 11 45 -1z m-11 -100 c25 -36 41 -118 20 -105 -13 8
-60 103 -60 123 0 21 18 13 40 -18z m-196 -376 c9 -8 16 -25 16 -36 0 -20 -1
-20 -19 -4 -21 19 -34 56 -21 56 5 0 16 -7 24 -16z m170 -168 c73 -77 75 -209
4 -247 -20 -11 -20 -10 2 21 22 30 22 33 7 63 -9 18 -30 50 -47 73 -19 24 -34
58 -37 83 -5 38 -4 41 17 41 13 0 36 -15 54 -34z m-97 -92 c3 -8 2 -43 -3 -77
-9 -58 -10 -60 -26 -43 -18 17 -25 87 -12 120 8 21 33 21 41 0z m-834 -48 c14
-25 21 -49 17 -56 -11 -18 -27 -4 -40 35 -6 19 -16 35 -20 35 -5 0 -7 7 -4 15
10 24 21 18 47 -29z m731 22 c24 -37 31 -78 13 -78 -16 0 -59 78 -51 92 9 14
23 9 38 -14z m-854 -40 c23 -39 25 -58 6 -58 -13 0 -36 48 -36 76 0 22 9 16
30 -18z m-59 -16 c4 -19 12 -39 18 -45 17 -17 13 -27 -8 -27 -11 0 -23 9 -26
21 -6 19 -8 19 -25 4 -17 -15 -19 -15 -33 5 l-15 22 -11 -21 c-17 -31 -34 -26
-27 7 10 40 52 74 89 70 27 -3 32 -8 38 -36z m357 -374 c16 -16 15 -53 -3 -68
-22 -18 -35 -3 -35 41 0 40 14 51 38 27z"/>
<path d="M9975 12779 c-4 -5 0 -18 9 -28 9 -10 16 -25 16 -35 0 -25 19 -56 34
-56 7 0 16 14 20 31 9 48 7 55 -9 33 -14 -18 -14 -17 -15 12 0 44 -37 73 -55
43z"/>
<path d="M10610 12565 c0 -22 39 -95 50 -95 20 0 10 66 -13 88 -27 26 -37 28
-37 7z"/>
<path d="M10470 12310 c0 -18 -7 -57 -17 -86 -14 -45 -14 -55 -3 -69 12 -15
15 -11 27 32 16 62 19 131 4 146 -8 8 -11 2 -11 -23z"/>
<path d="M10153 11273 c-26 -40 -25 -164 2 -218 16 -31 26 -41 50 -43 l30 -4
-22 21 c-32 30 -37 60 -30 167 7 101 -1 121 -30 77z"/>
<path d="M10221 11231 c-16 -29 -13 -96 6 -139 l16 -37 7 30 c22 91 0 201 -29
146z"/>
<path d="M10511 11133 c1 -101 40 -173 47 -88 3 37 -22 130 -39 140 -5 4 -9
-19 -8 -52z"/>
<path d="M9075 9820 c-4 -18 -33 -57 -71 -96 -35 -37 -64 -70 -64 -75 0 -15
61 20 98 55 42 39 62 76 62 116 0 39 -16 39 -25 0z"/>
<path d="M8867 9796 c-10 -14 -34 -34 -55 -45 -41 -21 -69 -48 -59 -57 3 -3
30 5 61 19 60 28 93 66 78 92 -7 14 -11 13 -25 -9z"/>
<path d="M11167 9420 c-62 -73 -108 -210 -88 -261 10 -24 10 -24 10 6 1 16 26
80 57 141 61 122 70 173 21 114z"/>
<path d="M11495 9369 c-37 -9 -85 -43 -85 -60 0 -5 41 6 90 23 50 17 90 35 90
40 0 10 -43 9 -95 -3z"/>
<path d="M11260 9223 c-28 -64 -34 -95 -38 -170 -4 -87 -3 -93 15 -93 11 0 30
-11 43 -25 31 -33 40 -32 40 6 0 16 14 65 31 109 25 62 29 84 22 106 -19 58
-41 32 -58 -71 -4 -21 -14 -53 -23 -70 l-15 -30 -8 30 c-9 30 -2 83 24 202 21
93 4 96 -33 6z"/>
<path d="M11875 9167 c-44 -10 -96 -23 -115 -28 -20 -5 -44 -16 -55 -24 -18
-15 -12 -16 83 -11 117 6 175 26 180 64 2 12 0 21 -5 21 -4 -1 -44 -11 -88
-22z"/>
<path d="M11419 9083 c-52 -136 -59 -184 -33 -221 24 -35 34 -26 34 32 0 30 9
84 21 121 20 66 20 95 -1 95 -6 0 -15 -12 -21 -27z"/>
<path d="M10970 9056 c-20 -55 -1 -161 39 -214 17 -23 17 -21 13 45 -4 87 -19
174 -32 187 -6 6 -13 -1 -20 -18z"/>
<path d="M11508 8990 c-56 -94 -67 -136 -47 -187 11 -27 13 -23 45 77 19 58
33 116 32 130 -3 23 -5 21 -30 -20z"/>
<path d="M11574 8899 c-28 -35 -44 -82 -44 -129 0 -53 5 -58 35 -36 20 15 33
90 25 145 -4 27 -7 31 -16 20z"/>
<path d="M11308 8845 c-14 -22 -20 -89 -13 -149 7 -68 24 -104 44 -92 9 6 9
11 0 22 -7 9 -12 42 -11 82 2 74 -10 153 -20 137z"/>
<path d="M11656 8787 c-39 -70 -45 -111 -19 -126 15 -8 21 1 45 62 48 124 31
166 -26 64z"/>
<path d="M11388 8743 c-6 -15 -11 -63 -12 -105 -1 -68 2 -80 22 -100 l23 -23
-12 34 c-9 25 -9 46 0 83 22 95 7 178 -21 111z"/>
<path d="M11475 8694 c-4 -16 -11 -45 -16 -64 -10 -40 -12 -131 -3 -154 4 -9
14 -21 24 -26 17 -9 17 -7 7 25 -7 26 -7 49 1 86 14 60 15 128 3 148 -8 12
-11 8 -16 -15z"/>
<path d="M11770 8689 c0 -36 14 -59 36 -59 16 0 1 57 -21 79 -13 14 -15 12
-15 -20z"/>
<path d="M12303 8667 c-8 -13 25 -37 51 -36 31 1 61 15 49 22 -23 14 -93 25
-100 14z"/>
<path d="M12015 8613 c-41 -10 -36 -22 11 -28 98 -14 187 -35 210 -50 33 -22
31 0 -4 35 -43 42 -140 61 -217 43z"/>
<path d="M12090 8523 c-8 -2 -22 -7 -30 -10 -8 -3 37 -20 100 -38 63 -19 116
-32 119 -30 2 3 -10 17 -27 33 -40 38 -119 60 -162 45z"/>
<path d="M12120 8410 c-41 -10 -31 -33 15 -36 22 -1 60 -10 84 -18 68 -25 111
-17 111 20 0 18 -165 45 -210 34z"/>
<path d="M11876 8325 c-59 -21 -108 -66 -143 -133 -30 -57 -52 -146 -40 -158
9 -9 33 8 142 102 109 93 122 121 42 90 -23 -9 -63 -36 -87 -61 -44 -44 -70
-57 -70 -33 0 7 25 35 56 63 31 27 77 69 102 92 26 23 45 44 42 46 -3 3 -22
-1 -44 -8z"/>
<path d="M12086 8301 c-7 -11 17 -21 52 -21 36 0 147 -34 178 -55 25 -16 25
-16 22 7 -2 14 -15 28 -33 37 -16 8 -34 20 -38 28 -9 15 -172 19 -181 4z"/>
<path d="M12142 8198 c6 -18 95 -47 147 -48 l44 0 -44 30 c-35 24 -55 30 -97
30 -39 0 -53 -4 -50 -12z"/>
<path d="M11843 8100 c-82 -57 -113 -92 -113 -129 0 -25 0 -25 30 11 16 20 51
48 77 63 63 36 93 64 93 87 0 25 -6 23 -87 -32z"/>
<path d="M12155 8090 c-3 -6 4 -10 17 -10 13 0 57 -16 97 -35 78 -35 91 -36
91 -6 0 39 -184 85 -205 51z"/>
<path d="M11844 8001 c-67 -39 -114 -93 -114 -132 0 -39 8 -36 61 30 59 72 86
91 136 94 43 2 58 19 27 31 -30 12 -59 6 -110 -23z"/>
<path d="M12139 8002 c12 -23 52 -38 131 -47 30 -4 64 -12 75 -18 19 -10 19
-9 4 14 -27 40 -75 61 -151 67 -68 5 -70 4 -59 -16z"/>
<path d="M11882 7920 c-84 -38 -152 -108 -168 -173 -6 -25 0 -22 52 30 33 32
85 71 118 88 32 16 72 40 89 52 l31 23 -40 0 c-21 0 -58 -9 -82 -20z"/>
<path d="M12170 7911 c0 -20 45 -44 138 -74 94 -30 101 -31 88 -12 -19 29 -73
63 -115 74 -59 15 -111 20 -111 12z"/>
<path d="M11838 7785 c-53 -28 -91 -73 -112 -133 -25 -71 20 -44 90 53 25 36
57 74 71 85 35 27 8 24 -49 -5z"/>
<path d="M11909 7711 c-29 -29 -38 -64 -19 -76 6 -3 10 -2 10 4 0 6 16 25 35
42 19 18 35 38 35 46 0 22 -30 14 -61 -16z"/>
<path d="M12180 7700 c-12 -8 -10 -10 10 -10 13 0 51 -16 83 -36 62 -38 90
-39 85 -2 -6 44 -132 78 -178 48z"/>
<path d="M12300 7556 c0 -19 53 -61 58 -46 6 16 -26 60 -43 60 -8 0 -15 -6
-15 -14z"/>
<path d="M10598 7394 c-7 -126 -26 -225 -45 -240 -17 -12 -16 -13 8 -14 50 0
58 23 55 153 -2 64 -6 120 -10 124 -3 3 -7 -7 -8 -23z"/>
<path d="M10500 7261 c0 -18 -8 -61 -17 -95 -16 -60 -14 -96 5 -96 14 0 43 80
49 135 4 42 2 53 -16 69 -21 19 -21 19 -21 -13z"/>
<path d="M10551 7027 c0 -29 -11 -83 -25 -120 -13 -38 -21 -78 -18 -89 5 -20
5 -20 20 -2 24 31 63 121 69 158 6 39 -11 92 -32 100 -10 4 -14 -8 -14 -47z"/>
<path d="M12331 6857 c-30 -33 -14 -76 17 -45 8 8 15 8 27 -2 13 -11 15 -7 15
29 0 33 -4 41 -18 41 -10 0 -28 -11 -41 -23z"/>
<path d="M12550 6882 c0 -34 29 -87 42 -74 12 12 4 39 -22 72 l-20 25 0 -23z"/>
<path d="M12650 6738 c1 -35 19 -68 39 -68 6 0 11 7 11 15 0 8 -4 15 -9 15 -5
0 -12 16 -15 35 -9 44 -26 46 -26 3z"/>
<path d="M9740 6534 c0 -66 -19 -129 -46 -155 -35 -33 -38 -19 -8 45 17 37 24
66 20 81 -7 29 -26 34 -26 8 0 -10 -15 -55 -34 -100 l-33 -83 63 0 c60 0 64 1
64 23 0 13 9 50 20 82 22 65 25 97 10 126 -18 32 -30 21 -30 -27z"/>
<path d="M11514 11586 c-11 -28 0 -91 16 -91 22 0 37 69 20 89 -16 20 -29 20
-36 2z"/>
<path d="M12990 10526 c0 -14 10 -32 23 -41 20 -14 22 -14 25 1 7 31 -8 64
-28 64 -15 0 -20 -7 -20 -24z"/>
</g>
</svg>
