<?xml version="1.0" standalone="no"?>
<!DOCTYPE svg PUBLIC "-//W3C//DTD SVG 20010904//EN"
 "http://www.w3.org/TR/2001/REC-SVG-20010904/DTD/svg10.dtd">
<svg version="1.0" xmlns="http://www.w3.org/2000/svg"
 width="1429.000000pt" height="1429.000000pt" viewBox="0 0 1429.000000 1429.000000"
 preserveAspectRatio="xMidYMid meet">

<g transform="translate(0.000000,1429.000000) scale(0.100000,-0.100000)"
fill="#000000" stroke="none">
<path d="M4472 13263 c-190 -228 -286 -522 -371 -1138 -24 -177 -35 -225 -66
-305 -37 -94 -38 -97 -40 -250 -1 -85 -5 -163 -10 -172 -4 -11 -18 -18 -35
-18 -26 0 -29 -4 -39 -52 -21 -109 -31 -177 -41 -303 -6 -71 -15 -163 -21
-203 -5 -40 -9 -104 -9 -142 0 -64 -2 -70 -20 -70 -30 0 -34 -22 -16 -98 16
-66 16 -70 -13 -247 -17 -99 -66 -358 -110 -575 -44 -217 -89 -453 -101 -525
-21 -135 -85 -673 -146 -1235 -20 -179 -37 -326 -39 -328 -4 -5 -199 42 -310
75 -95 27 -227 89 -283 131 l-33 25 -35 -34 c-19 -18 -47 -59 -62 -89 -25 -52
-27 -63 -26 -190 1 -166 7 -183 71 -199 26 -7 56 -19 65 -28 15 -14 26 -9 118
51 152 99 196 120 260 120 41 1 65 -5 93 -23 l38 -23 -84 -82 c-109 -104 -132
-146 -131 -246 1 -103 20 -145 73 -160 45 -12 97 -51 106 -80 4 -14 -8 -43
-39 -93 -129 -207 -207 -479 -192 -672 7 -81 42 -231 56 -240 9 -6 16 31 26
130 7 81 33 148 62 164 33 18 77 13 98 -10 15 -17 20 -40 22 -113 l4 -91 -44
-20 c-60 -28 -88 -84 -88 -180 l0 -71 45 -12 c25 -6 54 -21 65 -32 17 -17 18
-22 5 -47 -8 -15 -15 -44 -15 -64 0 -19 -5 -40 -11 -46 -8 -8 0 -19 31 -42 53
-38 102 -54 155 -49 38 3 42 6 70 63 40 82 117 158 180 180 28 9 57 20 66 23
15 6 14 17 -7 112 -32 138 -43 300 -22 300 25 0 66 -45 77 -86 6 -22 11 -69
11 -106 0 -36 3 -73 6 -82 10 -27 67 -19 173 24 111 45 170 51 214 21 l29 -18
-39 -7 c-41 -8 -83 -31 -83 -46 0 -14 31 -20 144 -29 120 -10 145 -19 95 -35
-44 -14 -45 -43 -2 -69 24 -14 65 -21 158 -27 128 -9 198 -24 215 -45 17 -21
-84 -58 -142 -53 -41 4 -46 3 -36 -9 19 -23 85 -53 130 -59 24 -3 87 1 140 10
54 9 121 16 150 16 53 0 138 -30 138 -48 0 -21 -86 -96 -137 -119 -49 -22 -65
-25 -139 -21 -46 2 -84 1 -84 -3 0 -5 21 -20 46 -35 38 -23 57 -27 122 -27 96
0 221 32 324 81 l78 38 6 -36 c15 -79 45 -139 91 -180 25 -22 49 -40 53 -40 4
0 10 22 12 49 7 68 37 121 82 144 25 13 43 17 51 11 231 -170 442 -263 869
-380 110 -30 201 -56 203 -57 1 -2 -24 -8 -55 -15 -52 -11 -102 -40 -102 -60
0 -4 30 -12 68 -18 37 -6 94 -22 128 -36 61 -25 204 -113 204 -127 0 -4 -57
-1 -127 6 -193 20 -460 19 -558 -1 -173 -37 -307 -133 -369 -263 l-29 -61 -76
-27 c-96 -35 -181 -88 -181 -114 0 -11 27 -73 60 -138 33 -64 60 -123 60 -129
0 -8 -36 -13 -107 -16 -234 -10 -343 -84 -331 -222 l3 -39 45 69 c49 75 97
114 141 114 16 0 29 -2 29 -4 0 -2 -14 -19 -32 -37 -42 -46 -68 -89 -68 -116
0 -30 6 -29 50 11 49 44 99 53 177 31 113 -32 227 -136 225 -206 -4 -134 -300
-284 -562 -283 -88 0 -101 3 -185 39 -84 36 -98 39 -208 43 -134 5 -251 -13
-382 -56 l-80 -27 -51 -90 c-29 -50 -67 -108 -86 -130 -33 -37 -36 -46 -42
-130 -7 -88 2 -145 22 -145 5 0 12 21 15 48 13 112 79 203 183 252 98 46 110
41 93 -38 -7 -33 -34 -87 -81 -158 -73 -112 -98 -167 -98 -213 0 -14 12 -62
26 -106 14 -44 29 -111 34 -150 9 -82 16 -102 39 -115 17 -9 85 16 78 29 -43
77 -54 150 -37 232 14 67 64 152 92 157 35 7 126 -28 157 -59 29 -28 30 -32
16 -52 -11 -16 -15 -52 -15 -149 l0 -128 -43 0 c-48 0 -67 -13 -67 -47 0 -27
0 -27 35 -9 24 12 33 12 85 -7 46 -17 64 -19 87 -11 27 9 28 12 25 65 -3 49 0
60 24 88 37 44 85 73 172 105 103 37 106 36 97 -22 -4 -26 -15 -72 -25 -102
-10 -30 -17 -56 -15 -58 10 -10 124 24 187 55 75 38 182 132 270 236 26 32 48
52 48 45 0 -8 -4 -18 -9 -24 -5 -5 -14 -26 -19 -46 -19 -71 1 -68 166 21 81
44 174 92 205 106 58 25 76 21 35 -8 -40 -28 9 -21 59 8 49 29 55 21 18 -24
-24 -27 -71 -48 -150 -66 -32 -7 -75 -41 -75 -60 0 -9 14 -10 51 -4 149 24
213 66 401 267 104 110 127 109 67 -2 -24 -45 -28 -61 -18 -72 16 -19 23 -12
69 66 23 39 43 70 45 70 3 0 5 -15 5 -34 0 -23 -11 -48 -36 -80 -20 -26 -34
-50 -31 -53 10 -9 134 86 181 138 55 61 81 132 73 200 -3 27 -20 92 -37 144
-36 113 -38 167 -9 215 20 33 22 33 36 15 8 -11 13 -35 11 -54 -5 -65 50 -44
73 28 14 44 27 61 45 61 19 0 18 -48 -1 -93 -22 -52 -20 -60 13 -52 40 10 85
48 138 116 42 55 49 60 75 54 55 -12 91 4 158 74 l64 66 18 -73 c21 -84 60
-146 126 -199 151 -122 215 -203 229 -292 7 -43 10 -45 81 -56 79 -12 152 -85
122 -121 -10 -12 -25 -14 -75 -9 -57 7 -63 5 -69 -14 -22 -71 76 -98 242 -66
93 18 93 18 93 4 0 -5 -21 -19 -47 -31 -49 -21 -83 -45 -83 -59 0 -4 15 -13
34 -19 30 -10 45 -8 108 16 40 14 100 33 133 41 33 8 65 17 72 18 7 2 15 21
18 42 9 61 19 85 38 97 16 9 29 -1 96 -69 87 -91 142 -187 122 -214 -26 -36
-45 -92 -63 -191 -11 -58 -27 -125 -36 -149 -17 -43 -19 -45 -77 -57 -33 -6
-77 -19 -97 -27 -48 -20 -130 -97 -162 -152 l-26 -43 -63 5 c-37 3 -79 1 -100
-6 -121 -40 -217 -188 -282 -433 -28 -107 -57 -269 -50 -276 12 -13 58 49 110
148 31 59 69 119 84 134 32 31 101 59 114 46 28 -26 26 -136 -3 -263 -13 -59
-12 -169 3 -188 19 -25 53 -39 94 -39 l38 0 -3 71 c-5 102 4 135 49 184 41 45
92 68 176 81 l41 6 4 -105 c3 -95 5 -108 27 -131 41 -44 54 -35 104 72 68 143
63 139 139 113 35 -12 95 -25 135 -28 62 -5 76 -3 106 16 53 32 96 86 135 168
30 64 37 73 61 73 100 0 224 102 294 241 65 127 61 187 -19 285 -73 89 -73 93
-20 158 52 65 63 98 71 221 4 50 13 109 22 133 l15 42 -46 61 c-50 67 -54 77
-30 86 21 8 72 -17 119 -58 l37 -33 -4 -127 -3 -127 27 19 c60 43 87 124 70
212 l-9 47 41 32 c63 48 116 100 131 128 11 21 11 31 -1 60 -32 75 -76 103
-230 144 -133 36 -195 72 -231 133 -15 27 -32 51 -38 55 -5 4 -63 8 -128 8
-125 0 -166 11 -187 50 -8 15 -6 21 11 30 17 10 32 7 79 -14 66 -30 88 -32
116 -11 18 15 18 17 -24 54 -24 23 -83 57 -140 82 -107 46 -157 76 -185 107
-26 28 -14 42 37 42 53 0 104 -17 175 -59 31 -19 64 -31 78 -29 l25 3 -36 47
c-52 68 -142 137 -265 204 -58 31 -108 59 -110 61 -3 2 4 10 16 18 30 21 59
99 73 190 6 44 16 97 21 118 10 38 11 38 32 23 55 -40 187 -97 273 -117 116
-27 263 -23 364 8 36 12 106 28 155 38 266 49 494 243 635 540 97 202 137 369
147 602 7 182 -2 168 169 252 131 64 176 103 194 172 6 23 10 42 8 44 -2 2
-30 7 -63 12 -79 11 -78 28 2 71 66 35 81 58 69 107 -8 29 -10 29 -153 -15
-103 -33 -193 -48 -193 -33 0 14 40 48 77 67 18 9 37 25 43 36 9 17 8 20 -12
20 -45 -1 -114 -22 -196 -60 -46 -22 -88 -37 -93 -34 -5 3 -9 15 -9 28 0 12
-11 60 -25 106 -14 46 -25 96 -25 112 0 24 -40 70 -252 284 -139 141 -348 341
-464 445 -403 359 -541 517 -649 742 -162 336 -125 852 77 1073 59 64 128 99
225 115 176 29 317 -46 447 -234 l40 -58 -25 -16 c-62 -44 -169 -146 -216
-207 -45 -58 -51 -72 -46 -99 10 -58 39 -111 89 -167 28 -30 60 -69 72 -87 22
-31 22 -32 3 -42 -11 -6 -51 -11 -90 -11 -77 0 -101 -6 -101 -24 0 -16 43 -36
78 -36 15 0 60 10 100 21 40 12 75 19 79 15 17 -16 -39 -64 -124 -106 -105
-52 -113 -58 -93 -70 28 -18 80 -10 141 20 33 17 63 28 68 26 4 -3 4 -31 -2
-63 -12 -70 3 -165 38 -233 36 -70 118 -134 100 -77 -14 45 -18 210 -5 266 19
85 64 167 112 201 22 17 46 30 52 30 25 -1 122 -78 140 -111 30 -56 18 -73
-47 -66 -28 4 -62 9 -74 13 -14 4 -23 2 -23 -4 0 -6 10 -14 23 -17 12 -4 58
-22 103 -41 45 -19 97 -34 117 -34 35 0 37 2 52 53 8 28 19 75 24 102 12 64
28 105 40 105 15 0 40 -29 47 -55 3 -13 1 -47 -5 -75 -13 -62 -14 -117 -2
-125 5 -3 19 7 31 22 21 26 22 35 16 143 -7 131 1 162 34 120 27 -35 40 -105
40 -211 0 -63 5 -101 16 -125 9 -19 19 -32 23 -29 3 4 5 70 3 148 -3 111 0
146 11 161 13 18 16 15 37 -40 24 -63 32 -178 16 -224 -8 -24 -8 -24 15 -9 13
9 34 31 47 49 45 67 22 148 -88 311 -33 49 -60 91 -60 94 0 16 43 0 84 -31 51
-39 66 -37 66 7 0 39 -13 64 -64 119 -23 25 -48 56 -56 69 l-16 24 -67 -17
c-37 -10 -77 -14 -88 -11 -20 7 -21 12 -14 119 6 92 4 118 -9 151 -24 57 -45
78 -63 63 -11 -9 -13 -25 -8 -65 4 -33 3 -53 -3 -53 -6 0 -12 4 -14 8 -1 4
-31 29 -65 55 -99 75 -140 140 -60 92 50 -28 79 -32 97 -10 21 25 2 63 -50
101 -28 20 -54 43 -59 51 -7 13 -11 13 -38 0 -17 -9 -60 -24 -97 -33 -36 -9
-92 -32 -124 -51 l-57 -34 57 53 c63 59 76 90 58 144 -20 61 -84 114 -188 158
-57 23 -133 67 -197 112 -130 93 -165 102 -334 86 -126 -13 -258 -43 -306 -71
-16 -9 -48 -46 -70 -83 -22 -36 -70 -101 -106 -144 -99 -119 -174 -231 -221
-330 l-43 -89 1 -220 c1 -174 6 -247 23 -350 48 -291 74 -345 296 -620 95
-118 175 -244 175 -277 0 -12 13 -21 40 -28 21 -6 56 -26 76 -45 33 -31 36
-39 32 -73 l-6 -38 146 -99 c309 -211 447 -330 544 -466 80 -111 234 -374 268
-454 47 -115 73 -227 68 -300 -3 -58 -9 -72 -53 -131 -7 -9 -2 -21 18 -42 36
-38 34 -62 -13 -187 -27 -70 -40 -121 -40 -154 0 -48 -2 -50 -110 -170 -61
-66 -134 -139 -163 -160 -113 -86 -248 -127 -386 -119 -55 3 -78 10 -123 37
-131 79 -275 226 -392 401 -68 102 -226 372 -226 388 0 12 -349 279 -483 369
-59 39 -154 95 -211 124 -80 41 -108 60 -121 86 -18 33 -63 77 -208 206 -82
73 -117 126 -117 178 0 31 1 31 37 24 59 -11 92 -32 185 -121 76 -74 118 -101
118 -76 0 19 -72 125 -143 210 -42 51 -86 110 -97 132 -28 54 -50 145 -50 203
0 49 0 49 28 42 83 -20 149 -126 169 -270 8 -61 23 -57 25 8 12 274 -46 424
-188 488 -57 26 -62 31 -72 71 -12 48 -31 181 -35 243 -2 39 -3 40 -56 57
-116 37 -142 91 -151 313 -4 88 -13 173 -19 188 -11 27 -8 31 39 76 32 30 50
55 50 70 0 21 -3 23 -37 17 -124 -20 -120 -20 -133 4 -11 20 -5 29 73 108 62
65 88 100 101 137 35 98 31 96 61 32 21 -46 26 -69 23 -112 -1 -30 0 -55 4
-55 12 0 58 61 64 86 15 58 -16 133 -97 239 -54 71 -54 85 2 85 15 0 32 7 39
15 11 13 7 15 -26 15 -52 0 -109 17 -125 37 -10 11 -14 49 -15 122 -2 131 -14
163 -94 247 -65 68 -71 86 -56 169 6 28 4 35 -10 35 -32 0 -82 32 -92 58 -6
15 -13 43 -16 63 -6 35 -8 37 -64 47 -137 26 -204 26 -480 -4 -52 -6 -63 -4
-62 7 5 36 -3 50 -40 69 -30 16 -40 26 -40 45 0 53 -65 20 -120 -60 l-30 -44
-53 24 c-106 49 -171 60 -332 59 -82 -1 -184 -8 -225 -16 l-75 -14 3 -56 c4
-62 -3 -80 -59 -151 -46 -58 -57 -103 -36 -143 27 -52 39 -138 27 -183 -6 -23
-13 -41 -16 -41 -2 0 -16 7 -29 16 -14 9 -48 19 -77 23 l-53 6 -33 115 c-55
197 -106 275 -192 300 -42 12 -72 -3 -131 -67 -61 -65 -83 -125 -77 -206 12
-144 132 -283 304 -349 48 -18 79 -23 164 -23 58 0 121 4 141 8 31 8 36 6 46
-16 10 -20 3 -47 -43 -173 -60 -165 -120 -293 -145 -308 -13 -7 -25 -3 -49 17
-32 28 -60 35 -60 16 0 -5 23 -33 52 -60 92 -88 247 -146 345 -130 28 5 37 11
35 23 -3 20 49 60 97 77 53 17 141 13 141 -8 0 -3 -15 -12 -32 -20 -18 -8 -73
-39 -123 -69 -339 -204 -539 -461 -589 -755 l-13 -72 -59 3 c-205 10 -484 100
-605 195 -37 29 -36 37 5 37 88 0 221 -67 238 -120 4 -12 16 -10 71 14 107 45
151 78 177 131 28 58 22 73 -70 165 -45 46 -78 70 -106 78 -93 27 -157 3 -183
-68 -14 -37 -21 -45 -41 -44 -66 3 -237 25 -273 36 l-40 12 7 100 c9 148 50
479 111 916 86 612 103 751 140 1113 19 188 44 410 54 492 11 83 29 254 41
380 24 274 53 469 86 584 22 74 25 109 29 275 3 190 17 349 55 624 78 561 90
953 39 1250 -6 34 -15 62 -19 62 -5 0 -26 -21 -48 -47z m-10 -330 c9 -10 21
-29 28 -43 13 -24 12 -25 -7 -7 -11 9 -24 17 -30 17 -6 0 -13 11 -15 25 -6 29
3 32 24 8z m-133 -228 c-15 -115 -35 -266 -44 -335 -9 -69 -27 -204 -40 -300
-104 -764 -131 -960 -166 -1210 -53 -378 -122 -870 -164 -1160 -19 -129 -50
-365 -70 -525 -84 -682 -130 -941 -220 -1240 -47 -156 -117 -336 -130 -332 -5
2 -15 19 -21 38 -18 54 50 510 207 1399 145 815 194 1126 243 1535 56 460 69
555 92 685 40 218 97 420 148 519 11 21 16 77 20 217 5 228 25 359 101 671 80
331 84 334 44 38z m127 117 c26 -21 44 -54 44 -81 0 -27 -8 -26 -43 2 -18 14
-30 35 -34 60 -6 41 1 45 33 19z m11 -182 c18 -36 33 -66 33 -67 0 -2 -8 -3
-18 -3 -29 0 -66 51 -87 118 -6 21 -4 23 17 20 17 -2 31 -19 55 -68z m-37 -78
c22 -22 40 -47 41 -58 0 -10 2 -29 5 -41 6 -32 -7 -29 -48 15 -41 43 -58 72
-58 101 0 30 14 26 60 -17z m-39 -127 c49 -26 89 -112 60 -129 -9 -6 -101 112
-101 132 0 16 5 15 41 -3z m7 -156 c66 -78 49 -105 -20 -32 -26 28 -48 84 -32
82 5 0 28 -23 52 -50z m-33 -91 c15 -12 34 -36 41 -54 18 -42 19 -97 2 -92
-12 4 -88 143 -88 161 0 13 17 8 45 -15z m-36 -123 c30 -15 61 -68 61 -104 0
-29 -10 -26 -54 12 -26 22 -39 43 -43 70 -6 41 -4 43 36 22z m49 -190 c14 -30
16 -75 3 -75 -22 0 -66 49 -87 97 -13 29 -24 58 -24 63 0 17 96 -58 108 -85z
m-64 -77 c44 -51 75 -148 47 -148 -14 0 -92 91 -103 120 -10 26 -3 70 11 70 5
0 26 -19 45 -42z m-19 -140 c41 -48 72 -104 62 -114 -12 -12 -57 26 -77 66
-51 99 -45 117 15 48z m23 -161 c26 -28 39 -81 22 -92 -16 -10 -60 34 -60 61
0 13 -5 26 -10 29 -13 8 -3 25 14 25 7 0 22 -10 34 -23z m-46 -91 c47 -36 72
-79 66 -115 -3 -19 -4 -20 -36 -4 -19 9 -40 27 -49 39 -19 30 -44 114 -34 114
4 0 28 -15 53 -34z m-29 -130 c18 -7 40 -22 50 -33 20 -23 35 -93 20 -93 -19
0 -94 63 -108 91 -27 51 -18 59 38 35z m-9 -122 c42 -36 66 -74 66 -106 0 -40
-13 -41 -47 -5 -36 38 -63 88 -63 117 0 26 6 25 44 -6z m-26 -138 c48 -25 74
-62 80 -111 5 -45 4 -47 -16 -36 -24 13 -87 96 -101 134 -12 31 -4 34 37 13z
m13 -165 c30 -30 39 -46 39 -72 l-1 -34 -39 43 c-40 45 -68 102 -48 102 6 0
28 -17 49 -39z m-31 -108 c26 -21 70 -97 70 -120 0 -14 -64 44 -90 82 -47 68
-37 87 20 38z m-11 -118 c31 -16 38 -29 50 -92 10 -52 0 -55 -50 -13 -39 32
-65 81 -55 105 7 19 19 19 55 0z m-1 -172 c32 -26 42 -41 42 -64 0 -35 -3 -35
-46 -8 -43 26 -64 56 -64 92 0 32 4 31 68 -20z m-31 -114 c49 -48 72 -97 62
-128 -6 -17 -67 37 -93 82 -26 46 -41 97 -29 97 5 0 32 -23 60 -51z m-13 -130
c33 -29 62 -92 50 -111 -9 -15 -44 12 -63 50 -10 20 -28 45 -40 56 -11 10 -18
23 -15 27 10 17 33 9 68 -22z m-16 -117 c18 -14 40 -38 48 -53 14 -27 19 -79
9 -79 -18 0 -62 32 -73 52 -11 22 -42 106 -42 115 0 6 18 -5 58 -35z m-31
-132 c18 -10 39 -30 48 -44 20 -30 32 -106 17 -106 -19 0 -98 97 -109 134 -13
43 -4 46 44 16z m30 -182 c27 -28 47 -78 32 -78 -40 0 -109 81 -109 129 0 14
42 -13 77 -51z m-43 -91 c51 -48 56 -56 56 -96 l0 -44 -42 48 c-24 27 -48 55
-54 64 -17 25 -34 81 -24 81 4 0 33 -24 64 -53z m-15 -141 c26 -28 55 -119 39
-125 -25 -9 -95 92 -112 162 l-7 29 28 -20 c15 -11 39 -32 52 -46z m-35 -115
c20 -27 46 -56 58 -64 18 -13 20 -18 9 -25 -33 -23 -78 18 -106 97 -19 55 -5
52 39 -8z m-17 -97 c51 -42 73 -80 73 -126 l0 -32 -46 44 c-43 42 -83 108 -84
138 0 19 9 15 57 -24z m1735 -89 c67 -9 128 -18 135 -20 19 -6 -16 -87 -36
-83 -10 3 -15 12 -14 26 4 32 -12 27 -43 -14 l-28 -36 28 -54 c29 -54 81 -104
166 -158 25 -16 65 -45 89 -64 l44 -36 18 23 c22 27 23 42 7 128 -8 44 -8 67
-1 74 7 7 14 -4 23 -40 12 -52 23 -63 34 -35 13 33 5 78 -29 160 -19 46 -35
96 -35 109 0 22 3 24 19 16 24 -13 57 -80 72 -149 7 -29 17 -51 23 -49 6 2 13
31 16 65 4 50 8 60 19 53 9 -6 21 -5 31 2 14 8 28 4 63 -17 47 -27 82 -66 111
-123 24 -48 3 -40 -40 15 -41 51 -63 72 -76 72 -19 0 -5 -28 49 -97 51 -67 55
-76 40 -90 -21 -21 -35 -9 -64 56 -29 64 -43 53 -19 -16 31 -90 16 -133 -43
-133 -16 0 -21 6 -21 25 0 28 -20 75 -32 75 -13 0 -9 -50 7 -105 9 -27 13 -60
10 -73 -5 -21 -3 -23 17 -17 37 11 84 41 156 98 37 30 77 59 89 65 23 13 140
16 167 6 29 -11 6 -24 -42 -24 -44 0 -113 -18 -128 -33 -11 -10 35 -8 55 2 10
6 23 6 32 0 12 -8 12 -10 -1 -19 -8 -5 -22 -10 -30 -10 -24 0 -60 -29 -60 -49
0 -15 -7 -17 -52 -14 -72 5 -87 -6 -69 -49 18 -43 25 -88 15 -88 -4 0 -20 12
-35 26 -27 25 -27 26 -34 5 -9 -30 -22 -26 -30 9 -4 17 -11 30 -16 30 -18 0
-20 -28 -5 -59 9 -16 16 -44 16 -61 0 -28 -2 -30 -21 -20 -29 16 -46 63 -58
156 -11 86 -18 114 -31 114 -18 0 -19 -19 -4 -64 15 -42 15 -49 0 -71 -10 -15
-12 -26 -6 -30 31 -19 107 -215 84 -215 -19 1 -54 37 -68 70 -13 30 -16 32
-22 16 -5 -13 2 -36 19 -70 15 -28 27 -55 27 -60 0 -5 -18 -6 -41 -2 l-41 7
31 -54 c35 -61 41 -119 16 -155 -15 -21 -17 -21 -42 -5 l-25 17 7 -42 c6 -38
5 -42 -14 -42 -20 0 -21 5 -21 105 0 102 1 105 20 95 11 -6 23 -22 26 -36 4
-14 11 -23 18 -21 22 7 17 36 -12 68 l-29 33 -26 -26 c-16 -16 -29 -46 -37
-84 -17 -82 -19 -86 -30 -79 -14 9 -12 47 5 88 17 41 20 87 6 87 -15 0 -41
-30 -41 -46 0 -8 -4 -13 -9 -10 -25 16 -17 233 9 260 17 17 24 -4 13 -35 -11
-29 -11 -30 15 -27 37 4 54 43 50 120 l-3 63 -18 -33 c-26 -47 -32 -33 -18 35
7 32 11 72 9 88 -2 23 -14 -2 -48 -105 -31 -93 -50 -135 -60 -135 -25 0 -23
32 4 78 15 26 26 59 26 81 0 42 -15 41 -25 -2 -3 -15 -14 -33 -25 -40 -11 -7
-20 -11 -20 -9 0 2 5 28 10 59 12 62 1 108 -26 108 -9 0 -14 -6 -11 -12 24
-67 29 -88 23 -103 -6 -17 -8 -17 -22 3 -22 32 -32 27 -36 -15 -2 -20 -9 -38
-15 -41 -10 -3 -13 15 -13 68 0 76 -11 84 -35 26 -12 -28 -11 -44 5 -117 20
-88 24 -138 14 -177 -6 -22 -8 -21 -31 17 -13 23 -30 42 -36 42 -27 3 -53 -3
-74 -17 -22 -14 -23 -13 -23 9 0 14 23 69 51 123 44 86 50 105 46 144 -2 25
-8 53 -12 63 -6 14 -2 17 29 17 20 0 36 3 36 6 0 3 -13 23 -28 43 -16 20 -34
45 -40 56 -9 18 -11 16 -20 -15 l-10 -35 -16 39 c-13 29 -20 36 -29 27 -8 -8
-7 -18 6 -40 21 -35 22 -51 3 -51 -22 0 -85 80 -92 117 -6 34 -19 43 -27 21
-2 -7 8 -36 24 -64 27 -47 28 -64 7 -64 -11 0 -58 99 -58 123 0 25 -24 16 -28
-11 -2 -12 4 -32 12 -44 18 -25 21 -58 7 -58 -16 0 -41 30 -47 58 -10 50 -24
76 -35 65 -7 -7 -5 -23 6 -49 31 -73 36 -96 18 -92 -40 8 -72 89 -73 181 l0
49 34 -21 c47 -29 63 -26 87 14 24 40 39 37 39 -7 0 -32 -3 -31 58 -12 13 4
22 -2 30 -20 6 -14 16 -26 21 -26 24 0 22 27 -5 76 -27 50 -44 67 -44 44 0
-26 -23 -6 -40 35 -17 40 -22 45 -39 36 -11 -6 -29 -23 -40 -37 l-20 -26 -22
21 c-13 12 -27 21 -31 21 -5 0 -13 12 -19 27 -7 20 -6 28 3 35 22 13 238 9
370 -7z m-1750 -52 c35 -36 58 -92 58 -139 l0 -37 -35 47 c-37 47 -85 141 -85
164 0 17 27 2 62 -35z m2092 5 c9 -12 16 -36 16 -52 0 -30 0 -30 -20 -11 -22
23 -39 85 -22 85 6 0 18 -10 26 -22z m-116 -28 c7 0 12 -4 12 -10 0 -13 -27
-13 -35 0 -10 15 -24 3 -40 -36 -11 -26 -20 -34 -39 -34 -36 0 -32 16 17 64
36 37 44 41 58 29 8 -7 21 -13 27 -13z m642 -21 c0 -12 20 -44 45 -70 67 -72
56 -113 -13 -46 l-33 32 6 -27 c6 -22 4 -28 -9 -28 -17 0 -22 17 -30 103 -4
51 -3 57 15 57 13 0 19 -7 19 -21z m-166 -15 c14 -15 26 -34 26 -43 0 -11 -9
-6 -30 17 -16 17 -39 32 -50 32 -11 0 -20 5 -20 10 0 20 48 9 74 -16z m281
-27 c8 -13 17 -39 21 -58 l6 -34 -36 37 c-37 39 -48 78 -21 78 8 0 21 -10 30
-23z m-1989 -22 c9 -13 24 -74 34 -135 12 -67 27 -125 40 -145 23 -37 73 -65
165 -91 71 -20 146 -56 166 -80 12 -15 12 -16 -6 -11 -11 3 -38 8 -60 12 -152
25 -265 89 -309 177 -14 28 -26 67 -26 86 0 46 -24 37 -28 -11 -2 -23 6 -53
23 -87 33 -66 27 -85 -13 -42 -35 38 -62 114 -62 178 0 48 36 174 50 174 5 0
17 -11 26 -25z m1295 5 c10 -6 19 -20 19 -30 0 -27 -41 -27 -66 1 -16 17 -16
22 -4 29 19 12 27 12 51 0z m-2085 -19 c43 -26 80 -77 94 -130 6 -23 10 -45 7
-47 -8 -8 -91 84 -118 131 -41 72 -38 80 17 46z m892 -90 c-5 -54 -28 -52 -28
2 0 25 3 53 7 63 5 15 8 14 15 -7 5 -13 8 -39 6 -58z m1978 11 c38 -30 61
-102 33 -102 -24 0 -69 59 -69 89 0 35 6 38 36 13z m2354 -7 c56 -2 66 -27 23
-61 l-28 -23 -17 22 -17 22 -23 -21 c-13 -12 -33 -27 -46 -33 -32 -17 -39 8
-16 64 18 43 21 45 49 39 17 -4 50 -8 75 -9z m-160 -27 c-1 -18 -7 -44 -15
-58 -8 -14 -14 -35 -15 -47 0 -16 -6 -23 -19 -23 -20 0 -31 18 -31 51 0 10 -4
19 -10 19 -5 0 -10 -21 -10 -46 0 -38 -3 -45 -17 -42 -10 2 -24 17 -33 33 -8
17 -16 32 -18 35 -11 16 -20 -34 -15 -77 6 -52 5 -53 -21 -53 -15 0 -29 6 -31
13 -26 73 -25 71 -43 54 -15 -16 -15 -20 1 -63 12 -34 14 -51 6 -66 -14 -26
-30 -19 -55 26 -28 50 -37 32 -17 -32 12 -38 14 -57 6 -74 -10 -22 -10 -22
-52 20 -24 24 -45 41 -48 39 -2 -3 7 -27 21 -53 27 -51 34 -94 15 -94 -6 0
-25 11 -41 25 -58 49 -53 10 12 -92 24 -38 0 -48 -44 -18 -45 31 -46 31 -46 1
0 -17 12 -34 35 -52 19 -14 35 -30 35 -36 0 -21 -34 -18 -71 7 -54 35 -64 23
-17 -21 48 -44 72 -80 64 -99 -9 -24 -33 -18 -63 15 -17 20 -30 27 -36 21 -17
-17 20 -59 74 -86 35 -18 49 -31 47 -43 -4 -23 -40 -27 -78 -7 -66 34 -47 -13
20 -49 33 -18 51 -36 59 -57 13 -38 -1 -45 -51 -25 -38 16 -48 13 -48 -15 0
-20 20 -29 61 -29 33 0 51 -26 28 -41 -8 -5 -29 -9 -46 -9 -50 0 -40 -18 27
-47 64 -27 69 -33 45 -53 -12 -10 -23 -9 -54 3 -28 12 -41 13 -49 5 -17 -17 5
-38 39 -38 59 0 96 -29 83 -65 -5 -12 -10 -13 -20 -4 -16 13 -56 8 -62 -8 -5
-16 39 -33 84 -33 23 0 37 -6 41 -16 7 -19 -13 -34 -46 -34 -20 0 -21 -2 -11
-15 7 -8 30 -20 51 -27 31 -9 37 -14 28 -25 -6 -7 -30 -13 -53 -13 -50 0 -71
-12 -62 -35 6 -16 16 -17 76 -12 48 4 70 2 70 -5 0 -16 -31 -48 -47 -48 -17 0
-17 -16 1 -23 7 -3 34 -8 58 -12 25 -4 51 -10 58 -15 20 -12 2 -30 -32 -30
-30 0 -31 0 -13 -20 10 -11 34 -22 54 -25 67 -11 81 -15 81 -25 0 -6 -27 -10
-59 -10 -63 0 -81 -11 -61 -35 9 -11 37 -15 109 -15 l96 -1 -28 -24 c-26 -23
-51 -30 -86 -26 -7 2 -10 -2 -7 -8 9 -14 101 -41 139 -41 18 0 27 -4 25 -12
-4 -11 -40 -26 -108 -45 -12 -4 -11 -7 5 -19 16 -12 39 -14 118 -8 l99 7 -4
-29 c-3 -27 -6 -29 -60 -34 -31 -3 -60 -8 -64 -13 -16 -16 12 -22 99 -23 127
-1 127 -1 127 -25 0 -20 -4 -21 -53 -16 -59 6 -93 -6 -67 -23 8 -5 34 -10 57
-10 23 0 54 -5 70 -11 l28 -10 -25 -19 -25 -18 25 -6 c14 -3 60 -7 102 -8 124
-5 132 -48 13 -63 -123 -15 -57 -47 89 -43 l101 3 0 -25 c0 -24 -3 -25 -75
-30 l-75 -5 40 -13 c22 -6 74 -12 115 -12 82 0 106 -9 97 -35 -6 -13 -19 -16
-71 -13 -71 3 -86 -4 -69 -30 8 -14 28 -17 104 -18 133 -2 128 -1 96 -29 -22
-19 -39 -25 -78 -25 -49 0 -66 -13 -30 -25 11 -3 57 -4 104 -3 77 3 109 -3 95
-17 -3 -3 -25 -8 -49 -10 -67 -9 -89 -15 -89 -25 0 -13 36 -22 145 -34 77 -9
100 -14 100 -26 0 -10 -13 -16 -42 -18 -24 -2 -43 -7 -43 -12 0 -15 56 -40 90
-40 20 0 30 -5 30 -15 0 -12 -14 -15 -62 -15 -78 -1 -62 -13 51 -42 84 -21 95
-27 85 -52 -7 -19 -25 -18 -81 5 -18 7 -36 10 -40 6 -14 -15 24 -37 82 -48 77
-14 95 -24 95 -54 0 -24 -1 -24 -35 -9 -43 18 -88 19 -83 2 3 -7 29 -23 59
-35 100 -39 109 -44 109 -63 0 -27 -17 -33 -42 -16 -12 9 -31 16 -41 16 -17 0
-18 -2 -6 -16 7 -9 37 -31 66 -50 29 -19 53 -38 53 -44 0 -19 -28 -22 -54 -5
-51 34 -50 8 2 -29 28 -21 52 -42 52 -47 0 -18 -31 -21 -49 -5 -19 18 -51 22
-51 6 0 -5 23 -26 50 -47 28 -20 50 -43 50 -50 0 -24 -20 -23 -57 2 -21 14
-47 25 -58 25 -17 0 -15 -5 16 -33 19 -17 50 -40 68 -50 39 -21 36 -41 -7 -45
-18 -2 -32 -7 -32 -12 0 -5 27 -30 60 -55 68 -52 98 -91 83 -106 -6 -6 -26 3
-56 26 -25 19 -51 35 -57 35 -22 0 19 -56 79 -108 59 -51 74 -83 49 -98 -6 -4
-17 1 -24 12 -33 48 -59 58 -71 29 -3 -11 15 -35 56 -73 57 -53 73 -83 53 -96
-5 -3 -31 17 -57 44 -77 78 -106 63 -37 -19 22 -25 46 -60 55 -78 18 -34 23
-83 9 -83 -11 0 -42 36 -75 87 -15 24 -32 43 -37 43 -15 0 -13 -7 26 -83 38
-74 58 -177 35 -177 -7 0 -18 15 -26 34 -15 36 -32 52 -42 42 -3 -3 1 -40 10
-81 33 -150 12 -196 -32 -72 -31 88 -46 88 -36 0 14 -116 12 -178 -5 -178 -11
0 -16 17 -21 67 -3 38 -9 71 -12 75 -16 16 -22 -16 -20 -118 1 -60 -2 -109 -7
-109 -18 0 -40 45 -40 82 0 21 -4 38 -9 38 -17 0 -22 -39 -15 -120 l7 -80 -27
0 c-25 0 -26 2 -23 46 1 30 -2 48 -10 51 -21 7 -33 -43 -27 -110 6 -68 -7
-117 -31 -117 -20 0 -29 41 -22 111 3 32 1 59 -4 59 -9 0 -20 -39 -39 -131
-12 -63 -31 -96 -48 -85 -17 10 -15 40 5 97 17 46 17 50 1 66 -16 15 -18 15
-28 -11 -5 -15 -10 -31 -10 -36 0 -5 -12 -45 -26 -90 -20 -64 -29 -80 -42 -78
-20 4 -19 17 3 76 20 55 7 90 -19 50 -9 -13 -23 -47 -31 -74 -18 -59 -31 -81
-42 -71 -4 5 2 35 13 68 12 32 18 59 15 59 -3 0 -37 -38 -74 -85 -38 -47 -72
-83 -78 -80 -19 12 -8 48 26 88 19 22 35 50 35 61 0 15 -18 1 -72 -56 -80 -82
-112 -105 -124 -87 -4 7 9 26 30 46 67 64 31 75 -48 14 -59 -45 -108 -71 -132
-71 -27 0 13 37 90 85 124 76 68 72 -88 -6 -94 -47 -146 -61 -146 -39 0 15 59
48 116 65 28 8 59 24 69 35 18 19 18 20 -2 20 -11 0 -67 -18 -126 -40 -79 -30
-120 -40 -163 -40 -79 0 -63 12 76 58 114 37 150 62 92 62 -17 0 -52 -9 -79
-21 -61 -26 -142 -35 -173 -19 -30 16 -10 30 45 30 50 0 85 9 85 22 0 6 -41 9
-107 7 -93 -4 -108 -2 -111 12 -4 21 25 29 105 29 70 0 93 6 93 26 0 29 78 16
174 -28 87 -41 95 -43 186 -42 113 0 193 20 296 71 246 123 431 405 490 747
24 134 14 349 -20 476 -49 177 -121 300 -338 576 -43 55 -94 131 -113 170 -36
72 -36 72 -65 61 -28 -11 -33 -8 -108 63 -43 41 -120 112 -170 158 -52 47
-106 106 -124 137 -30 51 -36 55 -69 55 -35 0 -42 7 -126 108 -209 252 -296
374 -375 529 -185 358 -193 745 -23 1088 83 169 188 282 323 349 59 30 149 54
205 55 35 1 37 0 37 -31z m-5016 -93 c13 -27 27 -63 31 -80 6 -29 5 -29 -45
20 -57 55 -80 97 -80 147 l0 32 35 -34 c20 -19 46 -57 59 -85z m909 85 c-11
-104 -15 -120 -34 -120 -23 0 -24 14 -4 71 9 24 14 52 11 62 -3 13 0 17 12 15
11 -2 16 -12 15 -28z m435 3 c20 -53 25 -96 11 -91 -20 7 -39 48 -39 86 0 39
14 42 28 5z m3936 -25 c-22 -43 -44 -68 -61 -68 -11 0 -10 7 2 38 16 39 39 62
62 62 11 0 10 -7 -3 -32z m76 -27 c0 -16 -8 -39 -18 -51 -16 -19 -19 -20 -30
-7 -11 12 -10 22 2 51 18 44 46 48 46 7z m-5370 -176 c11 -23 20 -54 20 -70 0
-28 0 -27 -42 20 -53 58 -88 120 -88 154 0 24 2 24 45 -19 25 -25 54 -63 65
-85z m983 63 c-5 -9 -73 -11 -73 -3 0 4 7 20 16 37 l16 31 23 -29 c13 -16 21
-32 18 -36z m332 32 c0 -16 -6 -26 -17 -28 -14 -3 -18 3 -18 28 0 25 4 31 18
28 11 -2 17 -12 17 -28z m4252 22 c6 -4 14 -19 18 -34 7 -29 11 -25 -89 -114
-21 -18 -32 -22 -40 -14 -8 8 2 21 34 49 37 33 43 42 32 53 -11 11 -17 9 -32
-10 -18 -21 -19 -22 -28 -5 -5 10 -6 26 -3 37 13 34 78 57 108 38z m-3899 -72
c39 -36 39 -45 7 -92 -14 -20 -25 -44 -25 -52 0 -9 -5 -16 -10 -16 -19 0 -22
29 -10 82 12 48 12 53 -9 69 -11 9 -21 22 -21 28 0 20 35 11 68 -19z m1072 20
c0 -5 -13 -10 -30 -10 -16 0 -30 -4 -30 -10 0 -5 4 -10 9 -10 5 0 22 -5 38
-11 26 -10 27 -12 8 -19 -11 -5 -42 -9 -70 -10 -47 -2 -48 -3 -22 -13 15 -6
26 -16 24 -21 -6 -18 -44 -18 -77 -1 -35 18 -50 13 -50 -16 0 -23 -18 -21 -34
4 -9 13 -5 23 19 47 48 48 215 102 215 70z m-1192 -43 c12 -11 22 -32 22 -45
0 -23 -2 -24 -42 -18 -71 11 -138 36 -138 52 0 22 59 45 100 38 19 -3 45 -15
58 -27z m1357 -22 c15 -19 24 -39 20 -46 -10 -15 -68 49 -61 67 8 20 12 18 41
-21z m2725 -1 c0 -8 -54 -74 -61 -74 -20 0 -16 34 6 56 22 21 55 33 55 18z
m-5652 -133 c57 -107 51 -127 -17 -66 -39 35 -73 100 -86 165 l-7 35 40 -39
c23 -21 54 -64 70 -95z m5730 72 c-4 -23 -100 -95 -111 -84 -13 13 20 69 51
85 38 21 64 20 60 -1z m-4458 -18 c0 -20 -5 -25 -25 -25 -20 0 -25 5 -25 25 0
20 5 25 25 25 20 0 25 -5 25 -25z m208 -38 c4 -31 -14 -36 -34 -10 -9 13 -9
22 -2 31 16 19 33 9 36 -21z m-1552 -59 c55 -62 86 -126 82 -170 -3 -30 -4
-30 -50 38 -50 74 -104 184 -89 184 5 0 30 -24 57 -52z m3025 12 c59 -30 79
-100 29 -100 -46 0 -80 44 -80 101 0 24 2 24 51 -1z m-286 -47 c11 -30 19 -93
22 -168 l5 -120 -31 33 c-20 22 -37 32 -47 28 -13 -5 -15 0 -10 31 3 21 8 76
11 123 10 136 22 153 50 73z m189 -22 c10 -84 39 -185 66 -223 20 -30 60 -65
100 -88 11 -7 12 -12 3 -21 -33 -33 -148 72 -203 185 l-32 64 24 71 c12 39 26
71 29 71 4 0 9 -27 13 -59z m-1431 28 c8 -13 6 -21 -6 -34 -22 -22 -37 -11
-37 26 0 23 4 30 16 27 9 -2 22 -10 27 -19z m510 -22 c12 -18 47 -118 47 -134
0 -1 -7 0 -16 4 -9 3 -22 20 -30 37 -13 29 -13 27 -15 -54 -1 -64 -3 -76 -8
-49 -4 20 -17 53 -30 74 -18 32 -20 43 -11 68 5 16 10 45 10 64 0 30 2 33 19
24 10 -6 25 -21 34 -34z m-389 -42 c-10 -46 -32 -95 -43 -95 -16 0 -23 40 -16
95 l6 53 30 -11 c26 -10 29 -15 23 -42z m4166 28 c0 -20 -13 -39 -52 -73 -28
-25 -71 -64 -95 -87 -52 -49 -69 -36 -32 26 22 35 154 160 172 161 4 0 7 -12
7 -27z m185 -10 c85 -42 142 -110 166 -198 l8 -30 -21 28 c-11 16 -60 54 -107
87 -82 55 -151 119 -151 141 0 13 45 1 105 -28z m-3338 -33 c20 0 24 -3 17
-17 -14 -31 -16 -143 -4 -190 13 -55 7 -64 -23 -35 -27 26 -40 27 -57 7 -21
-25 -1 -71 56 -132 54 -58 85 -126 66 -145 -12 -12 -30 11 -117 152 -42 69
-86 135 -98 148 l-20 22 20 0 c30 0 40 18 54 95 18 107 23 117 54 105 15 -6
38 -10 52 -10z m-2638 -36 c49 -56 78 -115 86 -174 l6 -45 -37 40 c-49 53
-129 225 -104 225 5 0 26 -21 49 -46z m6030 -88 c39 -36 71 -99 70 -141 l0
-30 -37 45 c-48 58 -101 110 -113 110 -22 0 -5 -37 40 -85 53 -56 74 -108 61
-152 -7 -27 -8 -27 -33 27 -23 53 -52 88 -62 78 -2 -2 13 -49 35 -104 61 -157
95 -304 70 -304 -22 0 -62 83 -88 185 -26 103 -45 136 -58 101 -3 -9 1 -39 10
-67 10 -28 15 -54 11 -57 -9 -9 -26 13 -40 54 l-13 39 -13 -27 c-19 -42 -29
-24 -29 53 0 38 -4 69 -8 69 -22 0 -34 -60 -33 -165 1 -118 -10 -161 -28 -112
-25 66 -23 253 4 320 5 12 2 17 -10 17 -9 0 -19 -9 -22 -20 -12 -46 -33 -7
-33 62 0 53 56 155 108 195 l42 32 68 -46 c37 -25 82 -60 101 -77z m-4445 -51
c19 -8 54 -15 76 -15 43 0 43 0 34 -24 -4 -11 -14 -13 -35 -9 -33 6 -41 -8
-53 -89 -11 -72 -26 -69 -26 5 0 50 -5 70 -21 91 -30 38 -63 32 -67 -11 -4
-38 -15 -42 -36 -12 l-15 22 -7 -27 c-7 -31 -21 -24 -26 14 -2 14 -10 25 -18
25 -47 1 -48 40 -3 128 l24 49 69 -66 c38 -37 84 -73 104 -81z m1535 127 c46
-21 44 -32 -6 -32 -41 0 -73 15 -73 35 0 20 29 19 79 -3z m-681 -193 c5 -62 8
-116 6 -118 -2 -2 -12 16 -23 40 -19 44 -26 110 -22 204 l3 50 13 -31 c7 -16
18 -82 23 -145z m-552 66 c-31 -77 -33 -98 -9 -93 12 2 21 18 27 46 8 36 13
42 30 40 24 -4 24 -1 -6 -88 -29 -82 -26 -79 -47 -51 -12 16 -20 20 -25 12
-12 -20 -25 -2 -32 45 -7 50 -13 51 -23 2 l-7 -33 -20 35 -19 35 -3 -32 c-6
-60 -32 -32 -32 33 0 33 1 34 39 34 31 0 49 9 92 44 30 25 55 43 58 41 2 -2
-8 -34 -23 -70z m1220 44 c39 -14 93 -107 82 -139 -5 -16 -148 122 -148 143 0
19 7 18 66 -4z m2442 -156 c-3 -124 -4 -131 -20 -116 -29 26 -40 82 -23 117
18 36 18 36 1 36 -7 0 -20 -10 -28 -22 l-15 -22 -12 23 c-12 21 -8 30 31 87
39 57 44 62 56 46 10 -13 12 -51 10 -149z m142 134 c0 -54 -28 -121 -65 -157
-19 -19 -38 -31 -42 -27 -17 17 72 217 97 217 6 0 10 -15 10 -33z m-5706 -20
c42 -47 77 -129 82 -194 l5 -58 -23 28 c-13 15 -49 82 -80 148 -51 108 -55
119 -35 114 12 -4 35 -21 51 -38z m2891 -50 c29 -98 15 -109 -36 -29 -27 43
-37 90 -22 105 13 13 43 -27 58 -76z m-21 -176 c-4 -4 -124 105 -140 128 -6 9
-15 31 -19 50 -6 29 4 20 77 -70 47 -57 84 -106 82 -108z m-1307 138 c9 -9 5
-26 -15 -68 -34 -71 -30 -67 -43 -54 -8 8 -4 28 13 72 24 64 27 68 45 50z
m-1560 -91 c36 -37 68 -103 79 -163 l7 -39 -24 15 c-23 16 -66 88 -104 179
-11 25 -21 49 -23 53 -8 17 33 -12 65 -45z m2777 -47 c-7 -7 -74 69 -73 84 0
6 18 -10 40 -34 21 -24 37 -47 33 -50z m-2874 -91 c0 -88 -4 -160 -8 -160 -5
0 -19 11 -32 25 -30 32 -46 32 -58 -2 -9 -25 -10 -23 -11 22 -1 109 59 275
101 275 4 0 8 -72 8 -160z m3085 154 c21 -9 45 -56 45 -92 0 -39 -31 -78 -55
-68 -15 6 -17 15 -12 66 5 44 3 63 -8 73 -21 22 -4 34 30 21z m2713 -39 c33
-67 47 -170 30 -219 -7 -21 -22 -45 -33 -52 -20 -13 -20 -11 -20 79 0 51 -4
125 -9 165 -5 42 -4 72 1 72 5 0 19 -20 31 -45z m712 20 c-7 -8 -25 -15 -41
-15 -19 0 -29 5 -29 15 0 11 11 15 41 15 36 0 40 -2 29 -15z m-3837 -45 c30
-35 62 -117 72 -183 6 -39 5 -47 -9 -47 -25 0 -47 43 -65 129 -10 43 -25 91
-34 105 -25 38 4 35 36 -4z m-1129 -24 c-1 -21 -8 -44 -16 -53 -31 -30 -138
-37 -138 -8 0 23 43 67 84 86 57 26 71 21 70 -25z m917 -16 c8 -36 26 -52 51
-44 26 8 43 -63 21 -88 -16 -17 -15 -29 2 -167 10 -82 15 -161 11 -177 l-8
-29 -19 24 c-15 18 -19 40 -20 95 0 39 -4 80 -8 91 -7 17 -10 13 -21 -25 -19
-70 -5 -132 60 -265 60 -124 79 -188 60 -200 -16 -10 -56 31 -80 80 -28 59
-26 70 10 45 40 -28 38 -13 -4 36 -28 31 -37 37 -47 27 -22 -22 -27 -15 -22
31 6 45 -19 140 -39 152 -17 11 -4 -137 15 -176 10 -18 17 -41 17 -50 0 -9 16
-35 36 -58 37 -44 33 -52 -16 -27 -66 34 -95 145 -85 319 5 69 3 96 -3 87 -9
-13 -13 -13 -27 -1 -9 7 -23 27 -32 43 -11 22 -18 26 -26 18 -9 -9 -8 -19 6
-42 19 -34 23 -79 7 -79 -6 0 -28 18 -50 40 -46 47 -53 49 -39 13 6 -16 40
-113 75 -218 36 -104 77 -215 93 -247 29 -60 29 -68 1 -68 -22 0 -53 35 -83
95 -14 28 -38 64 -53 80 -28 29 -29 34 -27 118 1 49 4 98 7 110 3 12 1 29 -4
37 -9 13 -13 11 -30 -10 -37 -47 -18 -196 34 -257 l24 -29 -24 -69 c-39 -116
-26 -221 45 -363 45 -89 97 -159 189 -252 85 -87 105 -127 100 -200 -2 -34
-12 -69 -23 -86 l-20 -29 -7 85 c-11 128 -40 220 -69 220 -14 0 -11 -29 11
-98 22 -71 25 -117 9 -159 -15 -40 -29 -12 -29 58 0 40 -4 58 -14 62 -8 3 -47
49 -87 102 -67 89 -73 95 -88 80 -15 -16 -14 -18 3 -28 45 -28 69 -54 63 -70
-5 -13 -11 -14 -34 -6 -69 23 -116 98 -129 203 -6 53 -8 58 -20 41 -22 -30
-16 -87 17 -163 l31 -70 -46 -88 c-69 -132 -115 -203 -117 -179 -3 43 4 62 44
130 23 39 47 84 54 100 12 31 17 115 7 115 -3 0 -26 -14 -50 -32 -44 -31 -94
-91 -150 -177 -28 -44 -29 -44 -32 -18 -4 36 45 124 114 204 55 62 61 73 44
73 -22 0 -87 -71 -162 -177 -43 -62 -83 -115 -89 -118 -5 -4 -1 -18 11 -32 24
-31 25 -53 4 -124 -9 -30 -20 -74 -24 -99 l-7 -45 -12 30 c-13 29 -10 154 5
217 5 21 3 26 -13 25 -31 -3 -26 35 12 88 28 40 32 51 19 53 -8 2 -24 -4 -35
-14 -24 -22 -24 -13 2 37 20 41 114 139 290 304 56 53 109 112 127 144 29 52
30 56 15 85 -8 16 -39 92 -68 169 -29 76 -70 166 -91 200 -35 56 -38 66 -36
131 1 39 6 86 12 105 12 42 6 50 -20 26 -27 -25 -34 -71 -21 -157 9 -58 25
-102 81 -213 45 -89 73 -158 77 -189 9 -73 -15 -56 -55 40 -18 43 -37 83 -41
87 -20 20 -16 -49 7 -111 13 -37 31 -93 40 -124 13 -53 13 -62 -2 -103 -10
-25 -22 -45 -27 -45 -5 0 -9 39 -9 88 0 87 -12 131 -38 140 -11 3 -13 -7 -8
-49 21 -209 19 -232 -14 -117 -10 35 -25 81 -33 103 l-15 40 -7 -28 c-4 -16
-5 -69 -3 -117 6 -106 -2 -127 -31 -80 -38 64 -39 124 0 269 11 40 18 76 15
78 -9 10 -27 -9 -51 -55 -14 -26 -31 -55 -37 -64 -10 -14 -9 -27 2 -65 17 -55
20 -254 6 -318 l-9 -40 -8 63 c-4 35 -16 87 -26 115 l-18 52 -6 -135 c-5 -140
-23 -206 -62 -239 -14 -11 -18 -11 -24 5 -4 11 6 41 30 85 37 66 47 109 26
109 -5 0 -21 -24 -33 -53 -23 -52 -69 -107 -53 -63 4 11 17 96 27 190 26 216
46 329 71 385 24 54 24 61 0 61 -11 0 -23 5 -26 10 -4 6 5 61 20 122 29 121
35 243 14 293 l-12 30 -13 -40 c-7 -22 -13 -71 -13 -110 -2 -107 -18 -231 -36
-269 -21 -44 -16 -70 13 -74 27 -4 27 -1 1 -87 -11 -39 -23 -119 -27 -180 -7
-100 -8 -108 -21 -86 -16 28 -17 148 -1 201 15 51 14 65 -5 50 -8 -7 -15 -20
-15 -30 0 -9 -9 -29 -20 -43 -15 -18 -20 -40 -20 -80 0 -55 -12 -81 -24 -51
-3 9 -6 49 -6 91 0 71 2 77 34 115 35 41 53 88 41 108 -10 16 -29 -3 -50 -50
-39 -85 -45 -36 -15 110 20 98 26 180 12 180 -20 0 -32 -28 -32 -72 0 -40 -4
-50 -25 -64 -14 -9 -28 -14 -31 -11 -4 3 18 77 47 164 29 87 62 196 74 242
l22 84 6 -69 c6 -68 -7 -365 -19 -414 -5 -24 -5 -24 11 -5 27 34 45 114 60
280 16 172 31 238 66 290 31 44 56 60 75 44 23 -19 16 -51 -21 -98 -37 -47
-49 -77 -43 -108 3 -14 10 -9 29 22 l24 40 3 -130 c3 -127 -16 -348 -43 -503
-14 -81 0 -96 23 -26 7 21 19 44 27 50 10 8 15 31 15 75 0 35 7 123 15 194 8
72 15 163 15 203 0 39 4 72 9 72 14 0 22 -65 15 -118 -5 -43 -2 -56 25 -103
l31 -54 0 135 c0 157 19 296 48 363 23 52 49 65 37 20 -3 -16 -9 -43 -12 -62
-8 -51 19 -35 32 20 15 59 39 60 43 2 2 -24 6 -43 10 -43 4 0 16 16 26 35 21
38 53 71 61 63 3 -3 -4 -29 -15 -58 -11 -29 -18 -55 -15 -58 14 -15 41 19 50
63 7 31 19 53 33 63 30 20 36 11 22 -32 -16 -48 -8 -83 9 -41 12 29 13 29 27
11 8 -11 14 -27 14 -35 1 -13 3 -12 15 3 13 18 15 18 21 2 4 -10 4 -39 1 -66
-5 -39 -2 -54 13 -72 l18 -23 7 49 c4 27 5 78 2 114 -6 62 -6 64 12 48 9 -9
21 -16 24 -16 4 0 7 32 7 71 0 51 3 70 12 67 7 -3 16 -19 19 -38z m129 -16 c0
-19 -4 -34 -9 -34 -11 0 -21 49 -14 67 9 23 23 3 23 -33z m3813 16 c26 -16 52
-30 57 -30 16 0 11 -20 -6 -27 -19 -7 -55 9 -100 45 -63 50 -26 60 49 12z
m-103 -25 c23 -19 49 -35 57 -35 31 0 5 -25 -29 -28 -29 -2 -36 1 -41 17 -3
12 -17 25 -31 31 -28 10 -29 11 -20 34 9 23 17 20 64 -19z m-6191 -73 c33 -52
51 -117 41 -146 -5 -16 -9 -14 -27 16 -21 37 -56 124 -67 172 -6 26 -5 28 8
17 8 -7 28 -34 45 -59z m6109 36 c11 -13 25 -36 31 -51 13 -34 15 -117 3 -117
-16 0 -60 94 -67 143 -8 52 0 59 33 25z m-3598 -90 c0 -37 13 -51 23 -25 4 9
7 9 18 -1 10 -9 13 -36 11 -99 -2 -48 -6 -91 -9 -96 -10 -16 -23 16 -23 56 0
36 -13 50 -23 25 -5 -11 -11 42 -9 63 1 4 -3 33 -8 64 -5 32 -7 62 -3 67 10
17 23 -14 23 -54z m465 0 c24 -11 33 -32 18 -41 -11 -6 -93 39 -86 47 10 10
40 7 68 -6z m-1208 -14 c5 -14 -24 -50 -32 -42 -11 11 4 60 17 56 7 -3 13 -9
15 -14z m1139 -127 c17 -23 34 -50 37 -60 7 -17 6 -17 -24 0 -97 58 -168 136
-169 186 0 15 14 7 62 -33 34 -29 76 -71 94 -93z m-2891 9 c43 -86 30 -112
-25 -50 -38 44 -50 73 -50 122 l0 37 25 -30 c13 -16 36 -52 50 -79z m2778 -20
c64 -49 133 -123 123 -133 -4 -4 -207 107 -228 125 -13 11 -18 30 -18 71 l0
56 25 -31 c13 -17 58 -57 98 -88z m-2949 17 c27 -81 44 -173 32 -173 -4 0 -25
9 -47 21 -23 11 -47 18 -55 15 -19 -7 -18 15 6 93 11 36 22 78 25 94 3 15 7
27 9 27 3 0 16 -35 30 -77z m3266 16 c0 -22 -8 -22 -52 -4 -28 11 -21 -11 16
-52 39 -44 50 -74 42 -109 l-7 -25 -39 32 c-41 33 -44 49 -8 49 20 0 20 1 4
19 -9 10 -37 26 -62 36 -25 9 -43 22 -41 29 6 19 70 46 110 46 31 0 37 -3 37
-21z m-4184 -23 c3 -14 2 -32 -3 -41 -9 -15 -11 -15 -22 -1 -14 17 -7 66 9 66
5 0 12 -11 16 -24z m2502 -14 c3 -17 -2 -22 -17 -22 -14 0 -21 6 -21 18 0 38
33 41 38 4z m4272 8 c0 -26 -49 -102 -61 -94 -14 8 -11 25 16 71 28 46 45 55
45 23z m-6664 -47 c-4 -16 -10 -70 -13 -121 -4 -76 -8 -92 -20 -88 -8 3 -16 6
-19 6 -2 0 -13 18 -24 40 -29 57 -27 134 5 165 13 14 36 25 51 25 24 0 26 -3
20 -27z m943 -8 c20 -27 37 -82 27 -92 -3 -3 -19 8 -36 25 -20 21 -30 40 -30
61 0 38 12 39 39 6z m2644 -2 c8 -16 17 -53 20 -83 3 -30 9 -64 13 -75 7 -20
7 -20 -14 -1 -23 20 -36 58 -47 139 -7 53 6 63 28 20z m-1243 -108 c-37 -109
-72 -173 -121 -221 -28 -28 -42 -35 -50 -27 -8 8 -4 23 16 57 14 25 25 56 23
68 -3 19 -14 6 -62 -66 -33 -50 -62 -84 -64 -77 -7 21 83 192 130 245 42 48
120 106 144 106 9 0 4 -26 -16 -85z m-2260 11 c0 -29 -24 -61 -38 -52 -13 8
-16 57 -5 95 l6 24 19 -22 c10 -13 18 -33 18 -45z m310 19 c172 -22 252 -35
668 -112 311 -58 362 -70 362 -85 0 -19 -41 -35 -60 -23 -5 3 -88 19 -183 35
-94 16 -318 53 -497 84 -179 30 -373 60 -433 67 -66 8 -106 17 -104 23 7 21
52 37 87 31 19 -3 91 -12 160 -20z m3389 -20 c22 -25 31 -46 31 -70 0 -42 -15
-46 -25 -7 -7 25 -9 24 -25 -28 l-16 -55 -8 40 c-4 22 -18 64 -32 94 -13 29
-24 55 -24 57 0 2 15 4 34 4 26 0 41 -8 65 -35z m-86 -57 c15 -23 -9 -53 -29
-37 -20 17 -18 61 2 57 9 -2 22 -10 27 -20z m-2193 -103 c0 -65 -13 -93 -24
-52 -8 29 -8 91 0 111 12 32 24 3 24 -59z m2079 24 c59 -26 108 -64 132 -103
33 -53 24 -60 -35 -27 -29 17 -57 31 -62 31 -4 0 12 -21 36 -46 38 -38 50 -44
73 -40 31 6 33 -3 12 -45 -9 -16 -13 -34 -10 -39 15 -24 -17 -5 -100 61 -49
39 -103 77 -119 86 -41 20 -39 18 -26 42 6 12 11 41 12 66 1 51 1 51 87 14z
m491 -24 c6 -19 19 -39 28 -44 13 -8 14 -12 5 -22 -10 -10 -17 -9 -34 7 -23
20 -49 73 -49 99 0 28 37 -2 50 -40z m-2494 -51 c-4 -13 -11 -22 -16 -19 -12
7 -13 75 -3 102 10 26 27 -49 19 -83z m-986 55 c0 -12 -7 -19 -19 -19 -28 0
-37 21 -16 36 22 16 35 10 35 -17z m-110 -5 c14 -35 2 -92 -21 -105 -18 -9
-19 -5 -19 45 0 85 20 114 40 60z m3503 -38 c2 3 27 -17 55 -45 28 -28 62 -53
76 -57 32 -8 34 -24 4 -24 -37 0 -122 45 -151 79 -32 39 -37 67 -8 52 10 -6
21 -8 24 -5z m-3125 -18 c-5 -15 -42 -22 -64 -14 -25 10 -5 26 32 26 24 0 34
-4 32 -12z m120 -73 c2 -33 8 -65 13 -72 7 -8 7 -18 0 -32 -14 -24 -14 -101
-2 -101 6 0 17 10 25 22 12 17 16 49 16 128 1 97 2 104 16 85 13 -17 15 -40
10 -136 -3 -64 -3 -119 1 -123 12 -12 53 37 53 63 0 14 -7 51 -15 81 -23 86
-18 102 14 40 16 -30 46 -72 66 -93 33 -34 38 -44 39 -93 0 -30 4 -54 7 -54 3
0 14 9 24 20 16 17 17 31 12 107 l-7 88 20 -25 c16 -21 20 -41 20 -117 0 -56
4 -93 10 -93 10 0 30 39 45 85 6 19 7 19 20 1 10 -12 12 -34 8 -67 -4 -31 -2
-49 5 -49 18 0 23 32 16 102 -5 47 -3 68 4 68 23 0 45 -66 50 -143 4 -75 5
-77 23 -61 10 9 24 32 31 50 16 45 28 33 28 -29 0 -41 2 -48 13 -38 7 7 12 38
12 73 0 40 4 63 13 65 9 4 12 -17 12 -81 0 -47 4 -86 9 -86 20 0 41 33 41 66
0 24 5 34 15 34 11 0 15 -12 15 -49 0 -53 7 -65 30 -51 11 7 11 16 1 52 -14
49 -12 103 4 103 12 0 30 -69 38 -151 l6 -62 -39 -6 c-30 -5 -48 -16 -77 -51
-37 -45 -63 -58 -63 -31 0 7 8 24 19 37 23 30 36 69 22 69 -5 0 -40 -27 -78
-60 -37 -33 -70 -60 -74 -60 -4 0 -12 7 -19 15 -11 14 -7 22 28 58 23 24 42
46 42 50 0 20 -42 1 -94 -43 -32 -28 -68 -56 -80 -62 -21 -11 -96 -29 -96 -22
0 2 28 25 63 51 35 26 64 53 64 58 1 14 -15 8 -70 -27 -38 -24 -51 -28 -60
-19 -9 10 -1 22 37 57 59 52 56 67 -5 25 -46 -32 -99 -50 -99 -34 0 6 18 28
41 51 37 38 44 62 18 62 -5 0 -32 -20 -58 -45 -32 -30 -54 -43 -65 -39 -26 10
-19 32 27 74 58 54 35 50 -33 -5 -85 -70 -108 -55 -45 29 47 60 31 59 -32 -4
-59 -58 -93 -69 -68 -20 19 36 21 60 3 42 -34 -34 -36 -1 -6 120 18 73 20 99
12 151 -11 74 -7 120 9 114 7 -2 13 -29 15 -62z m-625 16 c3 -16 2 -68 -3
-116 -5 -49 -7 -92 -4 -97 8 -13 -21 -9 -34 4 -15 15 -16 72 -2 99 12 22 7 24
-22 8 -18 -10 -19 -17 -13 -64 4 -36 2 -55 -5 -60 -22 -14 -32 13 -33 87 -2
84 12 116 66 148 41 26 43 25 50 -9z m175 -51 c-2 -19 -7 -35 -13 -35 -13 0
-19 59 -10 94 l7 26 10 -25 c5 -13 8 -40 6 -60z m359 44 c7 -10 12 -19 10 -20
-1 -2 -44 0 -96 3 -62 4 -99 11 -112 22 -19 15 -13 16 83 14 84 -1 104 -5 115
-19z m1407 -96 c29 -96 77 -358 65 -358 -4 0 -11 5 -14 10 -3 6 -10 10 -16 10
-16 0 -10 -57 12 -112 12 -29 24 -73 28 -98 l6 -45 25 39 c13 22 26 34 28 27
9 -27 -10 -79 -47 -128 -34 -44 -38 -53 -25 -64 12 -10 20 -7 43 15 33 31 67
32 64 1 -2 -26 -41 -172 -55 -208 -15 -39 -32 -29 -39 24 -5 44 -5 44 -17 16
-9 -22 -9 -37 4 -74 9 -25 13 -59 10 -75 -3 -15 -1 -28 4 -28 26 0 -11 -93
-96 -247 -29 -52 -39 -62 -50 -52 -27 22 -15 59 37 114 51 54 51 54 39 91 -12
36 -10 116 5 234 6 41 5 44 -9 26 -8 -10 -20 -44 -27 -74 -10 -51 -12 -54 -25
-37 -25 34 -17 109 21 198 7 16 5 16 -18 6 -28 -13 -57 -63 -57 -101 0 -12 -4
-29 -9 -37 -7 -11 -14 -7 -30 20 -23 38 -22 58 11 147 16 42 23 52 36 47 42
-18 49 -15 91 35 26 31 49 49 57 46 17 -7 17 17 -1 64 -7 19 -17 34 -23 33 -5
-1 -12 14 -15 35 -11 63 -90 302 -99 296 -4 -3 -8 -49 -8 -102 0 -134 -16
-266 -40 -345 -11 -37 -24 -67 -27 -67 -4 0 -15 7 -24 16 -17 16 -19 15 -29
-10 -5 -15 -13 -52 -16 -82 -4 -30 -10 -54 -14 -54 -15 0 -32 89 -25 127 8 43
43 114 91 187 32 48 69 126 60 126 -2 0 -54 -61 -116 -135 -112 -135 -146
-159 -121 -83 14 39 28 58 60 81 22 15 23 17 6 23 -13 5 -27 -3 -53 -30 -25
-29 -36 -35 -42 -25 -13 20 5 44 48 63 63 29 130 152 237 436 49 129 63 160
70 160 2 0 16 -37 29 -82z m1708 56 c145 -52 234 -108 263 -165 22 -41 19 -44
-17 -14 -17 14 -86 52 -152 84 -69 33 -134 72 -150 90 -17 17 -27 31 -23 31 3
0 39 -12 79 -26z m-3167 -4 c11 -5 15 -9 10 -9 -6 -1 -42 -8 -80 -16 -68 -14
-145 -11 -145 6 0 21 174 37 215 19z m2305 -58 c14 -34 34 -68 44 -75 16 -12
19 -25 17 -89 -1 -41 3 -97 10 -124 24 -100 50 -133 242 -312 64 -61 67 -65
67 -111 0 -35 -8 -59 -30 -94 -16 -26 -31 -47 -34 -47 -2 0 0 19 5 41 20 86
-23 169 -161 315 -144 152 -183 247 -157 377 l8 37 -41 -6 -40 -7 0 44 c0 58
18 121 33 116 7 -2 23 -31 37 -65z m180 23 c20 -32 20 -55 0 -55 -7 0 -40 70
-40 85 0 16 21 0 40 -30z m324 -47 c42 -45 76 -85 76 -90 0 -22 -47 -4 -79 31
-40 43 -98 141 -82 141 5 0 43 -37 85 -82z m-2446 39 c2 -10 1 -26 -3 -35 -6
-16 -8 -15 -21 2 -20 28 -18 58 3 54 10 -2 19 -11 21 -21z m965 -14 c18 -108
-54 -233 -205 -359 -49 -41 -95 -74 -103 -74 -31 0 -24 23 20 68 26 25 43 48
38 49 -22 8 -35 22 -29 31 3 6 37 22 75 36 97 38 112 57 121 158 6 72 11 85
34 105 36 31 42 29 49 -14z m1837 -38 c36 -14 77 -36 91 -48 24 -22 26 -29 26
-122 1 -96 0 -99 -14 -70 -20 40 -64 86 -140 146 -69 55 -103 103 -103 143 l0
26 38 -24 c20 -14 66 -36 102 -51z m-3600 -6 c0 -16 -4 -29 -10 -29 -12 0 -24
45 -15 60 11 18 25 1 25 -31z m464 21 c14 -5 26 -14 26 -20 0 -18 -45 -21 -95
-5 -27 8 -69 15 -92 15 -24 0 -43 5 -43 10 0 13 170 13 204 0z m2721 -33 c43
-45 77 -109 90 -164 11 -55 -12 -38 -49 35 -19 37 -44 77 -55 90 -25 25 -53
30 -45 7 4 -8 4 -15 1 -15 -3 0 -12 20 -20 45 l-16 45 26 0 c18 0 40 -14 68
-43z m-2869 -22 c27 -8 59 -15 72 -15 15 0 21 -4 16 -11 -5 -8 -31 -10 -83 -6
-89 8 -154 24 -146 38 9 14 86 11 141 -6z m3109 -11 c13 -8 26 -22 29 -30 3
-9 -9 -4 -29 12 -19 14 -35 28 -35 30 0 8 11 4 35 -12z m-486 -18 c7 -8 15
-41 18 -73 3 -32 12 -68 20 -81 14 -22 13 -23 -9 -20 -33 4 -58 60 -58 131 0
58 8 69 29 43z m-2601 -35 c24 -5 51 -16 60 -25 16 -16 15 -17 -8 -12 -14 4
-70 7 -125 9 -106 3 -155 16 -100 28 44 10 123 9 173 0z m3246 -34 c27 -28 56
-78 85 -145 25 -58 57 -115 76 -135 23 -24 30 -38 24 -48 -7 -12 -13 -11 -40
4 -17 9 -36 17 -44 17 -8 0 -16 19 -20 47 -15 100 -66 189 -147 253 -51 40
-52 50 -5 50 23 0 41 -11 71 -43z m246 21 c11 -13 33 -61 47 -108 14 -47 32
-98 40 -113 25 -50 3 -44 -49 13 -55 61 -124 190 -115 214 9 23 53 19 77 -6z
m-760 -28 c0 -4 12 -5 28 -3 15 2 34 -1 42 -6 12 -9 12 -15 -3 -46 -19 -39
-22 -65 -8 -65 5 0 11 7 15 15 7 19 26 19 26 0 0 -19 -46 -49 -65 -41 -8 3
-15 13 -15 23 0 10 -11 36 -25 58 -28 45 -37 126 -10 91 8 -11 15 -23 15 -26z
m-170 -90 c17 -22 71 -71 120 -110 49 -39 110 -94 135 -122 l46 -51 -23 -24
-22 -24 19 -54 c10 -30 22 -55 26 -55 17 0 42 66 41 106 -1 66 -54 149 -116
181 l-31 16 65 19 c36 10 84 17 108 16 40 -3 43 -2 37 19 -7 29 2 29 47 -2 44
-30 108 -125 177 -263 49 -97 56 -106 111 -140 57 -35 91 -75 77 -88 -11 -11
-90 24 -130 57 -53 44 -93 106 -149 233 -54 123 -57 129 -77 117 -11 -7 -10
-14 8 -39 11 -17 21 -35 21 -41 0 -18 -18 -13 -30 9 -10 19 -116 100 -132 100
-25 0 -1 -35 48 -67 81 -54 118 -144 94 -233 -19 -71 -44 -62 -56 19 l-7 43
-38 -82 c-46 -97 -69 -170 -69 -217 0 -23 -5 -33 -15 -33 -20 0 -20 76 0 152
26 99 -1 147 -180 323 -133 130 -167 189 -173 295 l-3 65 20 -44 c12 -23 35
-60 51 -81z m288 108 c14 -14 16 -64 2 -73 -5 -3 -12 7 -15 22 -4 15 -10 36
-16 46 -11 20 10 24 29 5z m-1810 -78 l0 -25 -8 25 c-4 14 -8 34 -8 45 l-1 20
9 -20 c5 -11 8 -31 8 -45z m-1335 22 c20 -18 23 -42 3 -42 -17 0 -31 17 -41
49 -8 25 2 23 38 -7z m182 8 c32 -11 70 -20 84 -21 24 0 24 -1 6 -9 -48 -21
-175 -3 -175 25 0 7 6 16 13 18 6 3 12 6 13 6 0 1 27 -8 59 -19z m3285 -5 c49
-26 88 -112 81 -180 -1 -5 -19 20 -41 57 -40 67 -74 99 -119 113 -18 6 -20 9
-10 16 21 13 57 11 89 -6z m-125 -39 c32 -14 65 -59 65 -90 0 -18 16 -29 30
-21 6 4 4 17 -5 36 -14 26 -14 30 0 35 32 12 47 -16 43 -78 -8 -107 -32 -101
-126 32 -34 48 -62 91 -62 94 0 10 18 7 55 -8z m-3157 -71 c55 -25 155 -118
264 -246 57 -66 57 -66 120 -73 85 -8 222 -46 370 -101 158 -59 299 -94 417
-102 l93 -6 -6 -38 c-23 -145 -149 -324 -319 -453 -71 -54 -52 -14 32 66 63
60 81 82 72 91 -9 9 -28 -6 -79 -61 -45 -47 -75 -72 -90 -72 -12 0 -22 3 -22
8 0 4 27 41 60 82 119 148 168 216 194 267 50 101 -29 23 -117 -114 -56 -87
-107 -145 -153 -174 -58 -36 -50 -13 22 61 51 53 65 73 56 82 -9 9 -28 -6 -80
-60 -53 -56 -75 -72 -97 -72 -25 0 -26 2 -14 17 8 10 34 36 58 59 41 41 47 64
15 64 -8 0 -29 -20 -47 -46 -17 -25 -33 -40 -35 -34 -10 28 15 65 94 142 77
74 114 122 114 145 0 4 -74 -66 -165 -157 -90 -90 -167 -162 -170 -158 -12 12
84 138 177 233 97 98 109 125 53 111 -34 -9 -69 -47 -143 -155 -70 -104 -137
-174 -180 -189 -17 -6 -32 -7 -32 -2 0 5 27 42 60 82 129 155 191 245 205 298
6 23 3 22 -25 -10 -17 -19 -69 -85 -116 -147 -83 -110 -192 -228 -201 -219 -8
7 16 46 133 213 63 89 114 164 114 167 0 2 -9 2 -20 -1 -26 -7 -65 -57 -124
-158 -25 -44 -55 -91 -66 -105 l-20 -25 0 28 c0 33 24 83 96 194 58 89 63 103
39 103 -28 0 -64 -46 -110 -141 -45 -92 -70 -129 -87 -129 -18 0 -6 32 27 69
26 28 32 42 24 47 -8 5 -28 -10 -56 -40 -36 -40 -43 -44 -43 -27 0 29 31 86
79 146 22 27 38 51 35 54 -9 10 -92 -82 -114 -126 -19 -38 -24 -43 -32 -29
-14 24 -3 48 57 121 30 37 55 71 55 75 0 24 -21 16 -53 -20 -57 -64 -98 -49
-61 21 8 17 13 34 9 37 -6 7 -17 -5 -41 -45 -11 -17 -13 -17 -30 -2 -11 9 -29
20 -41 23 -18 6 -43 50 -43 77 0 17 59 9 68 -8 9 -16 12 -16 36 1 l27 17 -30
35 c-17 19 -31 42 -31 52 -1 11 -6 7 -18 -13 l-17 -30 -3 50 c-2 28 -7 54 -13
60 -16 16 -34 -14 -34 -58 0 -32 -4 -42 -17 -45 -16 -3 -18 6 -18 88 0 69 -3
91 -12 87 -9 -3 -12 -28 -11 -86 1 -44 -1 -81 -6 -81 -12 0 -41 74 -48 125 -3
24 -1 57 5 74 13 36 1 48 -23 24 -14 -13 -16 -28 -11 -77 6 -57 -4 -99 -20
-84 -4 4 -6 48 -6 98 1 49 -3 90 -8 90 -17 0 -40 -44 -40 -77 0 -17 5 -44 10
-59 6 -15 8 -29 5 -32 -12 -13 -45 36 -57 87 l-14 55 41 43 c22 23 49 43 60
43 11 0 44 -11 73 -25z m211 -19 c25 -26 41 -106 22 -106 -13 0 -51 36 -51 48
0 5 -10 19 -22 32 -21 22 -21 23 -3 36 25 18 28 18 54 -10z m3588 -22 c35 -35
18 -51 -31 -30 -33 14 -45 34 -29 49 13 13 34 7 60 -19z m-204 -25 c24 -33 36
-114 16 -107 -17 5 -45 61 -53 106 -7 39 8 39 37 1z m-1783 -40 c0 -24 -4 -38
-10 -34 -5 3 -10 22 -10 41 0 19 5 34 10 34 6 0 10 -18 10 -41z m-2040 1 c0
-16 -4 -30 -9 -30 -4 0 -25 -11 -45 -25 l-36 -24 0 28 c0 33 43 81 71 81 14 0
19 -7 19 -30z m626 -1 c32 -12 73 -38 94 -59 37 -37 69 -105 56 -118 -12 -11
-95 -3 -124 12 -15 8 -39 27 -54 43 -27 28 -67 106 -68 131 0 18 32 15 96 -9z
m723 -19 c14 -48 6 -83 -17 -77 -18 3 -18 5 -7 50 10 39 -9 35 -57 -13 -37
-36 -74 -57 -83 -48 -5 4 66 79 100 106 39 31 50 28 64 -18z m191 27 c0 -7
-17 -30 -39 -51 -53 -52 -67 -28 -15 25 40 41 54 48 54 26z m323 -94 c0 -52
-18 -89 -46 -97 -12 -3 -23 -3 -26 -1 -2 3 8 31 23 64 14 32 26 71 26 87 1 27
2 27 12 9 6 -10 11 -39 11 -62z m2094 12 c12 -22 23 -51 23 -65 l-1 -25 -24
28 c-14 15 -25 34 -25 41 0 7 -9 21 -20 31 -11 10 -17 22 -14 27 12 18 39 2
61 -37z m-2967 17 c0 -27 -82 -72 -132 -72 -24 0 -13 24 20 46 38 25 112 42
112 26z m130 -1 c0 -17 -31 -41 -53 -41 -21 1 -21 2 6 25 29 26 47 32 47 16z
m-1081 -35 c15 -17 -4 -32 -91 -70 -31 -14 -59 -30 -63 -35 -9 -16 -25 -13
-25 4 0 68 141 147 179 101z m3628 0 c-6 -16 20 -26 69 -26 17 0 45 -3 61 -6
l30 -6 -15 -33 -16 -34 -28 20 c-15 11 -50 24 -77 28 -28 4 -58 14 -67 22 -15
12 -14 15 6 31 27 22 44 23 37 4z m-48 -94 c3 -1 -2 -9 -10 -18 -14 -14 -19
-11 -43 21 -36 46 -24 66 18 28 17 -15 33 -29 35 -31z m-2194 -11 c-8 -39 -19
-39 -35 -1 -10 24 -10 33 0 46 21 24 44 -5 35 -45z m2529 16 c31 -40 47 -102
25 -95 -8 2 -24 20 -36 39 -12 19 -31 46 -43 62 l-22 27 26 0 c17 0 33 -11 50
-33z m-1457 -63 c-3 -28 -19 -66 -45 -106 -56 -86 -72 -128 -72 -190 0 -52 0
-52 -17 -28 -24 34 -29 117 -9 165 23 56 129 213 140 207 4 -2 6 -24 3 -48z
m1386 4 c14 -24 62 -83 108 -132 l83 -88 -70 35 c-84 43 -127 83 -142 135 -12
38 -16 92 -8 92 2 0 15 -19 29 -42z m-3636 13 c42 -20 68 -52 59 -74 -2 -7 -8
-2 -11 11 -4 12 -11 22 -15 22 -15 0 -18 -39 -4 -59 10 -13 11 -22 4 -26 -16
-10 -38 12 -52 51 -14 40 -28 44 -28 9 0 -33 25 -81 47 -94 14 -7 15 -13 7
-21 -24 -24 -48 -5 -73 57 -19 50 -27 61 -38 52 -22 -19 -15 -45 27 -98 35
-44 38 -52 24 -58 -20 -7 -36 11 -76 86 -28 50 -48 66 -48 36 0 -24 25 -67 54
-94 32 -30 33 -51 4 -51 -49 0 -128 97 -128 159 0 12 -4 19 -10 16 -15 -9 -12
-52 5 -84 8 -16 35 -47 60 -69 25 -22 45 -42 45 -46 0 -3 -12 -6 -27 -6 -43 0
-108 76 -132 156 -26 82 -26 91 -2 104 77 41 239 52 308 21z m3525 -38 c12 4
22 -4 33 -26 19 -38 19 -37 -9 -37 -37 0 -74 17 -101 46 -35 38 -31 44 17 27
23 -8 50 -12 60 -10z m-2187 -24 c-19 -52 -19 -74 -1 -92 17 -17 5 -42 -17
-34 -32 12 -31 112 1 150 25 29 32 19 17 -24z m1089 -16 c6 -22 3 -55 -9 -109
-16 -71 -19 -76 -31 -59 -27 36 -10 212 19 202 6 -2 16 -17 21 -34z m74 -8
c23 -68 -13 -195 -54 -195 -13 0 -15 6 -10 28 4 15 9 69 13 120 5 78 8 92 22
90 9 -2 22 -21 29 -43z m108 -1 c4 -20 1 -53 -5 -74 -12 -40 -45 -89 -55 -80
-4 5 18 149 30 188 6 22 23 3 30 -34z m-2934 -62 c6 -31 21 -65 31 -75 14 -14
16 -22 7 -30 -17 -18 -46 23 -70 100 -26 86 -27 102 0 78 10 -9 25 -42 32 -73z
m-46 -60 c19 -47 14 -62 -12 -41 -22 18 -44 71 -44 106 l0 28 20 -25 c11 -14
27 -44 36 -68z m491 43 c2 -6 -3 -20 -11 -30 -14 -19 -16 -19 -32 -3 -22 22
-11 50 18 46 12 -2 23 -8 25 -13z m3464 5 c16 0 19 -7 19 -48 0 -27 -6 -57
-14 -67 -13 -18 -14 -18 -24 1 -6 11 -15 43 -20 72 -8 45 -7 52 5 48 8 -3 23
-6 34 -6z m-1246 -53 c-8 -66 10 -142 59 -251 39 -86 47 -157 21 -192 -14 -18
-14 -18 -16 6 -1 14 -3 48 -3 75 -1 40 -13 74 -58 165 -71 144 -77 184 -32
225 15 14 29 25 31 25 3 0 1 -24 -2 -53z m-2137 26 c44 -10 23 -103 -23 -103
-31 0 -31 7 -3 37 31 33 13 42 -20 10 -29 -28 -52 -35 -52 -17 0 6 9 29 21 51
15 31 24 39 37 34 9 -4 27 -10 40 -12z m2691 -20 c5 -21 12 -82 15 -137 3 -57
12 -111 21 -129 18 -37 16 -41 -13 -21 -40 27 -75 112 -80 191 -7 112 35 183
57 96z m135 2 c7 -29 0 -48 -15 -40 -12 8 -12 65 0 65 5 0 12 -11 15 -25z
m327 -1 c10 -13 10 -17 -2 -25 -20 -13 -27 -11 -38 10 -17 31 16 44 40 15z
m-1517 -36 c17 -24 20 -113 7 -238 l-6 -65 -13 35 c-28 73 -36 290 -11 290 4
0 15 -10 23 -22z m-2273 -22 c15 -32 -16 -100 -48 -104 -20 -3 -21 -2 -7 35 7
21 13 50 14 66 0 34 26 36 41 3z m3244 -146 c0 -63 -5 -94 -18 -117 -10 -18
-21 -33 -25 -33 -4 0 -4 46 -1 102 4 57 8 126 9 153 l2 50 16 -35 c11 -24 16
-63 17 -120z m650 141 c-3 -5 -30 -15 -60 -21 -61 -13 -89 -5 -60 17 21 15
130 18 120 4z m-721 -84 c10 -49 7 -110 -10 -198 -18 -90 -24 -252 -11 -265
14 -14 27 19 27 72 0 27 6 58 13 68 29 40 77 -26 57 -79 -6 -15 -8 -30 -5 -34
14 -13 40 20 51 65 11 45 12 37 14 -101 1 -82 4 -141 7 -130 2 11 25 87 51
168 40 130 48 146 59 131 23 -31 15 -100 -22 -193 -33 -86 -54 -171 -41 -171
11 0 44 76 66 155 24 86 50 144 73 163 10 9 8 -10 -10 -69 -30 -106 -30 -131
0 -127 20 3 22 9 25 68 2 36 7 69 12 74 14 14 23 -40 17 -111 -2 -36 -1 -61 3
-56 14 15 139 338 150 388 6 27 10 63 8 79 -3 29 -3 29 82 47 96 20 140 23
140 10 0 -15 -20 -24 -105 -46 -55 -14 -80 -25 -80 -35 0 -22 39 -24 92 -6 51
18 123 21 123 7 0 -16 -41 -40 -109 -62 -61 -21 -131 -72 -117 -86 3 -3 12 -1
19 5 50 42 267 106 395 117 79 7 90 -1 45 -33 -40 -27 -51 -30 -191 -52 -69
-12 -145 -29 -169 -40 -41 -18 -43 -21 -43 -63 0 -34 -9 -57 -40 -106 -82
-126 -96 -178 -66 -246 l13 -30 7 39 c4 22 28 90 53 150 26 65 47 134 50 167
l5 55 82 17 c158 33 199 15 61 -28 -46 -14 -87 -30 -90 -35 -12 -20 24 -21 62
-2 21 11 52 22 68 26 56 11 305 26 331 20 23 -6 19 -9 -32 -25 -33 -10 -71
-20 -86 -24 -16 -3 -28 -12 -28 -20 0 -22 64 -19 135 5 60 21 145 27 145 11 0
-11 -45 -44 -72 -54 -10 -3 -66 -11 -125 -17 -129 -13 -203 -32 -228 -60 -18
-20 -18 -20 28 -20 25 0 106 13 179 30 156 34 273 53 291 47 24 -9 -100 -55
-238 -87 -156 -36 -167 -40 -139 -51 47 -18 98 -11 304 46 30 8 67 15 83 15
26 0 28 -2 16 -16 -24 -29 -103 -62 -186 -77 -76 -15 -143 -40 -143 -54 0 -11
203 8 237 22 22 9 37 25 44 45 l11 30 99 0 c63 0 99 -4 99 -11 0 -16 -73 -44
-200 -79 -110 -29 -240 -81 -240 -96 0 -3 8 -3 18 1 9 4 74 13 143 20 132 14
161 24 178 62 10 21 16 23 97 23 78 0 85 -2 73 -16 -26 -32 -117 -67 -228 -90
-62 -13 -116 -26 -120 -29 -3 -4 123 -5 282 -3 234 2 284 1 270 -10 -35 -25
-101 -35 -293 -42 -107 -5 -212 -13 -232 -19 -34 -11 -103 -59 -95 -67 1 -2
32 9 67 24 60 25 76 27 200 27 107 0 143 -4 174 -18 22 -9 36 -20 32 -24 -4
-4 -82 -7 -174 -8 -180 0 -231 -10 -173 -35 23 -9 65 -11 146 -8 150 7 233 -7
195 -33 -9 -6 -58 -8 -125 -4 -89 5 -114 3 -130 -9 -20 -14 -20 -15 5 -24 20
-7 7 -10 -60 -14 -159 -8 -145 -37 25 -48 80 -6 124 -13 141 -25 28 -18 38
-16 29 7 -4 9 -20 19 -36 24 -37 11 -40 25 -8 42 34 18 126 9 227 -23 81 -26
82 -26 82 -60 0 -24 7 -39 25 -53 24 -19 24 -32 -1 -32 -7 0 -47 16 -88 35
-83 38 -96 41 -96 23 0 -27 19 -41 71 -52 62 -14 73 -31 27 -41 -31 -7 -29
-10 92 -70 69 -35 134 -72 144 -84 29 -31 1 -27 -56 10 -54 35 -154 56 -131
27 7 -8 56 -39 108 -69 129 -72 195 -126 222 -179 12 -25 20 -46 18 -48 -2 -3
-34 23 -71 57 -111 101 -223 166 -324 186 -54 11 -27 -10 97 -74 110 -58 135
-81 88 -81 -33 0 -55 12 -127 67 -57 44 -128 80 -128 66 0 -23 54 -68 120
-101 44 -22 76 -44 78 -54 5 -26 -32 -23 -76 7 -37 25 -62 32 -62 17 0 -16 77
-81 163 -136 48 -32 87 -62 87 -68 0 -24 -66 5 -139 62 -43 33 -83 60 -90 60
-31 0 1 -39 69 -85 75 -50 93 -77 55 -83 -14 -2 -33 10 -53 33 -34 37 -46 42
-58 24 -3 -6 22 -38 59 -73 36 -33 70 -72 77 -84 10 -20 1 -16 -44 18 -31 24
-59 40 -62 37 -8 -7 70 -106 111 -140 35 -28 103 -57 137 -57 15 0 17 -3 8
-19 -25 -47 -69 -36 -159 39 -106 88 -92 42 19 -67 67 -66 87 -103 56 -103 -8
0 -27 16 -42 35 -14 19 -30 32 -35 30 -4 -3 -15 7 -23 23 -36 70 -166 141
-272 150 -68 5 -91 -11 -29 -21 58 -9 161 -65 208 -112 45 -44 77 -113 77
-163 0 -24 -1 -24 -19 -8 -17 15 -39 60 -55 110 -5 14 -10 16 -18 8 -8 -8 -2
-29 23 -79 19 -37 36 -72 37 -76 2 -4 -8 -5 -22 -1 -34 8 -34 -7 -2 -100 30
-87 35 -118 19 -123 -6 -2 -20 23 -33 61 -22 66 -43 90 -35 39 22 -139 25
-166 21 -171 -3 -2 -8 4 -11 14 -19 63 -106 215 -147 257 -35 35 -44 49 -33
53 8 4 27 -9 46 -30 32 -37 69 -48 69 -21 0 27 -61 84 -102 95 -39 11 -98 5
-98 -9 0 -4 22 -33 49 -64 74 -89 103 -149 109 -227 2 -38 0 -75 -6 -86 -10
-17 -12 -17 -22 11 -6 16 -9 40 -7 53 3 14 0 21 -7 19 -6 -2 -12 -25 -14 -50
-2 -26 -7 -47 -12 -47 -17 0 -40 98 -41 178 -2 67 -16 67 -24 -1 -8 -64 4
-132 51 -289 20 -67 38 -145 41 -175 5 -47 4 -53 -11 -47 -21 8 -36 36 -36 68
0 14 -5 26 -10 26 -21 0 -21 -29 0 -70 12 -23 20 -49 18 -58 -6 -26 -61 62
-62 98 -1 17 -5 30 -9 30 -18 0 -19 -36 -2 -86 10 -30 16 -57 12 -60 -9 -9
-57 70 -72 120 -16 53 -11 76 14 69 12 -3 25 4 34 17 14 21 16 21 26 3 8 -14
10 -5 11 42 0 39 -13 103 -36 185 -27 95 -35 144 -36 204 0 51 -3 74 -9 65
-18 -29 -10 -199 17 -316 14 -63 23 -117 20 -120 -9 -9 -56 95 -72 159 -8 35
-18 132 -21 216 -3 83 -9 152 -13 152 -18 0 -35 -70 -34 -135 1 -49 15 -121
48 -243 26 -96 45 -176 42 -179 -9 -9 -65 114 -85 187 -21 75 -40 218 -44 335
l-2 70 -17 -32 c-24 -44 -23 -135 3 -236 53 -206 53 -262 0 -168 -38 70 -52
138 -59 301 l-7 155 -20 -55 c-40 -111 -19 -304 47 -433 24 -49 93 -124 130
-143 21 -11 28 -22 28 -43 0 -16 7 -45 16 -66 8 -20 14 -44 12 -53 -3 -13 -12
-9 -41 20 -28 27 -37 44 -37 69 0 30 -2 32 -15 18 -14 -14 -14 -20 4 -59 22
-49 20 -60 -4 -40 -24 20 -54 83 -61 129 -7 46 -19 46 -29 0 -5 -20 -1 -38 10
-55 16 -24 16 -26 -2 -22 -33 6 -101 164 -79 185 3 4 17 -4 31 -17 14 -13 27
-21 30 -18 3 2 -11 50 -29 106 -54 160 -69 239 -63 344 2 51 8 104 12 118 l8
25 -22 -20 c-60 -53 -64 -103 -20 -306 27 -129 40 -281 25 -297 -3 -2 -13 -2
-22 2 -13 5 -15 15 -9 59 5 47 5 50 -9 33 -24 -29 -42 -13 -66 58 -12 36 -27
69 -34 73 -15 9 -29 127 -30 244 -1 68 2 79 28 113 15 21 26 38 25 39 -71 37
-75 55 -56 207 10 69 17 168 17 220 l0 93 -21 -19 c-30 -27 -39 -6 -39 95 l0
85 35 -34 c19 -19 35 -42 35 -51 0 -36 16 -26 43 24 15 29 58 87 97 130 38 43
70 80 70 83 0 4 -12 3 -27 -1 -47 -11 -90 -52 -119 -111 -22 -46 -29 -53 -37
-39 -15 28 13 104 65 172 26 35 48 66 48 69 0 15 -40 0 -61 -23 -65 -73 -89
-113 -89 -147 0 -41 -8 -66 -22 -66 -7 0 -9 30 -6 83 3 69 9 92 36 142 18 32
30 60 28 63 -12 11 -46 -23 -60 -60 -13 -36 -56 -257 -56 -290 0 -5 -4 -7 -9
-4 -32 20 -18 189 28 335 29 92 27 107 -9 71 -33 -33 -41 -67 -50 -204 -5 -71
-11 -131 -14 -133 -2 -3 -14 -2 -26 2 -16 5 -21 13 -17 28 3 12 8 38 12 57 l8
35 -21 -19 c-24 -21 -23 -22 -42 53 l-11 43 -28 -26 c-15 -14 -30 -23 -34 -19
-4 3 -7 27 -7 52 0 33 -3 42 -10 31 -5 -8 -10 -26 -10 -40 l0 -24 -22 22 c-18
17 -23 36 -26 92 -2 38 -8 70 -12 70 -11 0 -23 -57 -16 -69 4 -5 2 -12 -3 -15
-16 -10 -19 61 -5 135 16 83 18 177 5 198 -7 11 -13 7 -25 -17 -12 -23 -16
-61 -16 -154 0 -136 -9 -169 -30 -117 -16 37 -17 68 -5 161 8 67 -7 158 -26
158 -21 0 -24 -287 -3 -359 10 -33 -11 -19 -34 22 -15 28 -17 59 -15 250 1
119 -2 217 -6 217 -5 0 -15 -15 -22 -32 -26 -64 -14 -285 27 -487 6 -26 4 -32
-6 -26 -22 14 -60 114 -71 190 -6 41 -15 72 -20 69 -5 -3 -9 -42 -10 -87 l-1
-82 -25 95 c-29 115 -42 326 -24 409 6 30 10 56 7 58 -7 8 -57 -110 -83 -197
-20 -66 -27 -117 -32 -225 l-6 -140 -23 35 c-20 30 -23 44 -18 95 3 33 17 98
31 145 34 112 36 170 9 207 -12 15 -28 29 -36 31 -13 2 -16 -25 -23 -183 -4
-102 -10 -198 -14 -212 l-7 -27 -13 33 c-15 34 -11 145 9 296 11 81 5 221 -10
245 -12 20 -37 -36 -49 -110 -6 -34 -13 -65 -16 -68 -2 -3 -12 12 -21 34 -16
38 -15 107 1 147 5 13 2 17 -14 17 -33 0 -44 -34 -36 -114 5 -57 4 -69 -6 -59
-18 18 -24 220 -10 339 7 54 21 134 32 178 l20 79 -25 52 c-27 54 -31 76 -19
89 11 11 50 -42 57 -77z m-486 39 c12 -18 38 -70 57 -115 19 -46 42 -92 50
-104 14 -21 14 -22 -17 -33 -32 -11 -33 -13 -30 -60 l3 -49 -21 27 c-30 39
-59 110 -65 160 -8 63 -11 208 -5 208 3 0 15 -15 28 -34z m-1000 -49 c-6 -76
-39 -143 -105 -217 -43 -49 -153 -130 -175 -130 -5 0 32 45 82 101 91 101 158
203 180 272 17 54 23 45 18 -26z m661 -10 c6 -29 15 -79 21 -112 6 -33 13 -71
16 -85 l6 -25 -21 23 c-28 32 -50 110 -58 202 -6 68 -5 74 10 62 9 -8 20 -37
26 -65z m727 52 c15 -17 20 -40 22 -108 3 -66 1 -83 -8 -75 -11 11 -59 165
-60 192 0 19 25 14 46 -9z m-2596 -127 c0 -87 -3 -113 -12 -110 -14 5 -24 207
-13 237 14 36 25 -19 25 -127z m3638 106 c-2 -18 -11 -24 -36 -26 -31 -3 -32
-3 -20 22 15 35 61 37 56 4z m-2168 -52 c-1 -45 -32 -108 -71 -140 -48 -40
-50 -14 -5 53 38 56 58 112 50 139 -5 14 -2 13 10 -2 9 -11 16 -34 16 -50z
m931 26 c28 -40 44 -83 54 -149 7 -44 -2 -123 -13 -123 -7 0 -66 211 -78 278
-8 42 5 40 37 -6z m98 28 c10 -5 29 -33 41 -62 31 -71 32 -164 1 -233 -22 -47
-23 -49 -32 -26 -5 13 -14 78 -19 145 -6 67 -13 136 -16 154 -7 34 -3 38 25
22z m911 -10 c11 -7 9 -11 -13 -19 -16 -6 -43 -11 -60 -11 l-32 0 30 20 c33
22 52 25 75 10z m-3630 -116 c3 -47 1 -88 -4 -91 -4 -3 -17 3 -28 14 -17 18
-19 28 -12 107 6 80 8 86 23 71 11 -11 17 -41 21 -101z m149 63 c0 -23 -4 -60
-8 -82 l-8 -40 -11 28 c-15 35 -15 87 -2 122 14 37 30 22 29 -28z m2113 18 c4
-15 12 -32 19 -36 12 -7 4 -29 -11 -29 -13 0 -40 55 -40 80 0 30 22 20 32 -15z
m1183 19 c30 -20 24 -34 -14 -34 -31 0 -57 23 -46 40 9 15 32 12 60 -6z
m-3385 -93 c0 -98 -11 -137 -24 -84 -9 34 4 183 15 183 5 0 9 -45 9 -99z
m3226 46 c3 -8 0 -25 -5 -39 -8 -20 -7 -28 5 -32 19 -7 18 -56 -2 -106 -21
-51 -39 -46 -38 9 1 42 0 43 -28 37 -18 -4 -28 -1 -28 7 0 72 77 172 96 124z
m-3018 -77 c-2 -19 -7 -35 -13 -35 -12 0 -19 80 -10 104 10 24 27 -25 23 -69z
m2092 -6 c12 -51 13 -154 1 -154 -23 0 -62 183 -46 211 11 17 35 -13 45 -57z
m1536 57 c-9 -14 -122 -37 -160 -32 -5 1 -1 10 9 21 15 16 31 20 87 20 38 0
67 -4 64 -9z m-1666 -67 c20 -67 25 -158 12 -243 -6 -41 -8 -43 -22 -26 -11
13 -14 52 -15 176 0 88 1 159 2 159 1 0 11 -30 23 -66z m-307 24 c7 -27 -7
-96 -22 -111 -8 -8 -14 -8 -22 0 -8 8 -6 19 5 41 9 17 16 45 16 62 0 35 15 40
23 8z m-215 -26 c4 -23 17 -29 27 -12 9 15 25 12 25 -5 0 -8 -12 -18 -27 -21
-29 -8 -53 14 -53 49 0 25 24 16 28 -11z m1353 -44 c6 -12 2 -20 -16 -32 -32
-21 -49 -20 -42 2 30 92 32 94 41 70 4 -13 12 -30 17 -40z m-1597 11 c15 -75
-38 -164 -128 -218 -31 -19 -59 -31 -62 -29 -3 3 22 37 55 74 65 74 91 118 91
155 0 16 -22 -7 -80 -84 -84 -111 -100 -128 -100 -102 0 62 152 235 206 235 6
0 14 -14 18 -31z m1881 -49 c7 -12 -53 -76 -62 -66 -3 3 1 14 9 23 8 10 18 26
21 36 7 19 22 22 32 7z m680 0 c-11 -17 -103 -60 -129 -60 -14 0 -31 9 -40 22
-31 43 -23 48 80 48 62 0 93 -4 89 -10z m-2018 -67 c-7 -76 -24 -136 -38 -127
-14 8 -11 72 7 136 23 80 38 75 31 -9z m-76 1 c-8 -18 -15 -24 -22 -17 -7 7
-6 19 2 37 8 18 16 23 22 17 7 -7 6 -19 -2 -37z m-422 -28 c-5 -17 -26 -47
-46 -69 -42 -43 -120 -93 -130 -83 -4 3 25 39 64 79 38 39 78 88 88 107 16 31
19 33 25 15 4 -11 3 -33 -1 -49z m581 9 c0 -41 -30 -135 -43 -135 -6 0 -7 19
-3 48 4 26 9 68 13 95 4 39 8 45 19 36 8 -6 14 -26 14 -44z m-1906 22 c35 -23
29 -31 -12 -16 -17 6 -43 9 -59 7 -27 -4 -27 -5 17 -26 25 -12 65 -22 88 -22
30 0 42 -4 40 -12 -8 -23 -119 -21 -178 2 -60 23 -71 21 -40 -8 25 -23 92 -42
149 -42 23 0 41 -4 41 -9 0 -21 -95 -27 -165 -11 -22 5 -42 7 -44 4 -10 -9 20
-27 56 -34 l38 -7 -30 -12 c-38 -16 -101 -8 -134 17 -39 29 -71 91 -71 139 l0
42 68 4 c133 8 207 3 236 -16z m6716 5 c0 -4 -20 -43 -45 -86 -25 -44 -45 -83
-45 -88 0 -16 42 13 106 73 63 59 94 73 94 44 0 -39 88 -37 118 2 11 15 12 14
12 -7 0 -17 -28 -52 -98 -121 -93 -91 -132 -146 -132 -183 0 -23 -27 -20 -35
4 -3 10 1 33 10 50 8 16 11 30 6 30 -17 0 -41 -43 -41 -73 0 -26 -2 -28 -16
-16 -16 13 -16 68 2 129 6 21 5 23 -7 12 -8 -7 -19 -32 -24 -55 -8 -32 -16
-43 -33 -45 -27 -4 -28 13 -8 144 16 106 35 153 74 176 28 18 62 24 62 10z
m-5308 -59 c-53 -103 -135 -174 -164 -145 -10 10 7 32 80 103 52 50 96 89 98
86 3 -3 -4 -22 -14 -44z m65 -29 c3 -9 -5 -26 -21 -43 -14 -15 -26 -35 -26
-44 0 -21 -19 -22 -26 -2 -6 15 45 105 59 105 4 0 10 -7 14 -16z m662 -58 c9
-50 4 -126 -9 -126 -14 0 -20 31 -20 113 0 89 13 95 29 13z m480 54 c10 0 12
-15 7 -72 -14 -155 -17 -170 -32 -157 -10 8 -14 38 -14 110 0 54 -4 101 -10
104 -19 12 -10 27 13 21 12 -3 28 -6 36 -6z m-1054 -108 c-26 -48 -51 -91 -56
-96 -14 -16 -11 51 5 88 17 41 89 123 94 107 2 -6 -17 -51 -43 -99z m108 88
c6 -24 -2 -60 -14 -60 -12 0 -23 46 -15 65 8 21 23 19 29 -5z m863 -25 c7 -19
14 -42 14 -51 0 -28 -32 -84 -47 -84 -13 0 -14 9 -7 53 4 28 8 67 8 85 1 42
13 41 32 -3z m-603 -36 c-6 -6 -7 3 -4 23 4 28 6 29 9 9 2 -13 0 -27 -5 -32z
m515 -33 c-5 -53 -28 -43 -28 12 0 27 3 52 7 56 11 10 24 -34 21 -68z m-718
28 c0 -14 -22 -78 -49 -142 -27 -65 -55 -139 -62 -166 -10 -40 -14 -46 -20
-30 -20 52 -10 118 32 199 23 44 51 99 63 122 24 49 36 55 36 17z m-250 -23
c0 -11 -70 -100 -93 -120 -14 -11 -18 -11 -24 5 -5 13 6 27 40 57 26 21 47 45
47 53 0 8 7 14 15 14 8 0 15 -4 15 -9z m-104 -12 c7 -12 -43 -58 -63 -59 -20
0 -16 11 15 41 30 31 38 34 48 18z m244 -10 c0 -29 -18 -59 -35 -59 -20 0 -19
15 2 51 20 34 33 37 33 8z m166 -66 c-19 -57 -57 -122 -85 -147 -56 -50 -32
36 41 153 42 66 54 80 56 62 2 -12 -4 -43 -12 -68z m424 52 c0 -13 5 -27 10
-30 15 -9 12 -35 -4 -35 -17 0 -40 64 -32 86 8 22 26 7 26 -21z m4741 6 c-33
-47 -121 -91 -121 -61 0 45 54 86 118 89 l23 1 -20 -29z m-4897 -36 c8 -32
-36 -210 -57 -231 -15 -16 -6 96 13 151 11 32 20 69 20 82 0 30 16 30 24 -2z
m-140 2 c20 -15 20 -28 -5 -124 -15 -57 -23 -64 -39 -34 -19 36 -8 171 14 171
7 0 20 -6 30 -13z m66 -59 c0 -53 -8 -80 -21 -72 -10 6 -12 104 -3 129 11 27
24 -3 24 -57z m-2135 35 c41 -19 42 -24 15 -48 -26 -23 -68 -13 -80 21 -18 46
5 56 65 27z m2473 -41 c2 -32 -1 -43 -16 -51 -24 -13 -34 -4 -22 19 5 10 11
32 12 49 3 44 22 32 26 -17z m132 -5 c0 -12 -6 -17 -17 -15 -20 4 -28 30 -18
56 6 16 8 15 21 -2 8 -11 14 -28 14 -39z m-630 5 c0 -10 -11 -34 -25 -54 -14
-20 -25 -44 -25 -52 0 -18 -15 -21 -25 -7 -7 12 57 139 68 134 4 -2 7 -12 7
-21z m815 -51 c8 -26 -17 -96 -35 -96 -20 0 -25 49 -10 86 14 33 36 38 45 10z
m1826 -50 c-19 -34 -124 -55 -161 -31 -22 14 65 50 123 50 44 0 47 -2 38 -19z
m-1660 -38 c1 -16 1 -41 0 -58 -2 -42 -52 -248 -64 -260 -12 -13 -1 207 14
273 15 70 48 99 50 45z m-981 -55 c0 -16 -4 -28 -9 -28 -11 0 -21 49 -14 68 8
20 23 -5 23 -40z m842 -5 c23 -26 31 -60 23 -99 -9 -49 -25 -42 -25 11 0 43
-1 45 -25 39 -28 -7 -31 2 -13 41 13 30 20 31 40 8z m1991 -45 c49 -19 14 -29
-100 -30 -109 -1 -144 5 -125 24 26 26 164 29 225 6z m-1658 -163 c0 -104 -3
-132 -12 -122 -28 28 -36 99 -23 190 18 132 35 100 35 -68z m1663 89 c42 -12
22 -21 -55 -26 -92 -6 -115 -1 -87 19 18 13 101 17 142 7z m87 -98 c58 -13 59
-14 30 -22 -41 -12 -184 -9 -219 5 -24 10 -26 13 -15 27 15 19 99 15 204 -10z
m49 -78 c70 -19 77 -22 55 -31 -13 -5 -66 -10 -117 -11 -87 -1 -95 1 -113 23
-10 13 -19 27 -19 32 0 17 113 9 194 -13z m116 -99 l55 -14 -90 -3 c-49 -2
-119 0 -155 3 -60 7 -63 8 -45 22 24 18 148 13 235 -8z m40 -78 l35 -8 -30
-13 c-43 -18 -196 -25 -223 -11 -28 15 -28 38 1 45 29 6 172 -2 217 -13z
m-1564 -95 c78 -42 167 -117 155 -129 -13 -13 -52 6 -131 62 -53 39 -130 64
-130 43 0 -5 53 -41 119 -80 137 -83 219 -162 245 -239 l16 -48 -97 99 c-120
122 -232 207 -340 258 -46 21 -83 41 -83 44 0 14 54 24 120 21 59 -3 87 -9
126 -31z m1584 11 l45 -14 -45 -12 c-62 -18 -159 -10 -176 14 -7 10 -11 22 -7
28 8 12 123 2 183 -16z m68 -84 c70 -23 79 -29 60 -36 -25 -9 -178 7 -228 25
-31 10 -32 12 -15 25 29 21 92 16 183 -14z m57 -79 c72 -18 88 -30 51 -40 -29
-7 -74 -2 -181 23 -54 12 -65 18 -50 24 33 13 117 10 180 -7z m-42 -69 c20 -8
48 -15 63 -15 22 0 25 -2 14 -15 -21 -25 -99 -15 -159 22 -1 1 0 6 4 12 9 15
36 14 78 -4z m-2174 -53 c21 -22 48 -69 64 -110 32 -81 53 -95 44 -30 -3 26
-21 63 -46 99 -45 64 -41 80 10 46 39 -25 99 -134 99 -179 0 -34 16 -37 24 -5
10 43 -23 124 -68 166 -14 14 -26 28 -26 33 0 10 41 10 55 0 23 -16 54 -71 75
-132 12 -36 23 -67 25 -68 2 -2 8 5 14 16 9 17 4 34 -29 96 -37 69 -49 106
-34 106 34 0 78 -64 120 -177 14 -40 30 -73 35 -73 19 0 8 67 -20 120 -15 30
-31 69 -35 85 l-8 30 27 -25 c15 -14 45 -60 66 -103 22 -43 44 -75 49 -72 19
12 -14 100 -53 142 -26 29 -20 35 21 17 56 -23 81 -106 98 -316 5 -64 3 -88
-5 -88 -23 0 -58 50 -76 111 -15 50 -21 58 -28 42 -5 -13 0 -44 17 -97 31 -93
34 -139 10 -134 -29 5 -53 50 -69 128 -16 78 -39 125 -55 115 -19 -11 -10 -61
25 -148 33 -81 48 -177 28 -177 -25 0 -65 92 -109 245 -15 55 -17 58 -27 36
-12 -25 1 -82 42 -193 11 -32 21 -78 21 -103 0 -43 -1 -45 -21 -35 -30 16 -54
62 -68 128 -20 99 -33 142 -42 142 -17 0 -9 -86 15 -170 28 -97 41 -160 33
-160 -4 0 -18 5 -32 12 -34 15 -61 68 -75 149 -17 96 -40 170 -50 164 -15 -9
-12 -59 10 -175 23 -118 25 -176 9 -217 -6 -15 -12 -49 -13 -75 -2 -50 -8 -64
-25 -54 -6 4 -8 42 -4 104 5 94 -15 262 -36 300 -5 8 -10 -48 -13 -139 -5
-145 -42 -529 -57 -593 l-6 -30 -20 30 c-30 45 -25 136 15 264 40 130 47 251
16 313 -10 21 -21 35 -24 32 -3 -2 -9 -72 -13 -155 -10 -185 -31 -319 -67
-425 l-27 -82 20 -34 c27 -47 26 -158 -3 -262 -12 -43 -20 -82 -17 -87 3 -5 0
-21 -5 -36 -8 -21 -14 -24 -22 -16 -9 9 -8 29 6 85 19 76 19 148 -1 154 -6 2
-15 -15 -21 -44 -6 -26 -16 -75 -24 -108 l-13 -60 -3 83 c-2 45 -7 82 -12 82
-21 0 -8 42 23 77 68 76 83 113 49 113 -43 0 -80 -81 -107 -226 -21 -115 -45
-203 -58 -211 -20 -12 4 152 47 327 49 196 69 356 42 330 -8 -8 -22 -49 -30
-90 -9 -48 -20 -79 -33 -89 -16 -14 -17 -19 -5 -41 18 -35 10 -94 -32 -227
-19 -61 -36 -134 -38 -162 -4 -68 -21 -48 -26 32 -3 43 2 87 16 138 53 196 28
202 -44 9 -21 -53 -23 -69 -13 -91 19 -46 -25 -210 -52 -193 -6 3 -8 18 -5 32
2 15 7 45 11 67 l6 40 -29 -50 c-29 -50 -68 -92 -77 -84 -2 3 7 36 20 74 14
38 23 71 20 73 -11 11 -36 -10 -49 -43 -15 -34 -29 -44 -40 -26 -3 4 1 17 9
27 16 22 20 64 5 64 -15 0 -40 -56 -40 -90 0 -31 -17 -39 -38 -18 -21 21 -13
53 21 94 18 21 41 50 50 64 12 17 17 19 17 9 0 -9 9 -24 20 -34 17 -15 23 -16
51 -5 50 21 89 92 89 159 -1 51 -2 54 -15 37 -8 -11 -27 -58 -41 -104 -24 -78
-27 -84 -42 -68 -14 14 -15 21 -2 63 21 73 25 136 9 131 -7 -2 -17 -22 -22
-44 -4 -21 -12 -43 -17 -48 -15 -15 -40 13 -40 45 0 52 54 85 169 101 l78 12
26 80 c14 45 30 104 36 131 18 81 38 235 31 235 -17 0 -43 -85 -65 -217 -14
-79 -32 -161 -40 -181 -14 -32 -17 -34 -31 -21 -13 14 -13 19 1 52 8 20 15 48
15 63 0 41 -24 14 -45 -51 -9 -30 -21 -58 -27 -61 -34 -21 -38 104 -6 178 l22
51 17 -22 c17 -20 18 -21 27 -4 5 10 13 35 16 57 14 76 47 166 73 196 18 23
23 34 15 42 -14 14 -60 -15 -71 -45 -9 -22 -9 -21 -16 5 -9 36 16 71 68 96 38
18 40 20 18 27 -33 10 -69 -20 -109 -91 -39 -69 -66 -100 -93 -107 -23 -6 -23
-3 -3 28 22 33 11 46 -29 34 -45 -13 -49 -12 -37 10 5 11 26 25 45 31 19 6 40
20 46 31 5 11 15 17 20 13 7 -4 7 -10 0 -17 -6 -6 -11 -15 -11 -21 0 -16 38
25 71 76 32 50 71 78 109 78 12 0 18 5 15 10 -8 14 -48 13 -63 -2 -9 -9 -13
-7 -18 5 -16 43 37 77 133 85 63 5 76 15 51 40 -18 18 -62 14 -92 -9 -27 -21
-46 -18 -46 6 0 21 29 33 100 40 75 8 130 23 130 35 0 5 -9 14 -21 20 -16 9
-34 6 -84 -12 -35 -12 -67 -19 -71 -15 -11 10 18 39 55 54 35 15 149 19 195 7
37 -9 33 10 -8 35 -70 44 -239 11 -313 -61 -46 -44 -101 -160 -111 -236 -10
-68 -23 -84 -106 -127 -51 -25 -128 -33 -171 -16 -16 6 -5 15 63 50 45 24 95
59 112 77 35 40 40 60 11 44 -49 -26 -56 2 -11 45 17 16 30 32 30 36 0 4 -13
4 -30 -1 -16 -5 -30 -5 -30 0 0 41 51 71 122 74 26 0 48 4 48 9 0 13 -50 27
-76 21 -26 -7 -54 10 -54 32 0 19 64 18 124 -2 50 -17 67 -13 50 13 -18 28
-77 53 -126 53 -38 0 -48 3 -48 16 0 14 8 16 56 11 31 -3 74 -15 95 -25 l40
-20 -3 21 c-2 13 -15 24 -38 32 -37 12 -42 24 -16 40 12 7 24 1 54 -28 41 -40
52 -45 52 -23 0 25 -43 68 -87 87 -44 19 -50 39 -11 39 27 0 82 -34 107 -67
22 -27 41 -23 41 7 0 11 -18 31 -43 49 -47 32 -75 61 -60 61 5 0 36 -18 67
-41 32 -23 60 -39 62 -36 11 11 -27 66 -61 87 -39 24 -45 40 -15 40 11 0 41
-21 67 -47 58 -58 103 -93 117 -93 6 0 22 9 34 18 23 18 23 20 9 53 -8 19 -33
56 -55 83 -23 28 -40 52 -38 54 6 5 52 -24 105 -67 26 -20 53 -54 66 -83 13
-28 25 -43 28 -35 12 31 -9 74 -63 129 -52 54 -55 60 -38 69 10 6 27 7 38 4
26 -8 77 -68 103 -121 24 -51 37 -56 37 -15 0 20 -14 46 -46 83 -25 29 -52 65
-60 81 -14 26 -14 27 12 27 18 0 39 -12 63 -38z m571 -29 c43 -40 71 -128 77
-245 9 -152 -15 -122 -43 55 -16 101 -38 161 -68 186 -9 8 -16 17 -16 22 0 16
19 9 50 -18z m-34 -48 c15 -36 58 -264 51 -271 -2 -2 -15 7 -29 21 -29 29 -38
63 -38 143 0 58 -31 142 -53 142 -7 0 -6 4 2 9 22 14 50 -5 67 -44z m1804 35
c0 -13 -45 -24 -66 -16 -8 3 -12 10 -9 16 8 13 75 13 75 0z m-2571 -75 c33
-36 61 -70 61 -75 0 -14 -38 -22 -58 -11 -10 5 -38 36 -62 68 -24 32 -47 60
-52 61 -19 8 -6 22 21 22 22 0 42 -14 90 -65z m926 -37 c13 -29 28 -89 34
-133 6 -44 14 -93 16 -109 5 -28 4 -28 -13 -12 -24 21 -38 69 -52 176 -6 47
-14 95 -17 108 -9 39 7 23 32 -30z m1155 -63 c0 -20 -5 -25 -25 -25 -20 0 -25
5 -25 25 0 20 5 25 25 25 20 0 25 -5 25 -25z m242 -72 c46 -48 68 -99 68 -161
0 -92 -45 -107 -76 -25 -10 25 -24 51 -32 59 -15 15 -10 44 8 44 5 0 21 -18
35 -40 29 -46 50 -54 35 -14 -29 75 -65 117 -93 108 -16 -5 -19 -3 -14 11 4 9
7 25 7 36 0 29 22 23 62 -18z m-178 -5 c7 -12 6 -21 -3 -32 -18 -22 -31 -11
-31 25 0 32 16 35 34 7z m-2587 -104 c3 -9 -5 -26 -21 -43 -14 -15 -26 -35
-26 -45 0 -15 -3 -16 -15 -6 -20 17 -19 39 5 78 21 34 47 42 57 16z m1267 -72
c19 -36 32 -132 19 -132 -31 0 -66 81 -56 131 7 37 18 37 37 1z m-83 -21 c29
-30 37 -55 20 -65 -14 -9 -39 3 -46 22 -31 76 -22 91 26 43z m1419 -47 c0 -13
-6 -24 -13 -24 -21 0 -37 22 -37 52 0 28 0 28 25 12 15 -10 25 -26 25 -40z
m-1176 -31 c4 -21 9 -50 12 -65 5 -23 2 -28 -15 -28 -26 0 -34 29 -26 91 8 56
20 57 29 2z m1277 15 c7 -13 17 -26 23 -30 8 -5 8 -10 -1 -19 -8 -8 -16 -8
-33 1 -26 14 -32 9 -32 -25 0 -27 -8 -31 -25 -14 -7 7 -6 25 6 60 18 54 42 65
62 27z m-204 -50 c37 -39 97 -128 137 -205 l15 -31 -32 2 c-27 1 -32 6 -33 26
-3 66 -2 65 -23 46 -10 -9 -24 -14 -32 -11 -15 6 -79 99 -79 115 0 23 21 7 40
-29 33 -65 61 -70 40 -7 -6 19 -32 58 -57 86 -54 61 -34 67 24 8z m-1554 -93
c36 -32 34 -45 -7 -45 -31 0 -34 3 -38 35 -5 41 6 44 45 10z m1817 -20 c19
-14 44 -25 56 -25 22 0 41 -16 31 -26 -2 -3 -26 0 -51 7 -26 6 -49 9 -52 6
-12 -12 55 -43 136 -63 l85 -21 -63 -6 c-48 -5 -71 -3 -95 9 -68 35 -119 103
-96 130 14 17 9 18 49 -11z m-1912 -14 c18 -11 11 -56 -7 -56 -8 0 -18 12 -22
27 -9 36 1 47 29 29z m-63 -23 c3 -13 5 -72 3 -133 l-3 -110 -18 39 c-15 32
-17 51 -11 120 5 44 7 87 6 94 -5 22 17 13 23 -10z m265 -13 c0 -20 -5 -25
-25 -25 -20 0 -25 5 -25 25 0 20 5 25 25 25 20 0 25 -5 25 -25z m1493 -104 c7
-30 -5 -26 -52 17 -28 25 -43 48 -47 72 l-5 35 49 -52 c27 -28 52 -61 55 -72z
m-1418 58 c4 -11 4 -24 0 -27 -9 -9 -45 35 -45 54 0 22 37 -1 45 -27z m101 -4
c4 -8 0 -54 -7 -101 -11 -76 -14 -84 -26 -68 -7 10 -13 41 -13 69 0 82 29 145
46 100z m59 -79 c8 -42 4 -68 -12 -74 -10 -3 -13 12 -13 52 0 62 15 75 25 22z
m-154 -83 c1 -73 -14 -127 -33 -121 -21 7 -25 43 -11 93 7 28 16 67 20 89 9
57 23 22 24 -61z m1115 59 c16 -10 38 -163 31 -218 -4 -36 -1 -50 13 -64 33
-33 52 -145 31 -179 -7 -11 -13 -10 -35 5 -15 9 -42 24 -59 33 -67 34 -88 133
-31 147 20 5 24 11 20 28 -3 11 -8 41 -12 66 -4 25 -11 51 -17 58 -7 9 -7 16
0 23 14 14 33 -12 48 -68 10 -39 14 -44 20 -29 5 11 3 37 -4 60 -7 23 -16 59
-20 81 -4 23 -11 46 -15 53 -8 13 12 16 30 4z m-1202 -28 c10 -26 7 -44 -9
-44 -21 0 -37 34 -23 48 16 16 25 15 32 -4z m1406 -11 c5 -16 17 -41 25 -57
19 -34 14 -42 -15 -26 -22 12 -50 65 -50 95 0 26 30 17 40 -12z m-1697 -108
c1 -45 -26 -186 -42 -225 -11 -27 -12 102 -2 171 6 37 11 92 12 121 l1 53 15
-35 c9 -19 16 -57 16 -85z m207 66 c7 -15 6 -23 -6 -35 -21 -21 -34 -12 -34
25 0 34 24 40 40 10z m-299 -33 c16 -61 0 -186 -22 -172 -12 7 -12 214 1 214
5 0 14 -19 21 -42z m1729 -83 c13 -39 27 -65 36 -65 19 0 18 25 -2 55 -8 13
-14 36 -12 52 4 25 8 21 40 -44 19 -40 38 -81 41 -93 3 -11 10 -20 16 -20 15
0 13 40 -4 70 -15 27 -20 70 -7 70 33 -1 124 -240 148 -389 6 -41 8 -43 20
-26 21 28 17 96 -11 172 -25 71 -25 79 -1 70 24 -10 52 -75 76 -179 12 -54 26
-98 31 -98 21 0 19 55 -6 139 -14 50 -25 101 -22 113 6 39 63 -97 98 -237 25
-98 34 -123 42 -110 15 27 1 113 -32 195 -35 86 -37 100 -16 100 25 0 46 -45
66 -147 24 -118 37 -163 50 -163 16 0 10 56 -21 173 -35 135 -35 133 -14 116
25 -20 41 -59 59 -144 31 -141 68 -185 157 -185 32 0 36 -4 71 -75 33 -67 39
-75 56 -65 36 19 61 13 61 -15 0 -23 -2 -24 -21 -15 -17 10 -21 8 -26 -9 -7
-27 -13 -26 -38 6 -13 15 -27 23 -33 19 -18 -11 -15 -21 14 -55 l26 -31 -27 0
c-21 0 -30 8 -45 43 -10 23 -22 70 -26 105 -5 51 -9 60 -20 51 -32 -26 -5
-161 39 -198 22 -18 21 -31 -2 -31 -27 0 -47 37 -71 131 -12 46 -25 88 -30 93
-20 20 -24 -93 -8 -209 5 -36 -35 -25 -48 13 -9 28 -12 31 -23 18 -10 -12 -9
-20 3 -44 8 -15 22 -34 30 -41 18 -15 21 -37 6 -46 -5 -3 -16 10 -24 30 -8 19
-22 35 -30 35 -13 0 -13 -5 0 -44 9 -25 27 -57 42 -71 23 -23 33 -26 70 -22
24 2 45 7 47 9 3 2 -1 18 -7 36 -7 17 -9 34 -6 38 4 3 27 -5 52 -20 55 -32 84
-33 95 -4 7 19 11 15 41 -38 79 -141 84 -158 38 -137 -14 6 -30 30 -43 63 -21
54 -45 77 -45 43 0 -10 9 -33 20 -51 25 -40 25 -42 1 -42 -22 0 -84 67 -76 81
4 5 2 9 -3 9 -14 0 -22 -26 -22 -71 0 -71 66 -169 115 -169 18 0 22 -5 21 -28
-1 -24 -5 -28 -24 -24 -12 2 -45 24 -72 49 -37 34 -54 57 -66 98 -20 61 -34
63 -34 4 0 -67 -25 -41 -48 51 l-9 35 -22 -35 c-28 -45 -23 -85 19 -142 80
-111 101 -148 106 -184 l5 -39 -21 24 c-12 14 -24 37 -27 53 -6 32 -28 37 -43
9 -7 -15 -6 -23 6 -35 8 -9 19 -16 24 -16 5 0 7 -7 4 -15 -9 -23 -28 -18 -52
15 -15 19 -31 30 -47 30 -24 0 -25 3 -25 58 -1 31 -7 93 -15 137 -8 44 -15 81
-15 83 0 1 9 -2 20 -8 15 -8 21 -8 25 2 2 7 11 32 18 55 l15 43 -38 42 c-20
24 -43 54 -50 68 l-13 24 -10 -24 c-6 -14 -11 -81 -11 -150 -1 -148 15 -226
78 -382 41 -102 42 -107 21 -102 -22 5 -22 4 -12 -41 10 -44 9 -48 -14 -65
l-24 -19 41 6 c39 5 42 4 53 -27 13 -39 15 -100 2 -100 -11 0 -21 25 -21 56 0
13 -4 24 -9 24 -16 0 -23 -37 -15 -85 4 -28 2 -45 -4 -45 -17 0 -30 24 -34 59
-3 36 -22 52 -31 28 -3 -8 -1 -33 5 -56 9 -34 7 -45 -7 -68 -17 -25 -19 -25
-31 -9 -8 12 -11 34 -7 67 4 31 2 49 -5 49 -16 0 -22 -26 -22 -95 0 -69 -17
-98 -40 -70 -11 13 -10 22 3 51 27 56 17 117 -11 68 -12 -22 -32 -9 -32 22 0
26 -1 27 -23 18 -11 -4 -14 -15 -11 -37 6 -35 -16 -74 -34 -63 -7 4 -12 18
-12 32 0 31 -20 22 -21 -9 l0 -22 -16 22 c-21 32 -33 29 -33 -8 0 -49 -25 -29
-28 23 -3 44 -3 45 37 57 44 13 76 47 86 91 5 21 14 30 35 35 16 3 48 22 72
41 25 19 54 34 70 34 l27 0 -5 73 c-7 88 -22 175 -34 182 -4 3 -11 -22 -15
-55 -7 -61 -19 -76 -30 -40 -3 11 -10 20 -15 20 -15 0 -22 -38 -20 -108 1 -37
2 -76 1 -87 l-2 -20 -15 20 c-12 15 -15 39 -12 100 2 47 -1 82 -7 85 -6 3 -12
-35 -15 -100 -4 -90 -7 -102 -17 -83 -7 12 -13 28 -13 37 0 34 -20 24 -31 -16
-16 -62 -66 -156 -88 -168 -28 -14 -52 -12 -72 6 -10 9 -23 13 -28 9 -14 -8
-14 -48 0 -62 13 -13 4 -33 -16 -33 -18 0 -35 31 -35 62 0 18 -2 20 -10 8 -15
-24 -12 -96 5 -110 12 -10 13 -16 4 -26 -23 -28 -29 -19 -53 89 -4 15 -11 27
-17 27 -22 0 -20 -34 5 -89 30 -68 32 -84 10 -79 -26 5 -55 51 -61 96 -4 26
-11 42 -19 42 -18 0 -17 -28 1 -60 8 -14 14 -33 15 -42 0 -31 -30 -20 -47 17
-17 35 -33 38 -33 5 0 -14 -5 -18 -16 -13 -16 6 -16 45 1 88 8 20 7 20 -14 -1
-14 -13 -22 -34 -24 -59 -1 -22 -8 -40 -16 -43 -11 -4 -13 3 -8 34 4 22 7 51
7 65 0 36 28 53 185 109 71 26 139 51 149 56 16 6 18 4 12 -12 -19 -45 -19
-54 2 -54 11 0 30 12 41 28 l20 27 1 -27 c0 -16 4 -28 9 -28 21 0 41 46 41 93
0 49 0 49 -18 28 -16 -21 -20 -21 -65 -9 -35 9 -55 9 -76 2 -22 -9 -32 -8 -49
5 -26 19 -52 80 -52 118 l1 28 22 -27 c12 -15 30 -38 40 -52 10 -14 22 -26 27
-26 17 0 11 41 -9 69 -25 34 -37 81 -22 81 20 0 50 -38 62 -79 7 -23 16 -41
21 -41 18 0 20 32 4 68 -20 44 -25 93 -11 98 6 2 30 -30 54 -71 25 -41 48 -75
53 -75 15 0 8 35 -12 60 -39 49 -19 88 30 58 28 -18 37 -1 17 33 -18 32 -23
79 -9 79 4 0 23 -16 42 -35 54 -56 69 -42 25 23 -14 20 -25 45 -25 55 0 15 3
16 21 7 28 -16 32 -8 20 37 -15 53 -14 56 14 37 37 -24 48 -9 25 36 -25 49
-25 53 0 45 24 -8 24 -7 4 40 -12 29 -14 53 -9 99 l7 60 19 -23 c17 -21 19
-21 26 -5 3 9 1 35 -7 58 -7 23 -14 58 -15 80 -1 26 -8 42 -21 49 -11 6 -45
34 -78 64 -32 30 -69 61 -82 70 -27 17 -23 33 8 33 33 0 81 -42 106 -94 13
-25 28 -44 33 -41 19 12 8 46 -26 84 -24 26 -32 42 -24 46 19 13 62 -29 103
-100 36 -61 40 -66 48 -46 10 29 -1 49 -78 138 -35 40 -64 79 -64 85 0 9 -20
13 -68 14 -82 1 -133 17 -178 57 -30 26 -64 74 -64 92 0 16 24 -1 79 -56 34
-34 64 -60 67 -57 17 17 -74 163 -167 269 -51 59 -56 67 -39 72 29 7 25 35
-14 113 -25 50 -32 71 -23 76 18 12 43 -24 67 -97z m660 65 c12 -7 9 -11 -13
-19 -62 -24 -136 -4 -104 28 13 13 88 7 117 -9z m-381 -47 c6 -14 9 -28 6 -31
-9 -9 -45 30 -45 49 0 25 24 14 39 -18z m-51 -76 c2 -15 -1 -27 -6 -27 -17 0
-34 29 -28 46 9 23 31 11 34 -19z m311 -33 c13 -16 -53 -86 -73 -78 -23 9 -20
23 13 53 22 21 29 34 25 52 -5 23 -5 24 10 4 8 -11 20 -25 25 -31z m-217 19
c18 -16 25 -43 11 -43 -12 0 -43 33 -43 47 0 17 10 17 32 -4z m-2667 -74 c-11
-23 -18 -50 -18 -60 2 -28 -16 -23 -23 6 -7 30 3 95 19 113 8 11 13 10 25 -2
14 -13 13 -20 -3 -57z m3076 -51 c16 -30 2 -34 -31 -9 -46 33 -36 11 20 -44
45 -44 80 -105 61 -105 -16 0 -84 60 -113 99 -29 40 -50 91 -61 149 l-7 34 60
-52 c34 -29 65 -61 71 -72z m-3143 13 c4 -25 -14 -51 -34 -51 -18 0 -18 46 -1
65 16 19 31 13 35 -14z m641 0 c11 -11 24 -37 30 -58 14 -48 14 -150 1 -158
-5 -3 -10 -5 -11 -3 0 2 -6 39 -12 82 -14 92 -32 110 -42 41 -4 -25 -11 -48
-16 -51 -10 -6 -10 -8 -13 71 -1 33 -6 68 -10 78 -7 14 -3 17 23 17 17 0 40
-9 50 -19z m2686 -53 c30 -24 54 -46 54 -50 1 -12 -42 -9 -60 5 -52 40 -89 79
-83 88 9 15 26 6 89 -43z m-3401 -10 c21 -30 20 -67 -4 -129 -24 -59 -21 -71
8 -35 26 34 32 33 32 -9 0 -41 -39 -89 -68 -83 -15 3 -17 19 -17 150 0 134 1
145 17 137 9 -5 24 -19 32 -31z m-960 16 c20 -8 20 -43 1 -68 -8 -11 -15 -28
-15 -38 0 -24 -8 -23 -31 5 l-18 22 -1 -22 c0 -13 -6 -23 -14 -23 -33 0 -59
77 -33 99 28 23 84 35 111 25z m322 -9 c28 -8 60 -25 71 -37 26 -28 47 -78 32
-78 -5 0 -13 10 -18 22 -7 21 -11 19 -45 -30 -21 -29 -42 -52 -47 -52 -16 0
-10 31 11 57 11 14 20 31 20 37 -1 15 -50 -42 -72 -82 -9 -18 -22 -32 -28 -32
-18 0 -11 33 20 98 35 75 37 86 10 72 -11 -6 -32 -34 -46 -63 -28 -55 -52 -87
-66 -87 -16 0 -8 31 23 86 17 30 29 58 25 61 -10 10 -66 -49 -66 -70 0 -31
-25 -13 -28 21 -4 42 -25 33 -59 -27 -40 -69 -45 -74 -54 -59 -18 27 -9 68 22
103 56 63 191 91 295 60z m550 -92 c19 -99 27 -344 12 -359 -5 -4 -16 1 -27
10 -21 19 -23 18 -41 -38 l-13 -40 -18 23 c-11 13 -19 33 -19 44 0 36 42 109
72 126 22 12 27 21 22 36 -3 11 -8 58 -10 105 -6 99 -11 130 -23 130 -5 0 -12
-17 -16 -37 l-7 -37 -18 24 -18 24 -11 -39 c-19 -74 -31 -170 -31 -256 0 -152
-33 -259 -90 -292 -17 -10 -30 -15 -30 -12 0 4 16 33 35 64 33 53 55 109 55
138 0 25 -27 1 -48 -42 -21 -43 -66 -84 -79 -71 -4 3 3 24 15 45 28 49 28 75
2 42 -11 -13 -20 -29 -20 -36 0 -7 -12 -20 -26 -30 -26 -16 -26 -16 -19 7 4
12 14 38 21 57 25 61 -2 48 -35 -16 -12 -24 -26 -43 -31 -43 -19 0 -10 41 25
110 36 72 72 186 62 196 -12 13 -25 -7 -31 -50 -7 -45 -7 -45 -44 -42 l-37 4
-3 78 c-2 44 0 90 3 103 l6 24 15 -22 c24 -34 31 -25 26 32 -3 40 0 56 12 66
14 12 15 10 10 -20 l-5 -34 36 40 37 40 -7 -30 c-3 -16 -9 -41 -12 -54 -10
-40 32 -8 51 39 17 43 35 52 43 20 6 -24 16 -25 34 -3 14 17 124 72 146 73 6
0 19 -40 29 -97z m978 49 c8 -15 17 -49 21 -75 13 -85 -28 -47 -55 51 -6 24
-14 50 -17 59 -11 27 35 -4 51 -35z m1189 -21 c30 -19 49 -43 61 -75 6 -18 6
-19 -11 -4 -10 9 -37 25 -60 37 -24 12 -43 23 -43 25 0 3 -3 11 -6 20 -9 22
24 21 59 -3z m-3243 -11 c0 -14 -55 -40 -82 -40 -23 1 -23 1 5 25 28 25 77 34
77 15z m4615 -39 c7 -16 15 -20 30 -15 11 4 41 9 67 11 37 4 50 1 67 -16 24
-24 28 -46 7 -38 -7 3 -54 8 -104 12 -93 8 -146 28 -159 61 -16 43 73 29 92
-15z m-2621 -6 c8 -39 0 -75 -15 -75 -5 0 -9 25 -9 55 0 62 14 73 24 20z
m1392 -22 c9 -15 19 -22 21 -16 6 18 32 3 48 -28 16 -29 19 -76 9 -103 -13
-34 -24 -13 -24 44 0 60 -12 80 -24 38 -3 -13 -6 -55 -6 -95 0 -65 -11 -96
-27 -79 -4 3 -7 48 -7 100 -1 75 -5 98 -18 113 -21 23 -23 53 -4 53 7 0 22
-12 32 -27z m1003 9 c72 -17 73 -17 47 -31 -30 -16 -32 -28 -12 -76 11 -24 11
-35 4 -35 -13 0 -92 80 -126 128 -28 39 -24 40 87 14z m-113 -20 c6 -4 21 -26
32 -48 12 -23 29 -45 39 -48 17 -7 17 -8 1 -17 -24 -13 -42 -3 -65 39 -37 66
-40 96 -7 74z m-596 -62 c16 -16 20 -33 20 -81 0 -37 -4 -58 -10 -54 -5 3 -10
15 -10 26 0 28 -18 24 -26 -6 -3 -14 -10 -25 -14 -25 -15 0 -20 33 -14 96 7
70 19 79 54 44z m986 -11 c31 -11 174 -100 174 -107 0 -11 -94 9 -133 29 -62
31 -127 73 -127 82 0 11 54 9 86 -4z m226 -11 c41 -24 68 -62 68 -98 0 -38
-52 -15 -120 54 -24 25 -50 46 -56 46 -7 0 -16 5 -19 10 -13 20 86 11 127 -12z
m-4500 -9 c60 -14 111 -20 154 -17 57 3 64 2 64 -14 0 -10 -11 -28 -25 -40
-14 -12 -25 -32 -25 -45 0 -13 -5 -23 -10 -23 -20 0 -22 29 -4 59 22 37 14 49
-18 27 -12 -9 -30 -16 -39 -16 -23 0 -69 -38 -79 -66 -5 -13 -14 -24 -20 -24
-15 0 -12 17 6 46 11 16 14 28 7 35 -14 14 -27 -5 -47 -68 -17 -53 -45 -89
-47 -62 -3 30 3 62 17 94 8 19 14 45 14 57 0 20 -3 18 -25 -15 -30 -43 -45
-47 -45 -12 0 26 -14 33 -25 15 -4 -6 -12 -32 -18 -57 -11 -43 -38 -75 -52
-62 -3 4 -1 18 5 33 5 15 10 52 10 81 0 51 -2 55 -27 62 l-28 6 30 13 c45 19
126 17 227 -7z m4163 0 c10 -10 -10 -29 -32 -29 -17 0 -44 30 -37 42 7 11 53
2 69 -13z m48 -103 c9 -7 17 -26 17 -41 0 -27 -1 -27 -18 -12 -14 13 -21 14
-30 5 -18 -18 -23 -5 -10 30 14 36 16 37 41 18z m-3945 -104 c2 -12 -6 -38
-18 -57 -12 -20 -25 -46 -28 -60 -5 -19 -11 -22 -22 -15 -13 8 -13 13 3 41 19
34 24 84 6 74 -6 -4 -28 -45 -50 -90 -36 -76 -69 -122 -69 -98 0 11 23 87 36
118 7 17 3 16 -38 -8 -41 -24 -52 -26 -104 -19 l-59 7 57 44 c81 61 160 92
228 88 49 -2 55 -5 58 -25z m-661 -47 c-9 -19 -21 -35 -27 -35 -20 0 -23 32
-6 67 16 33 18 35 34 20 15 -15 15 -19 -1 -52z m4683 -5 c17 -17 29 -60 16
-60 -2 0 -19 13 -39 29 -27 21 -33 31 -24 40 16 16 24 14 47 -9z m-42 -63 c25
-27 43 -79 33 -95 -10 -16 -26 -2 -50 45 -11 23 -25 44 -31 48 -16 10 -11 25
8 25 10 0 28 -11 40 -23z m-36 -74 c22 -25 34 -53 41 -90 9 -46 -8 -41 -36 10
-42 72 -45 125 -5 80z m-169 -424 c3 -10 1 -19 -3 -19 -16 0 -40 31 -40 52 0
20 1 20 19 4 10 -10 21 -26 24 -37z m173 -158 c45 -69 49 -167 8 -212 -25 -28
-37 -23 -18 6 21 32 14 58 -35 123 -39 51 -60 110 -47 131 12 18 67 -10 92
-48z m-118 -129 c3 -74 -7 -89 -36 -60 -15 15 -16 92 -1 119 20 38 34 15 37
-59z m-839 4 c21 -40 22 -66 3 -66 -7 0 -52 91 -52 104 0 3 6 6 13 6 6 0 23
-20 36 -44z m741 12 c11 -18 20 -41 20 -50 0 -31 -28 -19 -41 17 -7 19 -17 35
-21 35 -4 0 -8 7 -8 15 0 26 30 16 50 -17z m-946 -8 c20 -7 26 -16 26 -41 0
-19 7 -37 18 -45 16 -12 16 -13 -2 -20 -13 -5 -23 -1 -35 15 -16 20 -19 21
-31 7 -12 -15 -14 -15 -27 4 l-14 20 -18 -21 c-10 -13 -20 -18 -24 -12 -10 16
26 77 53 90 30 15 24 15 54 3z m86 -25 c20 -33 20 -55 -1 -55 -9 0 -18 18 -33
68 -11 34 10 26 34 -13z m300 -395 c19 -35 -12 -83 -41 -64 -10 6 -12 67 -2
77 12 13 32 7 43 -13z"/>
<path d="M5636 9191 c-3 -5 1 -22 9 -37 8 -16 15 -39 15 -51 0 -22 35 -50 43
-36 12 21 18 73 8 73 -6 0 -11 -4 -11 -10 0 -5 -4 -10 -9 -10 -5 0 -7 9 -4 19
10 37 -33 81 -51 52z"/>
<path d="M6275 8978 c-8 -20 32 -101 48 -95 24 7 18 45 -12 79 -25 27 -31 30
-36 16z"/>
<path d="M6130 8710 c0 -19 -7 -56 -16 -81 -17 -45 -14 -79 5 -79 11 0 34 101
33 144 -1 44 -22 58 -22 16z"/>
<path d="M5811 7669 c-24 -39 -28 -128 -10 -190 14 -45 51 -84 73 -76 13 5 11
11 -10 32 -26 26 -26 29 -23 140 2 62 1 116 -3 120 -4 4 -16 -8 -27 -26z"/>
<path d="M5872 7608 c-10 -38 1 -110 22 -139 12 -18 14 -13 21 55 3 41 4 84 0
96 -10 31 -33 24 -43 -12z"/>
<path d="M4726 6209 c-4 -19 -31 -57 -73 -100 -36 -38 -64 -72 -60 -75 11 -11
95 45 123 81 16 21 28 53 32 80 5 51 -12 63 -22 14z"/>
<path d="M4516 6185 c-3 -8 -30 -31 -61 -50 -79 -51 -73 -74 11 -36 46 21 86
65 77 87 -7 18 -19 18 -27 -1z"/>
<path d="M6828 5800 c-44 -57 -80 -146 -86 -212 -4 -45 -2 -59 6 -54 7 4 12
18 12 31 0 13 23 67 51 120 32 62 49 106 47 123 l-3 27 -27 -35z"/>
<path d="M7146 5745 c-42 -15 -74 -40 -64 -51 8 -7 166 44 173 57 9 14 -65 10
-109 -6z"/>
<path d="M6936 5626 c-34 -73 -56 -165 -56 -233 0 -50 2 -53 25 -53 15 0 31
-9 41 -25 24 -37 44 -32 44 10 0 20 11 62 25 95 26 61 32 114 15 140 -15 24
-28 1 -45 -79 -15 -72 -36 -117 -48 -104 -13 12 -7 86 14 174 11 48 19 99 16
111 -3 19 -9 12 -31 -36z"/>
<path d="M7068 5412 c-39 -108 -36 -179 7 -196 13 -4 14 1 9 33 -4 27 2 66 21
130 14 50 24 95 20 101 -15 24 -32 5 -57 -68z"/>
<path d="M6635 5439 c-18 -57 2 -168 40 -222 15 -21 15 -18 10 48 -13 163 -19
195 -35 195 -5 0 -12 -9 -15 -21z"/>
<path d="M7157 5338 c-38 -75 -46 -123 -26 -160 10 -18 15 -7 45 83 53 162 44
198 -19 77z"/>
<path d="M7234 5265 c-43 -59 -54 -165 -18 -165 29 0 45 45 42 121 l-3 74 -21
-30z"/>
<path d="M7332 5178 c-50 -87 -54 -103 -32 -130 10 -13 20 -21 22 -18 11 14
58 143 58 158 0 9 -4 23 -9 30 -6 10 -17 -1 -39 -40z"/>
<path d="M6966 5198 c-18 -69 2 -218 29 -218 17 0 20 16 5 25 -6 3 -10 52 -10
111 0 98 -10 132 -24 82z"/>
<path d="M7051 5106 c-22 -88 -5 -206 30 -206 6 0 5 8 -2 22 -9 17 -9 40 1
100 18 113 -5 180 -29 84z"/>
<path d="M7440 5068 c0 -32 32 -79 45 -67 8 9 -15 76 -30 89 -13 11 -15 7 -15
-22z"/>
<path d="M7131 5034 c-18 -90 -15 -178 7 -197 26 -23 35 -21 21 5 -8 14 -9 40
-4 77 20 142 1 235 -24 115z"/>
<path d="M7970 5040 c0 -24 79 -40 108 -21 10 6 5 11 -19 20 -39 14 -89 14
-89 1z"/>
<path d="M7695 4991 c-52 -11 -29 -26 61 -38 47 -7 106 -22 130 -32 53 -24 61
-7 14 32 -44 37 -132 54 -205 38z"/>
<path d="M7738 4893 c-27 -7 -21 -23 8 -23 14 0 64 -12 110 -26 87 -27 107
-27 83 2 -34 41 -135 64 -201 47z"/>
<path d="M7773 4780 c-18 -19 -5 -38 22 -33 13 3 48 -2 78 -11 30 -9 68 -16
84 -16 28 0 53 15 53 32 0 23 -217 49 -237 28z"/>
<path d="M7525 4691 c-60 -27 -118 -98 -143 -176 -21 -62 -28 -115 -17 -115 9
0 88 61 174 135 67 58 77 71 60 73 -39 7 -70 -8 -130 -64 -46 -42 -64 -53 -73
-44 -11 12 28 53 142 148 74 61 68 80 -13 43z"/>
<path d="M7760 4670 c0 -11 36 -21 60 -17 19 3 161 -41 178 -55 7 -6 15 -8 18
-5 11 11 -16 45 -46 57 -16 7 -30 16 -30 21 0 5 -40 9 -90 9 -52 0 -90 -4 -90
-10z"/>
<path d="M7810 4570 c0 -13 133 -52 166 -48 l28 3 -40 28 c-32 22 -51 27 -97
27 -31 0 -57 -4 -57 -10z"/>
<path d="M7519 4476 c-79 -53 -119 -98 -119 -133 0 -26 0 -26 33 11 17 20 61
55 97 79 43 28 66 50 68 65 2 12 0 22 -5 22 -4 0 -38 -20 -74 -44z"/>
<path d="M7855 4472 c-33 -7 -42 -22 -12 -22 15 0 58 -14 97 -31 38 -17 77
-29 86 -25 58 22 -97 93 -171 78z"/>
<path d="M7519 4375 c-62 -32 -119 -97 -119 -135 0 -17 4 -30 8 -30 5 0 28 27
52 60 47 65 103 100 159 100 29 0 32 2 21 15 -18 22 -68 18 -121 -10z"/>
<path d="M7810 4382 c0 -24 43 -43 115 -52 43 -5 84 -15 91 -21 11 -9 14 -8
14 0 0 20 -51 60 -89 71 -44 12 -131 13 -131 2z"/>
<path d="M7589 4304 c-96 -29 -188 -114 -205 -189 -7 -29 -5 -28 36 18 23 26
74 66 113 89 101 58 137 82 137 91 0 10 -29 8 -81 -9z"/>
<path d="M7840 4281 c0 -18 44 -41 123 -66 43 -14 87 -30 98 -35 23 -13 24 -2
3 28 -21 31 -79 58 -149 71 -71 13 -75 13 -75 2z"/>
<path d="M7512 4159 c-52 -26 -96 -78 -116 -136 -8 -24 -13 -43 -10 -43 19 0
51 31 104 100 33 43 68 84 78 89 34 20 -12 12 -56 -10z"/>
<path d="M7587 4090 c-25 -20 -42 -63 -32 -80 3 -5 25 12 49 38 25 26 42 50
40 54 -9 14 -30 9 -57 -12z"/>
<path d="M7850 4070 c-12 -8 -10 -10 10 -10 14 0 50 -16 80 -35 60 -38 85 -43
94 -20 9 24 -3 42 -39 59 -37 18 -122 21 -145 6z"/>
<path d="M7980 3921 c0 -21 46 -59 57 -47 8 8 -28 58 -45 64 -7 2 -12 -5 -12
-17z"/>
<path d="M6258 3763 c-7 -113 -24 -223 -37 -236 -18 -18 -12 -29 12 -22 41 13
47 32 47 156 0 68 -4 120 -10 124 -6 3 -11 -6 -12 -22z"/>
<path d="M6160 3620 c0 -17 -7 -57 -17 -90 -12 -45 -14 -65 -6 -82 10 -22 12
-20 34 27 27 61 37 139 19 160 -19 23 -30 18 -30 -15z"/>
<path d="M6212 3388 c-1 -29 -12 -84 -26 -122 -23 -65 -25 -96 -5 -96 14 0 69
126 75 174 5 34 2 52 -10 71 -25 38 -33 31 -34 -27z"/>
<path d="M8007 3222 c-30 -33 -22 -50 23 -48 38 1 40 2 40 33 0 28 -4 33 -23
33 -13 0 -31 -8 -40 -18z"/>
<path d="M8226 3238 c15 -49 24 -68 32 -68 20 0 20 15 1 51 -21 42 -45 54 -33
17z"/>
<path d="M8320 3116 c0 -25 28 -86 39 -86 16 0 25 22 12 29 -7 4 -15 21 -19
36 -9 31 -32 46 -32 21z"/>
<path d="M5388 2861 c-3 -60 -10 -85 -27 -110 -38 -53 -54 -39 -26 22 26 54
32 101 15 112 -5 3 -14 -14 -21 -37 -6 -24 -19 -59 -29 -78 -9 -19 -21 -45
-24 -57 -7 -22 -5 -23 51 -23 l58 0 18 63 c9 34 22 81 29 104 11 37 10 44 -7
63 -10 11 -21 20 -25 20 -4 0 -9 -35 -12 -79z"/>
<path d="M7183 7993 c-24 -9 -12 -103 13 -103 15 0 34 39 34 70 0 21 -28 40
-47 33z"/>
<path d="M8670 6916 c0 -14 10 -30 25 -40 24 -16 25 -16 25 8 0 37 -10 56 -31
56 -13 0 -19 -7 -19 -24z"/>
<path d="M791 883 c-1 -47 1 -53 19 -53 19 0 19 2 6 38 -8 20 -17 44 -19 52
-3 8 -6 -9 -6 -37z"/>
</g>
</svg>
